<svg width="158" height="151" viewBox="0 0 158 151" fill="none" xmlns="http://www.w3.org/2000/svg">
<g clip-path="url(#clip0_1_7524)">
<rect y="88.1875" width="137.195" height="81.6602" rx="5.77671" transform="rotate(-40 0 88.1875)" fill="#1E1E1E"/>
<path d="M39.7329 93.082L-36.8974 157.383" stroke="#FAAD21" stroke-width="0.816602"/>
<circle cx="40.67" cy="92.2951" r="1.63321" transform="rotate(50 40.67 92.2951)" fill="#FAAD21"/>
<path d="M49.9656 88.7598L-26.6648 153.06" stroke="#FAAD21" stroke-width="0.816602"/>
<circle cx="50.9027" cy="87.9728" r="1.63321" transform="rotate(50 50.9027 87.9728)" fill="#FAAD21"/>
<path d="M64.8887 80.502L-11.7417 144.802" stroke="#FAAD21" stroke-width="0.816602"/>
<circle cx="65.8258" cy="79.715" r="1.63321" transform="rotate(50 65.8258 79.715)" fill="#FAAD21"/>
<path d="M62.6096 86.6777L-14.0207 150.978" stroke="#FAAD21" stroke-width="0.816602"/>
<circle cx="63.5467" cy="85.8908" r="1.63321" transform="rotate(50 63.5467 85.8908)" fill="#FAAD21"/>
<path d="M77.8467 78.1582L1.21633 142.459" stroke="#FAAD21" stroke-width="0.816602"/>
<circle cx="78.7838" cy="77.3712" r="1.63321" transform="rotate(50 78.7838 77.3712)" fill="#FAAD21"/>
<path d="M93.7068 69.1113L17.0764 133.412" stroke="#FAAD21" stroke-width="0.816602"/>
<circle cx="94.6439" cy="68.3243" r="1.63321" transform="rotate(50 94.6439 68.3243)" fill="#FAAD21"/>
<path d="M89.8638 76.5996L13.2334 140.9" stroke="#FAAD21" stroke-width="0.816602"/>
<circle cx="90.8009" cy="75.8126" r="1.63321" transform="rotate(50 90.8009 75.8126)" fill="#FAAD21"/>
<path d="M104.788 68.3418L25.6555 134.742" stroke="#FAAD21" stroke-width="0.816602"/>
<circle cx="105.727" cy="67.5529" r="1.63321" transform="rotate(50 105.727 67.5529)" fill="#FAAD21"/>
<path d="M90.9346 84.2305L14.3042 148.531" stroke="#FAAD21" stroke-width="0.816602"/>
<circle cx="91.8717" cy="83.4435" r="1.63321" transform="rotate(50 91.8717 83.4435)" fill="#FAAD21"/>
<path d="M106.483 75.4453L29.8528 139.746" stroke="#FAAD21" stroke-width="0.816602"/>
<circle cx="107.42" cy="74.6583" r="1.63321" transform="rotate(50 107.42 74.6583)" fill="#FAAD21"/>
<path d="M99.5142 85.5586L22.8838 149.859" stroke="#FAAD21" stroke-width="0.816602"/>
<circle cx="100.451" cy="84.7716" r="1.63321" transform="rotate(50 100.451 84.7716)" fill="#FAAD21"/>
<path d="M109.123 81.7656L32.4922 146.066" stroke="#FAAD21" stroke-width="0.816602"/>
<circle cx="110.06" cy="80.9786" r="1.63321" transform="rotate(50 110.06 80.9786)" fill="#FAAD21"/>
<path d="M95.5818 97.3887L18.9514 161.689" stroke="#FAAD21" stroke-width="0.816602"/>
<circle cx="96.5189" cy="96.6017" r="1.63321" transform="rotate(50 96.5189 96.6017)" fill="#FAAD21"/>
<path d="M113.317 86.7676L36.6863 151.068" stroke="#FAAD21" stroke-width="0.816602"/>
<circle cx="114.256" cy="85.9786" r="1.63321" transform="rotate(50 114.256 85.9786)" fill="#FAAD21"/>
<path d="M107.821 99.9043L31.1907 164.205" stroke="#FAAD21" stroke-width="0.816602"/>
<circle cx="108.758" cy="99.1173" r="1.63321" transform="rotate(50 108.758 99.1173)" fill="#FAAD21"/>
<path d="M116.803 96.6367L40.1726 160.937" stroke="#FAAD21" stroke-width="0.816602"/>
<circle cx="117.74" cy="95.8497" r="1.63321" transform="rotate(50 117.74 95.8497)" fill="#FAAD21"/>
<path d="M124.533 94.4141L46.0265 160.289" stroke="#FAAD21" stroke-width="0.816602"/>
<circle cx="125.472" cy="93.629" r="1.63321" transform="rotate(50 125.472 93.629)" fill="#FAAD21"/>
<path d="M116.311 105.576L39.6807 169.877" stroke="#FAAD21" stroke-width="0.816602"/>
<circle cx="117.248" cy="104.789" r="1.63321" transform="rotate(50 117.248 104.789)" fill="#FAAD21"/>
<path d="M123.103 104.141L46.4727 168.441" stroke="#FAAD21" stroke-width="0.816602"/>
<circle cx="124.04" cy="103.354" r="1.63321" transform="rotate(50 124.04 103.354)" fill="#FAAD21"/>
<path d="M129.892 102.709L53.2615 167.009" stroke="#FAAD21" stroke-width="0.816602"/>
<circle cx="130.831" cy="101.92" r="1.63321" transform="rotate(50 130.831 101.92)" fill="#FAAD21"/>
<path d="M119.486 85.8574L39.7275 152.782" stroke="#FAAD21" stroke-width="0.816602"/>
<circle cx="120.425" cy="85.0724" r="1.63321" transform="rotate(50 120.425 85.0724)" fill="#FAAD21"/>
<path d="M138.524 64.2325L136.977 60.2357L137.987 59.3883L140.003 60.6651L140.123 57.5957L141.299 56.6086L142.841 60.6101L141.637 61.6204L141.111 60.2839L141.009 61.5706L140.016 62.4041L139.158 61.9228L139.695 63.2501L138.524 64.2325Z" fill="white"/>
<path d="M133.364 64.5725L132.944 63.5639L136.717 60.3977L137.104 61.4343L135.412 62.8544L135.984 62.8942L136.988 65.5221L135.812 66.5092L134.657 63.4876L133.364 64.5725Z" fill="white"/>
<path fill-rule="evenodd" clip-rule="evenodd" d="M130.393 71.3779L128.689 67.0012C128.678 66.9723 128.685 66.9403 128.709 66.9203L131.922 64.2243C132.249 63.9496 132.763 63.965 133.008 64.2906C133.716 65.2288 134.016 66.5619 132.973 67.4373C132.973 67.4373 135.639 68.2713 137.192 68.8138C137.245 68.8322 137.257 68.9011 137.214 68.9372L135.918 70.0253C135.898 70.042 135.871 70.0468 135.846 70.0379L131.758 68.5508C131.71 68.5331 131.655 68.5427 131.616 68.5759L131.241 68.8902C131.195 68.9293 131.177 68.9931 131.198 69.0503L131.672 70.3676C131.682 70.3961 131.674 70.4281 131.65 70.4476L130.507 71.4071C130.469 71.439 130.411 71.4241 130.393 71.3779ZM130.121 67.4172C130.302 67.421 130.511 67.4254 130.543 67.4575C130.6 67.5149 130.646 67.6835 130.676 67.7937C130.692 67.8555 130.704 67.8988 130.71 67.8938C130.711 67.8927 130.722 67.8835 130.742 67.8675C130.964 67.6832 132.274 66.5948 132.306 66.5507C132.404 66.4188 132.123 65.64 131.972 65.6679C131.85 65.6907 129.874 67.3485 129.844 67.3913C129.83 67.411 129.966 67.4139 130.121 67.4172Z" fill="white"/>
<path fill-rule="evenodd" clip-rule="evenodd" d="M130.307 71.4502L128.604 67.0735C128.593 67.0446 128.6 67.0126 128.624 66.9926L131.837 64.2966C132.164 64.0219 132.677 64.0373 132.923 64.3628C133.63 65.3011 133.931 66.6342 132.887 67.5096C132.887 67.5096 135.554 68.3436 137.107 68.886C137.16 68.9045 137.172 68.9734 137.129 69.0094L135.832 70.0976C135.812 70.1142 135.785 70.119 135.761 70.1102L131.673 68.623C131.624 68.6053 131.57 68.6149 131.53 68.6482L131.156 68.9625C131.109 69.0015 131.092 69.0654 131.113 69.1225L131.587 70.4399C131.597 70.4684 131.588 70.5004 131.565 70.5199L130.421 71.4794C130.383 71.5113 130.325 71.4964 130.307 71.4502ZM130.034 67.4907C130.215 67.4946 130.423 67.499 130.455 67.5311C130.512 67.5884 130.558 67.7571 130.588 67.8672C130.605 67.929 130.617 67.9724 130.623 67.9673C130.624 67.9662 130.635 67.957 130.654 67.9411C130.876 67.7567 132.186 66.6683 132.219 66.6242C132.316 66.4923 132.035 65.7135 131.885 65.7415C131.762 65.7642 129.787 67.4221 129.757 67.4648C129.743 67.4846 129.878 67.4874 130.034 67.4907Z" fill="white"/>
<path d="M136.341 67.7085L135.83 66.8441L136.101 66.6172C136.159 66.5679 136.215 66.5386 136.267 66.5292C136.32 66.5193 136.367 66.5267 136.411 66.5513C136.454 66.5755 136.492 66.6143 136.524 66.6676C136.555 66.7207 136.572 66.7754 136.576 66.8318C136.58 66.888 136.57 66.9437 136.544 66.9989C136.518 67.0537 136.476 67.1057 136.417 67.155L136.213 67.3269L136.147 67.2141L136.341 67.0509C136.379 67.0196 136.405 66.9882 136.421 66.9566C136.437 66.9251 136.444 66.8933 136.441 66.8612C136.438 66.8289 136.427 66.7967 136.408 66.7646C136.388 66.7318 136.366 66.7081 136.341 66.6936C136.316 66.6788 136.288 66.6749 136.258 66.6818C136.227 66.6884 136.192 66.7075 136.155 66.739L136.011 66.8596L136.455 67.6125L136.341 67.7085ZM136.485 67.0044L136.903 67.237L136.772 67.3464L136.358 67.111L136.485 67.0044ZM136.954 67.1943L136.443 66.3299L136.919 65.9308L136.985 66.043L136.624 66.3461L136.779 66.6096L137.116 66.3273L137.182 66.4392L136.845 66.7214L137.002 66.986L137.367 66.6792L137.434 66.7914L136.954 67.1943ZM137.521 66.7181L137.4 66.8201L137.162 65.7266L137.294 65.6156L138.078 66.2509L137.956 66.3529L137.325 65.8249L137.319 65.8299L137.521 66.7181ZM137.342 66.3626L137.736 66.0318L137.8 66.1418L137.406 66.4726L137.342 66.3626ZM138.395 65.9851L138.146 66.194L137.635 65.3296L137.885 65.1198C137.96 65.0572 138.034 65.021 138.109 65.0113C138.184 65.0014 138.255 65.017 138.323 65.0582C138.39 65.0991 138.451 65.165 138.505 65.256C138.557 65.3448 138.588 65.4329 138.597 65.5202C138.607 65.6071 138.595 65.6901 138.561 65.7693C138.527 65.8485 138.472 65.9204 138.395 65.9851ZM138.193 65.9836L138.316 65.881C138.373 65.8325 138.414 65.7793 138.437 65.7214C138.461 65.6633 138.468 65.6018 138.459 65.5369C138.449 65.472 138.424 65.4047 138.383 65.3349C138.344 65.2683 138.301 65.2198 138.256 65.1893C138.21 65.1585 138.162 65.1468 138.112 65.154C138.061 65.161 138.007 65.1877 137.952 65.2341L137.817 65.3476L138.193 65.9836ZM138.228 64.832L138.358 64.7229L138.789 64.949L138.798 64.9419L138.763 64.3834L138.893 64.2743L138.928 65.0302L139.128 65.3697L139.014 65.4654L138.813 65.1262L138.228 64.832ZM139.015 64.3396L138.949 64.2274L139.536 63.7346L139.602 63.8469L139.366 64.0455L139.81 64.7977L139.696 64.8934L139.251 64.1412L139.015 64.3396ZM140.49 63.5932C140.544 63.6841 140.575 63.7743 140.584 63.8637C140.594 63.9529 140.584 64.0361 140.554 64.1133C140.524 64.1901 140.477 64.2555 140.413 64.3094C140.346 64.3655 140.275 64.3976 140.201 64.4055C140.127 64.413 140.055 64.3958 139.985 64.354C139.915 64.3119 139.852 64.2442 139.797 64.1508C139.743 64.0598 139.712 63.9697 139.702 63.8806C139.693 63.7909 139.703 63.7075 139.733 63.6302C139.763 63.5528 139.81 63.4869 139.875 63.4326C139.941 63.3769 140.011 63.3453 140.085 63.3381C140.159 63.3304 140.231 63.3477 140.302 63.39C140.372 63.4321 140.435 63.4998 140.49 63.5932ZM140.367 63.6727C140.326 63.6037 140.282 63.5538 140.235 63.5231C140.188 63.492 140.14 63.4784 140.093 63.4822C140.045 63.486 140 63.5057 139.958 63.5411C139.913 63.5788 139.88 63.6255 139.86 63.6812C139.84 63.7367 139.834 63.7977 139.843 63.8644C139.852 63.9311 139.878 64 139.92 64.0713C139.961 64.1405 140.004 64.1904 140.052 64.2211C140.099 64.2518 140.146 64.2652 140.194 64.2614C140.242 64.2571 140.287 64.2372 140.329 64.2018C140.374 64.1643 140.406 64.1179 140.426 64.0627C140.446 64.007 140.452 63.946 140.444 63.8795C140.435 63.8128 140.409 63.7439 140.367 63.6727ZM140.31 63.0854L140.449 62.9688L141.088 63.4374L141.097 63.4299L140.941 62.556L141.079 62.4394L141.59 63.3038L141.481 63.3952L141.112 62.7694L141.105 62.7753L141.25 63.5875L141.159 63.6636L140.567 63.226L140.56 63.2319L140.929 63.8584L140.82 63.9498L140.31 63.0854ZM141.298 62.2563L141.808 63.1207L141.694 63.2167L141.183 62.3523L141.298 62.2563ZM142.014 61.6551L142.525 62.5195L142.42 62.6077L141.66 62.2972L141.653 62.3028L142.027 62.9372L141.913 63.0333L141.402 62.1689L141.508 62.08L142.269 62.391L142.276 62.3851L141.901 61.7502L142.014 61.6551ZM142.629 62.4319L142.119 61.5675L142.594 61.1683L142.661 61.2805L142.3 61.5836L142.455 61.8471L142.791 61.5649L142.857 61.6767L142.521 61.959L142.677 62.2236L143.043 61.9168L143.109 62.029L142.629 62.4319Z" fill="white"/>
<path d="M14.6362 90.1584L13.8619 90.8081L13.4999 90.3851L14.15 89.8396C14.2646 89.7435 14.3462 89.6502 14.3951 89.5598C14.4428 89.4681 14.4608 89.3789 14.4492 89.2922C14.4378 89.2029 14.3974 89.1169 14.3279 89.0341C14.2491 88.9402 14.1675 88.8794 14.083 88.8515C13.9998 88.8225 13.91 88.8262 13.8134 88.8625C13.7183 88.8976 13.6127 88.9638 13.4968 89.0611L13.0662 89.4225L15.1873 91.9504L14.5662 92.4716L12.0368 89.4571L13.0885 88.5746C13.2638 88.4275 13.4344 88.3126 13.6002 88.2299C13.7674 88.1461 13.9277 88.0974 14.0811 88.084C14.2344 88.0706 14.3801 88.0942 14.518 88.1548C14.6548 88.2141 14.7822 88.3142 14.9004 88.4549C15.0046 88.5792 15.0724 88.7175 15.1039 88.8699C15.1367 89.0211 15.1208 89.1802 15.0563 89.3472C14.9932 89.5131 14.8686 89.6799 14.6826 89.8478L14.6362 90.1584ZM15.7194 91.5039L14.8022 92.2735L14.638 91.5858L15.3129 91.0195C15.4219 90.928 15.4965 90.836 15.5365 90.7436C15.5754 90.6498 15.586 90.5586 15.5681 90.4701C15.5503 90.3816 15.5084 90.298 15.4424 90.2193C15.3682 90.131 15.2888 90.0671 15.204 90.0277C15.1206 89.9872 15.0319 89.9769 14.9381 89.9968C14.8431 90.0153 14.7425 90.0692 14.6362 90.1584L14.0379 90.6604L13.6842 90.2305L14.4295 89.6051L14.7131 89.6529C14.8943 89.4961 15.0692 89.4046 15.2378 89.3784C15.4065 89.3497 15.5611 89.3671 15.7013 89.4305C15.8429 89.4928 15.9647 89.5846 16.0666 89.7061C16.2288 89.8993 16.3233 90.0975 16.3503 90.3007C16.3761 90.5024 16.3354 90.7048 16.2281 90.9077C16.1222 91.1095 15.9527 91.3082 15.7194 91.5039ZM16.221 89.2131L16.1845 89.1697C16.0467 89.0054 15.9434 88.8346 15.8745 88.6572C15.8044 88.4784 15.7714 88.3003 15.7754 88.1229C15.7794 87.9455 15.8233 87.7735 15.9069 87.6068C15.9894 87.4388 16.1155 87.2836 16.2853 87.1412C16.455 86.9987 16.6305 86.9009 16.8116 86.8477C16.9916 86.7931 17.1693 86.7792 17.3448 86.8061C17.5216 86.8318 17.6919 86.8946 17.8558 86.9946C18.0186 87.0933 18.1688 87.2247 18.3067 87.389L18.3431 87.4325C18.4798 87.5953 18.5832 87.7662 18.6532 87.9449C18.7221 88.1223 18.7544 88.301 18.7502 88.481C18.7462 88.6584 18.7023 88.8304 18.6187 88.997C18.5351 89.1637 18.4084 89.3182 18.2386 89.4606C18.0688 89.6031 17.8939 89.7016 17.714 89.7562C17.5353 89.8096 17.3576 89.8235 17.1808 89.7978C17.0043 89.7696 16.8346 89.7061 16.6719 89.6075C16.508 89.5075 16.3577 89.376 16.221 89.2131ZM16.7808 88.6693L16.8173 88.7128C16.896 88.8067 16.9779 88.8874 17.0628 88.9549C17.1476 89.0224 17.2341 89.0722 17.3221 89.1042C17.4103 89.1337 17.4986 89.1408 17.5869 89.1255C17.6752 89.1102 17.7621 89.0666 17.8477 88.9948C17.9305 88.9253 17.9871 88.8484 18.0175 88.7641C18.0479 88.6798 18.0556 88.5922 18.0405 88.5014C18.0243 88.4092 17.9903 88.3154 17.9385 88.2201C17.8881 88.1236 17.8236 88.0284 17.7448 87.9345L17.7083 87.8911C17.6319 87.8 17.5511 87.7219 17.466 87.6569C17.3811 87.5894 17.294 87.5402 17.2046 87.5093C17.1154 87.476 17.0261 87.4662 16.9366 87.4802C16.8472 87.4941 16.7603 87.5363 16.6761 87.607C16.592 87.6776 16.5352 87.7558 16.506 87.8415C16.4781 87.926 16.4722 88.0157 16.4882 88.1104C16.5045 88.2027 16.5385 88.2964 16.5902 88.3918C16.6408 88.4857 16.7044 88.5782 16.7808 88.6693ZM18.7358 85.9705L20.2142 87.7324L19.6179 88.2327L17.7382 85.9926L18.2972 85.5235L18.7358 85.9705ZM19.1214 86.6066L18.9599 86.7421C18.8209 86.5765 18.7172 86.4094 18.6488 86.241C18.5792 86.0713 18.5437 85.907 18.5423 85.7483C18.5397 85.5882 18.5706 85.4387 18.6352 85.2999C18.7 85.1584 18.7987 85.0322 18.9312 84.921C19.0361 84.8329 19.1448 84.7676 19.2572 84.725C19.3696 84.6824 19.4847 84.6682 19.6024 84.6823C19.7215 84.6953 19.8433 84.7424 19.968 84.8237C20.094 84.9038 20.223 85.0225 20.355 85.1798L21.5537 86.6084L20.9533 87.1122L19.7529 85.6816C19.6695 85.5822 19.5908 85.5165 19.5169 85.4844C19.4429 85.4524 19.3698 85.4479 19.2974 85.471C19.2253 85.4915 19.1506 85.5342 19.0733 85.5991C18.9932 85.6662 18.9369 85.7406 18.9041 85.8222C18.8728 85.9025 18.8616 85.9872 18.8704 86.0763C18.8795 86.1627 18.9056 86.2514 18.9488 86.3421C18.992 86.4329 19.0495 86.521 19.1214 86.6066ZM22.8822 84.5799L21.4524 82.8759L22.0487 82.3756L23.9284 84.6158L23.3673 85.0865L22.8822 84.5799ZM22.5628 84.0646L22.7353 83.9128C22.8604 84.0619 22.9595 84.2151 23.0327 84.3724C23.1048 84.5283 23.1457 84.6822 23.1554 84.834C23.164 84.9843 23.1378 85.1298 23.0769 85.2702C23.0149 85.4093 22.9128 85.5385 22.7706 85.6578C22.6616 85.7493 22.5481 85.8187 22.4301 85.8659C22.3124 85.9106 22.1926 85.9276 22.0708 85.917C21.9491 85.9038 21.8257 85.8603 21.7004 85.7867C21.5753 85.7105 21.4503 85.5979 21.3252 85.4489L20.1109 84.0017L20.7071 83.5014L21.9249 84.9527C21.9805 85.0189 22.035 85.0685 22.0884 85.1013C22.1432 85.1329 22.1972 85.1511 22.2505 85.1557C22.3039 85.1604 22.355 85.1527 22.4041 85.1327C22.4546 85.1116 22.5039 85.0807 22.5523 85.0402C22.6751 84.9371 22.7509 84.8312 22.7796 84.7224C22.8096 84.6125 22.8033 84.5026 22.7604 84.3927C22.7178 84.2803 22.652 84.1709 22.5628 84.0646ZM25.0756 82.5982C25.0397 82.5554 24.9949 82.5272 24.9411 82.5136C24.8873 82.4999 24.8144 82.507 24.7224 82.5347C24.6307 82.5599 24.5116 82.6128 24.3652 82.6934C24.2311 82.7635 24.0995 82.8211 23.9702 82.866C23.8412 82.9084 23.7182 82.9329 23.6012 82.9392C23.4857 82.9445 23.3772 82.9273 23.2758 82.8878C23.1732 82.8468 23.082 82.7787 23.0021 82.6835C22.9233 82.5896 22.8692 82.4845 22.8397 82.3681C22.8117 82.2505 22.8089 82.1282 22.8316 82.001C22.8544 81.8712 22.906 81.7421 22.9863 81.6136C23.0669 81.4825 23.1768 81.3585 23.3162 81.2415C23.5108 81.0782 23.7039 80.9691 23.8954 80.9142C24.0883 80.8582 24.2678 80.8535 24.4338 80.9C24.6001 80.9439 24.7411 81.0349 24.8569 81.1729L24.2607 81.6733C24.212 81.6153 24.1562 81.574 24.0931 81.5493C24.0303 81.522 23.9623 81.5167 23.8892 81.5333C23.8164 81.5474 23.7399 81.5881 23.6599 81.6552C23.5936 81.7108 23.5462 81.7706 23.5176 81.8346C23.4878 81.8972 23.476 81.9589 23.4822 82.0195C23.4886 82.0776 23.511 82.1295 23.5492 82.175C23.5781 82.2095 23.6111 82.2348 23.648 82.2508C23.6852 82.2643 23.7297 82.2682 23.7813 82.2625C23.833 82.2568 23.8931 82.2416 23.9618 82.2169C24.0307 82.1896 24.1108 82.1506 24.2022 82.0998C24.3915 81.9974 24.5722 81.9199 24.7444 81.8671C24.9154 81.813 25.0764 81.8003 25.2273 81.8288C25.3772 81.856 25.5134 81.9427 25.6362 82.089C25.7196 82.1884 25.774 82.298 25.7993 82.4179C25.8246 82.5378 25.8219 82.6635 25.7912 82.7951C25.7594 82.9253 25.6999 83.0564 25.613 83.1881C25.5262 83.3174 25.411 83.4422 25.2675 83.5627C25.0591 83.7376 24.8511 83.8486 24.6437 83.8956C24.4376 83.9415 24.2492 83.9385 24.0785 83.8865C23.9081 83.8319 23.7719 83.7439 23.67 83.6224L24.2352 83.1482C24.3063 83.2273 24.382 83.2755 24.4624 83.2927C24.5441 83.3089 24.6246 83.3025 24.7038 83.2736C24.7845 83.2436 24.8607 83.1984 24.9325 83.1382C25.0098 83.0733 25.0652 83.0091 25.0989 82.9456C25.1315 82.8806 25.1458 82.8192 25.1419 82.7613C25.1383 82.7009 25.1162 82.6465 25.0756 82.5982ZM19.1607 96.1559C19.2656 96.0679 19.3474 95.9664 19.4061 95.8513C19.465 95.7336 19.4917 95.6113 19.4862 95.4842C19.4809 95.3546 19.4349 95.2297 19.3482 95.1096L19.5842 94.9115C19.6966 95.0595 19.7597 95.2229 19.7734 95.4019C19.7874 95.5783 19.7569 95.7522 19.6818 95.9234C19.6069 96.092 19.4929 96.2406 19.3397 96.3692C19.1837 96.5001 19.0219 96.5876 18.8544 96.6317C18.6882 96.6748 18.5228 96.6795 18.3582 96.6459C18.1924 96.6109 18.0321 96.5432 17.8772 96.4427C17.7225 96.3396 17.5791 96.2094 17.4471 96.052L17.3741 95.9651C17.2421 95.8077 17.1394 95.6446 17.0659 95.4758C16.9926 95.3044 16.9538 95.1347 16.9493 94.9668C16.9436 94.7975 16.9764 94.6348 17.0476 94.4786C17.1188 94.3224 17.2324 94.1788 17.3884 94.048C17.5485 93.9136 17.7193 93.8256 17.9007 93.7839C18.0835 93.7411 18.2626 93.7472 18.4382 93.8022C18.6151 93.856 18.7753 93.9615 18.9188 94.1186L18.6828 94.3166C18.5752 94.2023 18.4566 94.1254 18.327 94.086C18.1975 94.0465 18.0667 94.0421 17.9349 94.0728C17.803 94.1034 17.6805 94.1662 17.5673 94.2612C17.4404 94.3678 17.3529 94.4835 17.3048 94.6085C17.2557 94.7321 17.2387 94.8604 17.2539 94.9935C17.2693 95.124 17.3097 95.2548 17.375 95.3858C17.4391 95.5155 17.5209 95.6397 17.6205 95.7584L17.6935 95.8453C17.7942 95.9654 17.9028 96.0695 18.0191 96.1577C18.1357 96.2434 18.2569 96.3051 18.3828 96.343C18.51 96.3797 18.6393 96.3853 18.7707 96.3597C18.9024 96.3316 19.0324 96.2636 19.1607 96.1559ZM21.6904 93.6416L20.721 92.4864C20.6319 92.3801 20.5328 92.3068 20.4237 92.2666C20.3147 92.2264 20.2 92.2215 20.0797 92.2519C19.9594 92.2823 19.8364 92.3502 19.7108 92.4556C19.5949 92.5528 19.5088 92.6604 19.4524 92.7782C19.3963 92.8936 19.3709 93.0077 19.3764 93.1207C19.3821 93.2312 19.4197 93.3279 19.4891 93.4107L19.239 93.6171C19.1683 93.5329 19.1207 93.4341 19.0961 93.3207C19.0715 93.2072 19.0711 93.0876 19.0949 92.9618C19.1187 92.836 19.168 92.7112 19.2427 92.5873C19.3177 92.4608 19.4187 92.3443 19.5457 92.2378C19.7058 92.1034 19.8692 92.0122 20.0358 91.9641C20.2038 91.9149 20.3675 91.9151 20.5269 91.9649C20.6862 92.0146 20.8342 92.1209 20.9709 92.2838L21.8795 93.3666C21.9443 93.4439 22.017 93.5193 22.0976 93.5929C22.1795 93.6652 22.254 93.7191 22.3213 93.7544L22.3421 93.7792L22.0792 93.9999C22.021 93.9641 21.9557 93.913 21.8835 93.8465C21.8115 93.7776 21.7472 93.7093 21.6904 93.6416ZM20.991 92.6903L21.1549 92.8773L20.6684 93.2856C20.5414 93.3921 20.4374 93.4994 20.3563 93.6074C20.2755 93.7129 20.2191 93.8167 20.1871 93.9187C20.154 94.0194 20.1443 94.1158 20.158 94.2078C20.1731 94.2986 20.213 94.3827 20.2779 94.46C20.3451 94.54 20.4265 94.5964 20.5221 94.6291C20.6191 94.6606 20.7216 94.6651 20.8297 94.6426C20.9381 94.6175 21.044 94.5615 21.1475 94.4747C21.2856 94.3589 21.3856 94.2314 21.4476 94.0923C21.5111 93.9521 21.5425 93.8116 21.5421 93.6709C21.5416 93.5301 21.512 93.4009 21.4532 93.2833L21.6807 93.3358C21.7207 93.4198 21.7472 93.5187 21.7603 93.6324C21.7736 93.7436 21.7689 93.8627 21.7463 93.9899C21.7225 94.1157 21.6756 94.2421 21.6057 94.369C21.536 94.4933 21.4363 94.6099 21.3065 94.7188C21.1602 94.8416 21.0094 94.9211 20.854 94.9574C20.7 94.9925 20.5527 94.9879 20.4121 94.9436C20.2716 94.8968 20.1505 94.8127 20.0485 94.6912C19.9559 94.5808 19.8966 94.4624 19.8705 94.3361C19.8433 94.2084 19.8484 94.0771 19.8858 93.9423C19.9234 93.8049 19.9917 93.6676 20.0906 93.5305C20.1898 93.3908 20.3181 93.2549 20.4754 93.1229L20.991 92.6903ZM21.6161 91.2026L23.1848 93.0722L22.9384 93.2789L21.0587 91.0388L21.2989 90.8373L21.6161 91.2026ZM22.0841 90.1501L22.269 90.3831C22.2379 90.4021 22.2081 90.4212 22.1796 90.4405C22.1511 90.4597 22.1216 90.4821 22.0912 90.5076C21.9836 90.5979 21.9058 90.6972 21.858 90.8056C21.8103 90.9114 21.7885 91.0227 21.7923 91.1394C21.795 91.2547 21.8213 91.3715 21.871 91.4897C21.9196 91.6065 21.9865 91.7198 22.0715 91.8295L22.0099 91.9411C21.8872 91.7948 21.7883 91.6461 21.7132 91.4951C21.6382 91.344 21.5924 91.1954 21.5757 91.0495C21.5593 90.901 21.5767 90.7605 21.6279 90.6282C21.6794 90.4933 21.77 90.3714 21.8997 90.2625C21.9315 90.2359 21.9649 90.2126 21.9998 90.1926C22.0351 90.1701 22.0632 90.156 22.0841 90.1501ZM25.4162 90.4589L23.1126 87.7136L23.3611 87.5051L26.0295 90.6852L25.7976 90.8798L25.4162 90.4589ZM23.3054 91.101L23.269 91.0576C23.123 90.8837 23.0116 90.7102 22.9346 90.5372C22.8565 90.3628 22.8131 90.1947 22.8042 90.0328C22.7956 89.8683 22.8224 89.7153 22.8847 89.5737C22.9458 89.4306 23.0433 89.303 23.1771 89.1906C23.3083 89.0806 23.4422 89.0047 23.5788 88.963C23.7155 88.9212 23.8533 88.9102 23.9922 88.9301C24.1326 88.9487 24.2711 88.9948 24.408 89.0681C24.5462 89.1403 24.6824 89.2354 24.8166 89.3532L25.2804 89.906C25.3704 90.0469 25.4379 90.189 25.4829 90.3324C25.5268 90.4743 25.5451 90.6153 25.538 90.7554C25.5297 90.8941 25.4917 91.0282 25.4241 91.1579C25.3567 91.285 25.2561 91.4047 25.1222 91.5171C24.9897 91.6282 24.8471 91.7008 24.6945 91.7348C24.5419 91.7688 24.3861 91.7666 24.227 91.7284C24.0668 91.6888 23.9081 91.6161 23.7511 91.5103C23.5941 91.4045 23.4456 91.2681 23.3054 91.101ZM23.5174 90.8491L23.5539 90.8926C23.6639 91.0237 23.7789 91.1342 23.899 91.224C24.019 91.3138 24.1407 91.3775 24.264 91.4151C24.3873 91.4528 24.5101 91.4603 24.6323 91.4377C24.7545 91.4152 24.8722 91.3564 24.9853 91.2614C25.1275 91.1422 25.2243 91.0151 25.2758 90.8802C25.326 90.7439 25.3425 90.6066 25.3252 90.4682C25.3068 90.3285 25.2655 90.1938 25.2014 90.0641L24.6611 89.4202C24.5831 89.361 24.4964 89.3067 24.401 89.2574C24.3055 89.2081 24.2036 89.1749 24.0951 89.1578C23.9868 89.1381 23.8744 89.1442 23.7578 89.1762C23.6414 89.2057 23.5238 89.2702 23.4051 89.3698C23.2905 89.4659 23.2115 89.5722 23.1681 89.6886C23.1247 89.805 23.1107 89.9285 23.1261 90.059C23.1418 90.187 23.1834 90.3179 23.251 90.4517C23.3186 90.5855 23.4074 90.718 23.5174 90.8491Z" fill="white"/>
<path d="M74.5701 40.8198L72.2796 38.0901L72.5941 37.8261L73.4396 38.8338L73.4663 38.8114C73.4596 38.7565 73.4535 38.6843 73.4482 38.5949C73.443 38.5039 73.4608 38.4042 73.5015 38.2958C73.5424 38.1857 73.6295 38.0748 73.7628 37.963C73.9352 37.8183 74.1233 37.7339 74.3272 37.7098C74.531 37.6856 74.7361 37.7217 74.9426 37.8179C75.1491 37.9142 75.3425 38.0699 75.523 38.2849C75.7049 38.5017 75.8257 38.7206 75.8854 38.9415C75.9444 39.1616 75.9451 39.37 75.8875 39.5666C75.8292 39.7624 75.7148 39.9319 75.5442 40.0751C75.4127 40.1854 75.2891 40.252 75.1735 40.2748C75.0571 40.2967 74.9541 40.2976 74.8645 40.2774C74.7741 40.2563 74.7018 40.2368 74.6473 40.2189L74.61 40.2502L74.874 40.5648L74.5701 40.8198ZM74.0204 39.5367C74.1501 39.6913 74.2872 39.8087 74.4317 39.8888C74.5754 39.9681 74.7188 40.0045 74.8618 39.9981C75.004 39.9908 75.1383 39.9342 75.2644 39.8283C75.3959 39.7179 75.4766 39.5912 75.5064 39.4481C75.5364 39.3033 75.524 39.1532 75.4692 38.9978C75.4146 38.8407 75.3262 38.6892 75.2039 38.5435C75.0831 38.3996 74.9521 38.2885 74.8107 38.2102C74.6695 38.1304 74.5261 38.094 74.3806 38.101C74.2352 38.1064 74.0959 38.165 73.9626 38.2768C73.8347 38.3842 73.7544 38.5069 73.7217 38.6448C73.6883 38.7818 73.6979 38.9268 73.7504 39.0796C73.8021 39.2315 73.8921 39.3838 74.0204 39.5367ZM77.7261 38.2442C77.5412 38.3993 77.3422 38.4914 77.1289 38.5205C76.9164 38.5489 76.7048 38.5167 76.4938 38.4242C76.2838 38.3309 76.0901 38.1785 75.9126 37.967C75.7337 37.7538 75.6161 37.5352 75.56 37.3113C75.5047 37.0866 75.5095 36.8721 75.5743 36.6678C75.64 36.4628 75.7652 36.2828 75.9501 36.1277C76.1349 35.9726 76.3335 35.8809 76.5459 35.8525C76.7593 35.8234 76.9713 35.856 77.1821 35.9502C77.3937 36.0436 77.589 36.197 77.768 36.4102C77.9454 36.6217 78.0614 36.8393 78.1159 37.0631C78.1713 37.2861 78.1662 37.5002 78.1005 37.7052C78.0357 37.9095 77.9109 38.0892 77.7261 38.2442ZM77.489 37.9617C77.6294 37.8439 77.7147 37.711 77.7449 37.5629C77.7752 37.4149 77.7628 37.264 77.708 37.1102C77.6531 36.9563 77.5682 36.811 77.4534 36.6742C77.3386 36.5373 77.2098 36.4281 77.0671 36.3464C76.9244 36.2648 76.7772 36.2256 76.6254 36.2287C76.4736 36.2319 76.3275 36.2924 76.1872 36.4102C76.0468 36.528 75.9618 36.6614 75.9323 36.8103C75.9028 36.9592 75.9159 37.111 75.9715 37.2658C76.0271 37.4205 76.1124 37.5662 76.2272 37.7031C76.342 37.8399 76.4704 37.9487 76.6124 38.0295C76.7543 38.1102 76.9008 38.1486 77.0518 38.1445C77.2029 38.1404 77.3486 38.0795 77.489 37.9617ZM78.3793 35.5248L79.4127 36.7563L79.0981 37.0203L77.3802 34.973L77.6841 34.718L77.9526 35.0379L77.9792 35.0155C77.94 34.8713 77.9427 34.7266 77.9875 34.5815C78.0316 34.4355 78.1309 34.2977 78.2855 34.168C78.4242 34.0516 78.5693 33.9783 78.721 33.9479C78.8719 33.9167 79.0244 33.9341 79.1783 34.0003C79.3315 34.0656 79.4812 34.1853 79.6273 34.3594L80.7189 35.6603L80.4043 35.9243L79.3306 34.6447C79.1957 34.4839 79.0488 34.3936 78.89 34.374C78.7304 34.3534 78.5777 34.4043 78.432 34.5266C78.3316 34.6108 78.2601 34.7079 78.2176 34.8178C78.1759 34.9269 78.1675 35.0423 78.1922 35.1639C78.217 35.2854 78.2794 35.4057 78.3793 35.5248ZM81.8815 33.2584L80.866 32.0481L81.1806 31.7842L82.8984 33.8314L82.5839 34.0954L82.2931 33.7488L82.2718 33.7667C82.311 33.911 82.3106 34.062 82.2704 34.2199C82.2295 34.3768 82.1317 34.5202 81.9771 34.6499C81.8492 34.7573 81.7119 34.8247 81.5655 34.8523C81.4182 34.8789 81.2684 34.8592 81.1161 34.7932C80.9631 34.7263 80.8135 34.6058 80.6674 34.4316L79.5758 33.1307L79.8904 32.8668L80.964 34.1463C81.0893 34.2956 81.2309 34.3796 81.389 34.3984C81.548 34.4164 81.6928 34.3706 81.8234 34.261C81.9016 34.1954 81.9644 34.1087 82.0117 34.0009C82.0599 33.8923 82.0768 33.7736 82.0626 33.6447C82.0492 33.5151 81.9889 33.3863 81.8815 33.2584ZM83.5916 30.5424L83.3761 30.8595C83.3188 30.8273 83.2542 30.8036 83.1823 30.7882C83.1105 30.7712 83.033 30.7727 82.9497 30.7926C82.8665 30.8124 82.7791 30.8608 82.6875 30.9376C82.5623 31.0427 82.4821 31.1592 82.447 31.287C82.4121 31.4133 82.4315 31.5203 82.5054 31.6083C82.571 31.6865 82.6512 31.7244 82.7461 31.722C82.841 31.7196 82.9616 31.6828 83.1078 31.6116L83.4743 31.4313C83.6946 31.3221 83.888 31.2756 84.0546 31.2918C84.2204 31.3072 84.3633 31.3864 84.4833 31.5294C84.5818 31.6467 84.636 31.7799 84.646 31.929C84.6569 32.0773 84.6247 32.2285 84.5495 32.3824C84.4743 32.5364 84.3571 32.6801 84.1981 32.8136C83.9893 32.9888 83.7784 33.0885 83.5655 33.1127C83.3526 33.1369 83.1549 33.0772 82.9723 32.9336L83.2083 32.6084C83.3292 32.6947 83.4523 32.7323 83.5776 32.721C83.7038 32.709 83.8313 32.6489 83.9601 32.5408C84.1067 32.4178 84.197 32.289 84.231 32.1545C84.2652 32.0183 84.2454 31.9063 84.1715 31.8183C84.1119 31.7472 84.0371 31.7086 83.947 31.7023C83.8563 31.6952 83.7493 31.7229 83.6261 31.7854L83.2178 31.9917C82.993 32.1046 82.7975 32.1513 82.6312 32.1319C82.4651 32.1107 82.3228 32.0295 82.2042 31.8882C82.1073 31.7727 82.054 31.6433 82.0443 31.5C82.0355 31.356 82.0663 31.2113 82.1366 31.066C82.2078 30.9199 82.3154 30.7865 82.4594 30.6657C82.662 30.4957 82.8583 30.4067 83.0484 30.3986C83.2394 30.3898 83.4204 30.4377 83.5916 30.5424ZM87.1353 31.5845L84.7733 28.7695L85.0772 28.5145L85.3501 28.8398L85.3874 28.8084C85.3806 28.7535 85.3746 28.6814 85.3693 28.592C85.364 28.5009 85.3818 28.4012 85.4226 28.2928C85.4635 28.1828 85.5506 28.0718 85.6839 27.96C85.8563 27.8154 86.0444 27.7309 86.2482 27.7068C86.4521 27.6826 86.6572 27.7187 86.8637 27.815C87.0701 27.9113 87.2636 28.0669 87.444 28.2819C87.626 28.4988 87.7468 28.7176 87.8065 28.9386C87.8654 29.1586 87.8662 29.367 87.8086 29.5637C87.7503 29.7595 87.6359 29.9289 87.4653 30.0721C87.3337 30.1824 87.2102 30.249 87.0946 30.2719C86.9782 30.2938 86.8752 30.2946 86.7856 30.2745C86.6952 30.2534 86.6228 30.2339 86.5684 30.2159L86.5417 30.2383L87.4499 31.3206L87.1353 31.5845ZM85.9414 29.5337C86.0712 29.6883 86.2083 29.8057 86.3527 29.8858C86.4965 29.9651 86.6399 30.0015 86.7829 29.9951C86.9251 29.9878 87.0593 29.9312 87.1855 29.8253C87.317 29.715 87.3977 29.5882 87.4275 29.4451C87.4574 29.3004 87.445 29.1503 87.3903 28.9948C87.3357 28.8377 87.2473 28.6863 87.125 28.5406C87.0042 28.3966 86.8731 28.2855 86.7318 28.2073C86.5906 28.1274 86.4472 28.091 86.3017 28.098C86.1563 28.1034 86.017 28.162 85.8837 28.2739C85.7557 28.3812 85.6754 28.5039 85.6428 28.6418C85.6094 28.7789 85.6189 28.9238 85.6714 29.0766C85.7232 29.2285 85.8132 29.3809 85.9414 29.5337ZM88.7783 28.8976L87.0605 26.8504L87.3643 26.5954L87.6238 26.9046L87.6451 26.8867C87.5975 26.7541 87.596 26.6152 87.6408 26.4701C87.6856 26.325 87.7693 26.201 87.892 26.0981C87.9151 26.0787 87.9443 26.0549 87.9797 26.0268C88.0151 25.9986 88.0425 25.9779 88.0617 25.9648L88.3301 26.2847C88.3172 26.2909 88.2894 26.3074 88.2468 26.3342C88.2042 26.3593 88.1621 26.3893 88.1203 26.4244C88.0208 26.5079 87.9495 26.6033 87.9063 26.7107C87.8633 26.8164 87.8497 26.9248 87.8655 27.0357C87.8815 27.1449 87.9282 27.2457 88.0058 27.3381L89.0929 28.6337L88.7783 28.8976ZM90.98 27.1229C90.7952 27.278 90.5961 27.3701 90.3828 27.3991C90.1703 27.4275 89.9587 27.3954 89.7478 27.3028C89.5377 27.2095 89.344 27.0571 89.1666 26.8457C88.9876 26.6324 88.8701 26.4138 88.8139 26.1899C88.7586 25.9652 88.7634 25.7508 88.8282 25.5465C88.8939 25.3414 89.0192 25.1614 89.204 25.0063C89.3888 24.8512 89.5874 24.7595 89.7999 24.7312C90.0132 24.7021 90.2252 24.7346 90.436 24.8288C90.6476 24.9222 90.8429 25.0756 91.0219 25.2889C91.1993 25.5003 91.3153 25.718 91.3699 25.9417C91.4253 26.1648 91.4201 26.3788 91.3544 26.5838C91.2896 26.7881 91.1648 26.9678 90.98 27.1229ZM90.7429 26.8403C90.8833 26.7225 90.9686 26.5896 90.9988 26.4416C91.0291 26.2935 91.0168 26.1426 90.9619 25.9888C90.907 25.835 90.8222 25.6896 90.7073 25.5528C90.5925 25.416 90.4637 25.3067 90.321 25.2251C90.1783 25.1434 90.0311 25.1042 89.8793 25.1074C89.7276 25.1106 89.5815 25.1711 89.4411 25.2889C89.3007 25.4067 89.2157 25.54 89.1862 25.6889C89.1567 25.8379 89.1698 25.9897 89.2254 26.1444C89.2811 26.2991 89.3663 26.4449 89.4811 26.5817C89.5959 26.7186 89.7243 26.8274 89.8663 26.9081C90.0082 26.9889 90.1547 27.0272 90.3058 27.0231C90.4568 27.0191 90.6025 26.9581 90.7429 26.8403ZM93.8584 26.0159C93.7064 26.1434 93.5594 26.2334 93.4173 26.2861C93.276 26.3396 93.1424 26.3653 93.0166 26.3634C92.8924 26.3616 92.7792 26.343 92.6769 26.3077L92.7798 25.9215C92.8396 25.935 92.9114 25.9474 92.9952 25.9589C93.0797 25.9712 93.1747 25.9635 93.28 25.9356C93.387 25.908 93.5023 25.8423 93.6258 25.7387C93.791 25.6 93.8939 25.4455 93.9343 25.2753C93.9747 25.1052 93.9233 24.9348 93.7802 24.7642L93.4312 24.3483L93.4046 24.3707C93.4128 24.4274 93.4187 24.5012 93.4223 24.5921C93.426 24.6813 93.4062 24.7804 93.3629 24.8894C93.3198 24.9968 93.2315 25.1064 93.0982 25.2183C92.933 25.3569 92.7518 25.4424 92.5547 25.4745C92.3584 25.5059 92.1595 25.479 91.9578 25.3939C91.757 25.308 91.5671 25.1584 91.3882 24.9451C91.2122 24.7354 91.0959 24.5219 91.0392 24.3045C90.9817 24.0862 90.9829 23.8793 91.0428 23.6836C91.102 23.4871 91.2178 23.3165 91.3902 23.1718C91.5235 23.06 91.6479 22.9935 91.7633 22.9723C91.879 22.9495 91.9811 22.9486 92.0699 22.9695C92.1587 22.9888 92.2296 23.0065 92.2826 23.0227L92.3146 22.9958L92.0417 22.6706L92.3456 22.4156L94.1126 24.5215C94.2603 24.6975 94.3403 24.8741 94.3528 25.0514C94.3669 25.2288 94.3285 25.3996 94.2376 25.5637C94.1483 25.728 94.0219 25.8787 93.8584 26.0159ZM92.9038 24.8999C93.03 24.794 93.1124 24.6757 93.151 24.5449C93.1896 24.414 93.1861 24.2754 93.1404 24.129C93.0948 23.9825 93.0086 23.8338 92.8818 23.6827C92.7581 23.5352 92.6266 23.4237 92.4875 23.3481C92.3484 23.2726 92.2085 23.2393 92.0677 23.2484C91.9269 23.2575 91.7926 23.3157 91.6646 23.4231C91.5313 23.5349 91.4486 23.6619 91.4164 23.804C91.3851 23.9453 91.3949 24.0915 91.446 24.2425C91.4979 24.3928 91.582 24.5373 91.6983 24.6759C91.8176 24.818 91.9453 24.9251 92.0814 24.9972C92.2177 25.0675 92.3559 25.0969 92.4961 25.0853C92.6364 25.0721 92.7723 25.0103 92.9038 24.8999ZM94.6392 23.9797L92.9214 21.9325L93.2252 21.6775L93.4847 21.9867L93.506 21.9688C93.4584 21.8362 93.4569 21.6973 93.5017 21.5522C93.5465 21.4071 93.6302 21.2831 93.7529 21.1802C93.776 21.1609 93.8052 21.1371 93.8406 21.1089C93.876 21.0807 93.9034 21.06 93.9226 21.0469L94.191 21.3668C94.1781 21.3731 94.1503 21.3896 94.1077 21.4163C94.0651 21.4414 94.023 21.4715 93.9812 21.5065C93.8817 21.59 93.8104 21.6854 93.7672 21.7928C93.7242 21.8986 93.7106 22.0069 93.7264 22.1178C93.7424 22.227 93.7891 22.3279 93.8667 22.4203L94.9538 23.7158L94.6392 23.9797ZM96.6784 22.3504C96.5487 22.4593 96.4105 22.5336 96.2637 22.5735C96.1162 22.6124 95.9722 22.6114 95.8317 22.5703C95.6905 22.5283 95.564 22.4406 95.4521 22.3073C95.3537 22.1901 95.297 22.0756 95.2821 21.964C95.2664 21.8514 95.2797 21.7419 95.322 21.6352C95.3642 21.5286 95.4234 21.4259 95.4996 21.3272C95.5759 21.2268 95.6564 21.1305 95.741 21.0383C95.852 20.9179 95.9428 20.8213 96.0134 20.7485C96.0841 20.674 96.1287 20.6116 96.1471 20.5613C96.1663 20.5103 96.1547 20.4595 96.1122 20.4088L96.1033 20.3982C95.9929 20.2667 95.8712 20.1947 95.7381 20.1822C95.6059 20.169 95.4673 20.2232 95.3225 20.3447C95.1723 20.4707 95.0822 20.6024 95.0521 20.7397C95.0219 20.877 95.0208 20.9976 95.0488 21.1013L94.6608 21.2452C94.6097 21.076 94.5995 20.9195 94.6302 20.7757C94.6611 20.6302 94.7178 20.4993 94.8004 20.383C94.8832 20.2651 94.9761 20.1629 95.0792 20.0764C95.145 20.0212 95.2272 19.9658 95.3259 19.9103C95.4248 19.853 95.5343 19.8149 95.6546 19.7958C95.7757 19.7759 95.9035 19.792 96.0381 19.8441C96.1727 19.8963 96.3082 20.0036 96.4447 20.1662L97.5765 21.5151L97.2619 21.779L97.0293 21.5018L97.0133 21.5152C97.0293 21.5775 97.0336 21.6549 97.0264 21.7473C97.0191 21.8397 96.9891 21.9383 96.9363 22.0432C96.8834 22.1481 96.7975 22.2505 96.6784 22.3504ZM96.4893 22.0276C96.6137 21.9232 96.6981 21.8108 96.7424 21.6903C96.7875 21.5691 96.7995 21.4516 96.7781 21.3378C96.7577 21.2232 96.7117 21.1233 96.6401 21.0379L96.3985 20.7501C96.3986 20.7772 96.3816 20.8165 96.3475 20.8678C96.3135 20.9176 96.2713 20.9719 96.2208 21.0309C96.1705 21.0883 96.1208 21.1436 96.0717 21.1969C96.0227 21.2486 95.9832 21.2909 95.9532 21.3236C95.8804 21.4029 95.8185 21.4844 95.7675 21.568C95.7167 21.65 95.6893 21.7328 95.6853 21.8164C95.6814 21.8984 95.713 21.9794 95.7801 22.0594C95.8718 22.1687 95.9816 22.2174 96.1094 22.2055C96.2374 22.192 96.364 22.1327 96.4893 22.0276ZM98.1506 21.0333L96.4328 18.9861L96.7367 18.7311L97.0051 19.0509L97.0317 19.0286C96.9827 18.8835 96.9803 18.7409 97.0247 18.6007C97.0683 18.4596 97.1568 18.3331 97.2901 18.2213C97.4251 18.1079 97.5633 18.0443 97.7045 18.0303C97.8458 18.0146 97.9876 18.0402 98.13 18.107L98.1513 18.0891C98.115 17.9394 98.1232 17.7894 98.1759 17.6393C98.2278 17.4882 98.327 17.3511 98.4737 17.2281C98.6567 17.0745 98.8545 17.0062 99.0671 17.0232C99.2789 17.0392 99.4859 17.1677 99.688 17.4085L100.838 18.7786L100.523 19.0426L99.3734 17.6724C99.2466 17.5213 99.1147 17.448 98.9777 17.4525C98.8406 17.457 98.7161 17.5062 98.6041 17.6002C98.4602 17.7209 98.3852 17.8581 98.3792 18.0115C98.3724 18.164 98.4246 18.3065 98.5357 18.4389L99.6541 19.7718L99.3342 20.0402L98.1576 18.638C98.06 18.5216 97.9435 18.4596 97.8084 18.4519C97.6724 18.4433 97.545 18.4889 97.4259 18.5888C97.3441 18.6574 97.286 18.7433 97.2514 18.8465C97.2178 18.9489 97.2116 19.0571 97.2329 19.1709C97.2544 19.2831 97.3073 19.3894 97.3915 19.4898L98.4652 20.7694L98.1506 21.0333ZM101.413 18.296L99.6949 16.2488L99.9988 15.9938L100.267 16.3137L100.294 16.2913C100.245 16.1462 100.242 16.0036 100.287 15.8634C100.331 15.7223 100.419 15.5958 100.552 15.484C100.687 15.3706 100.825 15.307 100.967 15.293C101.108 15.2774 101.25 15.3029 101.392 15.3697L101.413 15.3518C101.377 15.2021 101.385 15.0522 101.438 14.902C101.49 14.7509 101.589 14.6139 101.736 14.4908C101.919 14.3372 102.117 14.2689 102.329 14.2859C102.541 14.3019 102.748 14.4304 102.95 14.6712L104.1 16.0413L103.785 16.3053L102.636 14.9351C102.509 14.7841 102.377 14.7108 102.24 14.7152C102.103 14.7197 101.978 14.7689 101.866 14.8629C101.722 14.9837 101.647 15.1208 101.641 15.2742C101.635 15.4268 101.687 15.5692 101.798 15.7016L102.916 17.0345L102.596 17.3029L101.42 15.9007C101.322 15.7843 101.206 15.7223 101.071 15.7146C100.935 15.706 100.807 15.7516 100.688 15.8515C100.606 15.9201 100.548 16.006 100.514 16.1092C100.48 16.2117 100.474 16.3198 100.495 16.4336C100.517 16.5458 100.569 16.6521 100.654 16.7526L101.727 18.0321L101.413 18.296ZM105.569 14.8812C105.372 15.0467 105.165 15.1459 104.949 15.1789C104.733 15.2102 104.52 15.1797 104.311 15.0873C104.102 14.9932 103.909 14.8413 103.733 14.6316C103.558 14.4219 103.441 14.2051 103.383 13.981C103.325 13.7553 103.328 13.5398 103.39 13.3345C103.453 13.1275 103.576 12.9465 103.761 12.7914C103.868 12.702 103.988 12.6314 104.122 12.5797C104.256 12.528 104.399 12.5063 104.551 12.5147C104.703 12.5222 104.859 12.5701 105.019 12.6582C105.179 12.7463 105.339 12.8859 105.5 13.0769L105.612 13.2102L104.033 14.5344L103.805 14.2625L105.064 13.2067C104.967 13.0912 104.857 13.0075 104.735 12.9556C104.613 12.903 104.488 12.8859 104.36 12.9043C104.233 12.922 104.112 12.9786 103.998 13.074C103.873 13.1791 103.791 13.3012 103.751 13.4402C103.712 13.5775 103.709 13.716 103.743 13.8557C103.777 13.9953 103.842 14.1216 103.936 14.2344L104.088 14.4157C104.218 14.5703 104.355 14.679 104.498 14.7418C104.642 14.8029 104.785 14.8212 104.928 14.7967C105.07 14.7712 105.205 14.7052 105.332 14.5986C105.415 14.5293 105.48 14.4551 105.527 14.3761C105.574 14.2954 105.603 14.211 105.612 14.1229C105.621 14.0339 105.608 13.9427 105.575 13.8492L105.951 13.6796C106.005 13.8095 106.028 13.9452 106.018 14.0868C106.007 14.2275 105.964 14.3662 105.89 14.5029C105.815 14.6388 105.708 14.7648 105.569 14.8812ZM79.8063 44.2585L78.0884 42.2112L78.3923 41.9562L78.6607 42.2761L78.6874 42.2537C78.6383 42.1087 78.636 41.966 78.6804 41.8258C78.724 41.6847 78.8125 41.5583 78.9458 41.4464C79.0808 41.3331 79.2189 41.2694 79.3601 41.2554C79.5015 41.2398 79.6433 41.2654 79.7857 41.3322L79.807 41.3143C79.7707 41.1646 79.7789 41.0146 79.8315 40.8644C79.8835 40.7134 79.9827 40.5763 80.1293 40.4533C80.3124 40.2997 80.5102 40.2314 80.7228 40.2483C80.9346 40.2644 81.1416 40.3928 81.3436 40.6336L82.4933 42.0038L82.1788 42.2677L81.0291 40.8976C80.9023 40.7465 80.7704 40.6732 80.6333 40.6777C80.4963 40.6822 80.3718 40.7314 80.2598 40.8253C80.1159 40.9461 80.0409 41.0832 80.0349 41.2367C80.0281 41.3892 80.0803 41.5317 80.1914 41.6641L81.3098 42.9969L80.9899 43.2653L79.8133 41.8632C79.7156 41.7468 79.5992 41.6847 79.464 41.677C79.3281 41.6684 79.2006 41.7141 79.0816 41.814C78.9998 41.8826 78.9417 41.9685 78.9071 42.0717C78.8734 42.1741 78.8673 42.2822 78.8886 42.3961C78.9101 42.5083 78.9629 42.6146 79.0472 42.715L80.1209 43.9945L79.8063 44.2585ZM83.9626 40.8436C83.7653 41.0091 83.5587 41.1084 83.3425 41.1413C83.1265 41.1727 82.9139 41.1421 82.7046 41.0497C82.4955 40.9557 82.3029 40.8038 82.127 40.5941C81.951 40.3844 81.8341 40.1675 81.7764 39.9434C81.7187 39.7177 81.7211 39.5022 81.7835 39.2969C81.8461 39.09 81.9698 38.909 82.1546 38.7539C82.2612 38.6644 82.3814 38.5938 82.5152 38.5421C82.649 38.4904 82.7921 38.4688 82.9445 38.4772C83.0962 38.4847 83.2521 38.5325 83.4124 38.6206C83.5726 38.7087 83.7329 38.8483 83.8932 39.0394L84.0051 39.1726L82.427 40.4968L82.1988 40.2249L83.457 39.1692C83.3601 39.0536 83.2505 38.97 83.1282 38.9181C83.0069 38.8655 82.882 38.8484 82.7536 38.8668C82.6261 38.8845 82.5054 38.941 82.3917 39.0364C82.2664 39.1416 82.1841 39.2636 82.1448 39.4026C82.1056 39.54 82.1029 39.6785 82.1368 39.8181C82.1707 39.9578 82.235 40.084 82.3297 40.1969L82.4818 40.3781C82.6115 40.5327 82.7482 40.6414 82.8917 40.7042C83.0354 40.7654 83.1787 40.7837 83.3216 40.7591C83.4638 40.7337 83.5984 40.6677 83.7255 40.561C83.8081 40.4917 83.8731 40.4175 83.9204 40.3385C83.9678 40.2578 83.9961 40.1735 84.0055 40.0854C84.0141 39.9964 84.0019 39.9051 83.9689 39.8117L84.3444 39.642C84.3989 39.7719 84.4212 39.9077 84.4113 40.0492C84.4006 40.1899 84.358 40.3286 84.2835 40.4654C84.2082 40.6012 84.1012 40.7273 83.9626 40.8436ZM85.253 39.6881L83.5352 37.6409L83.839 37.3859L84.1075 37.7058L84.1341 37.6834C84.0851 37.5383 84.0827 37.3957 84.1271 37.2555C84.1707 37.1144 84.2592 36.9879 84.3925 36.8761C84.5275 36.7628 84.6657 36.6991 84.8069 36.6851C84.9482 36.6695 85.09 36.695 85.2324 36.7618L85.2537 36.7439C85.2174 36.5942 85.2256 36.4443 85.2783 36.2941C85.3302 36.143 85.4294 36.006 85.576 35.8829C85.7591 35.7293 85.9569 35.661 86.1695 35.678C86.3813 35.694 86.5883 35.8225 86.7903 36.0633L87.9401 37.4335L87.6255 37.6974L86.4758 36.3272C86.349 36.1762 86.2171 36.1029 86.0801 36.1073C85.943 36.1118 85.8185 36.161 85.7065 36.255C85.5626 36.3758 85.4876 36.5129 85.4816 36.6663C85.4748 36.8189 85.527 36.9613 85.6381 37.0937L86.7565 38.4266L86.4366 38.695L85.26 37.2928C85.1624 37.1764 85.0459 37.1144 84.9108 37.1067C84.7748 37.0981 84.6473 37.1437 84.5283 37.2436C84.4465 37.3122 84.3884 37.3981 84.3538 37.5013C84.3202 37.6038 84.314 37.7119 84.3353 37.8257C84.3568 37.9379 84.4097 38.0443 84.4939 38.1447L85.5676 39.4242L85.253 39.6881ZM88.5578 36.9151L86.2673 34.1854L86.5819 33.9214L87.4274 34.9291L87.4541 34.9067C87.4473 34.8518 87.4413 34.7796 87.436 34.6902C87.4307 34.5992 87.4485 34.4995 87.4893 34.3911C87.5302 34.2811 87.6173 34.1701 87.7506 34.0583C87.923 33.9136 88.1111 33.8292 88.3149 33.8051C88.5188 33.7809 88.7239 33.817 88.9304 33.9133C89.1368 34.0095 89.3303 34.1652 89.5107 34.3802C89.6927 34.597 89.8135 34.8159 89.8732 35.0369C89.9321 35.2569 89.9329 35.4653 89.8753 35.662C89.817 35.8577 89.7026 36.0272 89.532 36.1704C89.4004 36.2807 89.2769 36.3473 89.1613 36.3701C89.0449 36.3921 88.9419 36.3929 88.8523 36.3727C88.7619 36.3517 88.6895 36.3321 88.6351 36.3142L88.5978 36.3455L88.8617 36.6601L88.5578 36.9151ZM88.0081 35.632C88.1379 35.7866 88.275 35.904 88.4194 35.9841C88.5632 36.0634 88.7066 36.0998 88.8496 36.0934C88.9918 36.0861 89.126 36.0295 89.2522 35.9236C89.3837 35.8133 89.4644 35.6865 89.4942 35.5434C89.5241 35.3986 89.5117 35.2485 89.457 35.0931C89.4024 34.936 89.314 34.7846 89.1917 34.6388C89.0709 34.4949 88.9398 34.3838 88.7985 34.3056C88.6573 34.2257 88.5139 34.1893 88.3684 34.1963C88.223 34.2017 88.0837 34.2603 87.9504 34.3722C87.8224 34.4795 87.7421 34.6022 87.7095 34.7401C87.6761 34.8772 87.6856 35.0221 87.7381 35.1749C87.7899 35.3268 87.8799 35.4791 88.0081 35.632ZM91.7405 34.3172C91.5432 34.4827 91.3365 34.582 91.1204 34.6149C90.9044 34.6462 90.6918 34.6157 90.4825 34.5233C90.2734 34.4292 90.0808 34.2774 89.9049 34.0677C89.7289 33.858 89.612 33.6411 89.5542 33.417C89.4966 33.1913 89.499 32.9758 89.5614 32.7705C89.624 32.5636 89.7477 32.3825 89.9325 32.2275C90.0391 32.138 90.1593 32.0674 90.2931 32.0157C90.4269 31.964 90.57 31.9424 90.7224 31.9508C90.8741 31.9583 91.03 32.0061 91.1903 32.0942C91.3505 32.1823 91.5108 32.3219 91.6711 32.5129L91.7829 32.6462L90.2048 33.9704L89.9767 33.6985L91.2349 32.6427C91.138 32.5272 91.0284 32.4435 90.9061 32.3917C90.7848 32.3391 90.6599 32.322 90.5315 32.3404C90.404 32.358 90.2833 32.4146 90.1696 32.51C90.0443 32.6152 89.962 32.7372 89.9227 32.8762C89.8835 33.0136 89.8808 33.1521 89.9147 33.2917C89.9486 33.4314 90.0129 33.5576 90.1076 33.6704L90.2597 33.8517C90.3894 34.0063 90.5261 34.115 90.6696 34.1778C90.8133 34.2389 90.9566 34.2573 91.0995 34.2327C91.2417 34.2073 91.3763 34.1412 91.5034 34.0346C91.586 33.9653 91.651 33.8911 91.6982 33.8121C91.7456 33.7314 91.774 33.647 91.7834 33.5589C91.792 33.4699 91.7798 33.3787 91.7468 33.2853L92.1223 33.1156C92.1768 33.2455 92.1991 33.3812 92.1891 33.5228C92.1785 33.6635 92.1359 33.8022 92.0613 33.9389C91.9861 34.0748 91.8791 34.2009 91.7405 34.3172ZM93.0309 33.1617L91.313 31.1145L91.6169 30.8595L91.8764 31.1687L91.8977 31.1508C91.85 31.0182 91.8486 30.8793 91.8934 30.7342C91.9382 30.5891 92.0219 30.4651 92.1446 30.3622C92.1677 30.3428 92.1969 30.3191 92.2323 30.2909C92.2677 30.2627 92.295 30.242 92.3143 30.2289L92.5827 30.5488C92.5698 30.555 92.542 30.5715 92.4993 30.5983C92.4568 30.6234 92.4147 30.6534 92.3729 30.6885C92.2734 30.772 92.202 30.8674 92.1589 30.9748C92.1159 31.0805 92.1023 31.1889 92.1181 31.2998C92.1341 31.409 92.1808 31.5098 92.2584 31.6023L93.3455 32.8978L93.0309 33.1617ZM94.5444 29.1843L94.329 29.5014C94.2717 29.4692 94.2071 29.4455 94.1351 29.4301C94.0633 29.4131 93.9858 29.4146 93.9026 29.4345C93.8193 29.4544 93.7319 29.5027 93.6404 29.5795C93.5151 29.6846 93.4349 29.8011 93.3999 29.929C93.365 30.0552 93.3844 30.1623 93.4582 30.2502C93.5238 30.3284 93.6041 30.3663 93.699 30.3639C93.7939 30.3615 93.9144 30.3247 94.0606 30.2535L94.4271 30.0732C94.6475 29.964 94.8409 29.9175 95.0074 29.9337C95.1732 29.9491 95.3161 30.0283 95.4362 30.1713C95.5346 30.2886 95.5888 30.4218 95.5988 30.5709C95.6097 30.7192 95.5776 30.8704 95.5024 31.0243C95.4271 31.1783 95.31 31.322 95.1509 31.4555C94.9421 31.6307 94.7313 31.7304 94.5184 31.7546C94.3055 31.7788 94.1078 31.7191 93.9252 31.5755L94.1611 31.2503C94.282 31.3366 94.4051 31.3742 94.5304 31.3629C94.6566 31.3509 94.7841 31.2908 94.913 31.1827C95.0596 31.0597 95.1499 30.9309 95.1839 30.7964C95.218 30.6602 95.1982 30.5482 95.1244 30.4602C95.0647 30.3891 94.9899 30.3505 94.8999 30.3442C94.8091 30.3371 94.7021 30.3648 94.5789 30.4273L94.1706 30.6337C93.9458 30.7465 93.7503 30.7932 93.5841 30.7738C93.418 30.7526 93.2756 30.6714 93.1571 30.5302C93.0602 30.4146 93.0068 30.2852 92.9971 30.142C92.9883 29.9979 93.0191 29.8532 93.0895 29.7079C93.1607 29.5618 93.2683 29.4284 93.4122 29.3076C93.6148 29.1376 93.8112 29.0486 94.0012 29.0405C94.1922 29.0317 94.3733 29.0796 94.5444 29.1843ZM95.6695 28.849L96.7029 30.0805L96.3884 30.3445L94.0979 27.6148L94.4124 27.3509L95.2535 28.3532L95.2801 28.3308C95.2394 28.1848 95.2409 28.0404 95.2847 27.8977C95.3286 27.7533 95.431 27.6137 95.5918 27.4787C95.7313 27.3617 95.877 27.2871 96.0288 27.2551C96.1799 27.2223 96.3324 27.2389 96.4863 27.3051C96.6404 27.3696 96.7913 27.4898 96.9389 27.6657L98.0304 28.9666L97.7159 29.2306L96.6422 27.951C96.5058 27.7884 96.3581 27.6981 96.1991 27.6801C96.0403 27.6604 95.8867 27.7128 95.7383 27.8373C95.6352 27.9238 95.561 28.0232 95.5158 28.1353C95.4715 28.2467 95.4608 28.3639 95.4838 28.4869C95.5077 28.6092 95.5696 28.7299 95.6695 28.849ZM98.6059 28.4837L96.888 26.4365L97.2026 26.1725L98.9205 28.2198L98.6059 28.4837ZM96.7617 25.9611C96.7004 26.0125 96.63 26.036 96.5505 26.0315C96.4719 26.0263 96.408 25.9943 96.3588 25.9357C96.3096 25.877 96.2892 25.8086 96.2977 25.7303C96.3071 25.6512 96.3425 25.586 96.4038 25.5345C96.4651 25.4831 96.535 25.46 96.6136 25.4652C96.6931 25.4697 96.7574 25.5013 96.8066 25.5599C96.8559 25.6186 96.8758 25.6874 96.8664 25.7664C96.8579 25.8447 96.823 25.9096 96.7617 25.9611ZM100.141 28.5041L97.7787 25.6891L98.0826 25.4341L98.3555 25.7593L98.3928 25.728C98.3861 25.6731 98.3801 25.6009 98.3747 25.5115C98.3695 25.4205 98.3873 25.3208 98.4281 25.2124C98.469 25.1024 98.5561 24.9914 98.6894 24.8796C98.8617 24.7349 99.0498 24.6505 99.2537 24.6264C99.4575 24.6022 99.6627 24.6383 99.8691 24.7346C100.076 24.8308 100.269 24.9865 100.449 25.2015C100.631 25.4183 100.752 25.6372 100.812 25.8581C100.871 26.0782 100.872 26.2866 100.814 26.4832C100.756 26.679 100.641 26.8485 100.471 26.9917C100.339 27.102 100.216 27.1686 100.1 27.1914C99.9837 27.2134 99.8807 27.2142 99.791 27.194C99.7007 27.173 99.6283 27.1534 99.5739 27.1355L99.5472 27.1579L100.455 28.2402L100.141 28.5041ZM98.9469 26.4533C99.0766 26.6079 99.2137 26.7253 99.3582 26.8054C99.5019 26.8847 99.6453 26.9211 99.7883 26.9147C99.9306 26.9074 100.065 26.8508 100.191 26.7449C100.322 26.6345 100.403 26.5078 100.433 26.3647C100.463 26.2199 100.45 26.0698 100.396 25.9144C100.341 25.7573 100.253 25.6059 100.13 25.4601C100.01 25.3162 99.8786 25.2051 99.7372 25.1269C99.596 25.047 99.4527 25.0106 99.3071 25.0176C99.1618 25.023 99.0224 25.0816 98.8891 25.1935C98.7612 25.3008 98.6809 25.4235 98.6482 25.5614C98.6148 25.6984 98.6244 25.8434 98.6769 25.9962C98.7286 26.1481 98.8186 26.3004 98.9469 26.4533ZM103.707 24.2762C103.515 24.4372 103.312 24.5306 103.097 24.5563C102.882 24.582 102.671 24.5466 102.463 24.4502C102.255 24.3538 102.065 24.2034 101.893 23.999C101.719 23.7911 101.603 23.5755 101.546 23.3523C101.489 23.1275 101.492 22.9125 101.554 22.7071C101.617 22.5002 101.741 22.3192 101.926 22.1641C102.069 22.0433 102.222 21.9611 102.382 21.9175C102.542 21.8739 102.699 21.8691 102.854 21.9032C103.008 21.9373 103.148 22.0108 103.273 22.1239L102.958 22.3878C102.856 22.3147 102.733 22.2768 102.59 22.2741C102.447 22.2699 102.307 22.3259 102.168 22.4422C102.045 22.5451 101.965 22.6673 101.926 22.8088C101.887 22.9487 101.891 23.098 101.936 23.2568C101.982 23.4139 102.069 23.5698 102.199 23.7244C102.332 23.8825 102.472 23.9994 102.62 24.0749C102.769 24.1497 102.917 24.1812 103.063 24.1692C103.21 24.1565 103.345 24.098 103.47 23.9936C103.552 23.925 103.614 23.8486 103.657 23.7642C103.699 23.6799 103.721 23.5916 103.723 23.4996C103.724 23.4075 103.704 23.3159 103.661 23.2249L103.975 22.9609C104.059 23.0967 104.106 23.2424 104.117 23.3982C104.128 23.5523 104.101 23.7059 104.034 23.8589C103.967 24.0104 103.858 24.1494 103.707 24.2762ZM105.579 22.7147C105.449 22.8235 105.311 22.8979 105.164 22.9377C105.016 22.9767 104.872 22.9756 104.732 22.9345C104.591 22.8925 104.464 22.8049 104.352 22.6716C104.254 22.5543 104.197 22.4398 104.182 22.3282C104.167 22.2157 104.18 22.1061 104.222 21.9995C104.264 21.8928 104.324 21.7902 104.4 21.6914C104.476 21.5911 104.557 21.4948 104.641 21.4026C104.752 21.2822 104.843 21.1856 104.914 21.1127C104.984 21.0382 105.029 20.9758 105.047 20.9256C105.067 20.8746 105.055 20.8237 105.012 20.7731L105.004 20.7624C104.893 20.6309 104.771 20.5589 104.638 20.5465C104.506 20.5332 104.368 20.5874 104.223 20.7089C104.073 20.8349 103.982 20.9666 103.952 21.1039C103.922 21.2413 103.921 21.3618 103.949 21.4655L103.561 21.6094C103.51 21.4403 103.5 21.2838 103.53 21.1399C103.561 20.9944 103.618 20.8635 103.701 20.7472C103.783 20.6293 103.876 20.5271 103.979 20.4406C104.045 20.3855 104.127 20.3301 104.226 20.2745C104.325 20.2173 104.435 20.1791 104.555 20.16C104.676 20.1401 104.804 20.1563 104.938 20.2084C105.073 20.2605 105.208 20.3679 105.345 20.5305L106.477 21.8793L106.162 22.1433L105.93 21.866L105.914 21.8794C105.93 21.9418 105.934 22.0191 105.927 22.1115C105.919 22.2039 105.889 22.3026 105.837 22.4075C105.784 22.5123 105.698 22.6147 105.579 22.7147ZM105.39 22.3918C105.514 22.2874 105.598 22.175 105.643 22.0546C105.688 21.9334 105.7 21.8159 105.678 21.702C105.658 21.5874 105.612 21.4875 105.54 21.4022L105.299 21.1143C105.299 21.1415 105.282 21.1807 105.248 21.2321C105.214 21.2818 105.172 21.3362 105.121 21.3952C105.071 21.4525 105.021 21.5078 104.972 21.5612C104.923 21.6129 104.883 21.6551 104.853 21.6879C104.781 21.7672 104.719 21.8486 104.668 21.9322C104.617 22.0142 104.59 22.0971 104.586 22.1807C104.582 22.2627 104.613 22.3437 104.68 22.4236C104.772 22.5329 104.882 22.5816 105.01 22.5698C105.138 22.5563 105.264 22.497 105.39 22.3918ZM107.051 21.3976L105.333 19.3503L105.637 19.0953L105.896 19.4045L105.918 19.3866C105.87 19.254 105.869 19.1152 105.913 18.9701C105.958 18.825 106.042 18.701 106.165 18.5981C106.188 18.5787 106.217 18.5549 106.252 18.5267C106.288 18.4985 106.315 18.4778 106.334 18.4647L106.603 18.7846C106.59 18.7909 106.562 18.8074 106.519 18.8341C106.477 18.8592 106.435 18.8893 106.393 18.9243C106.293 19.0078 106.222 19.1033 106.179 19.2106C106.136 19.3164 106.122 19.4247 106.138 19.5356C106.154 19.6448 106.201 19.7457 106.278 19.8381L107.365 21.1336L107.051 21.3976ZM109.194 19.672C109.023 19.8152 108.837 19.8985 108.634 19.9219C108.43 19.9444 108.225 19.9075 108.018 19.8112C107.811 19.7141 107.617 19.5571 107.435 19.3403C107.254 19.1252 107.135 18.9077 107.076 18.6876C107.017 18.4676 107.017 18.2593 107.076 18.0628C107.135 17.8662 107.251 17.6956 107.423 17.551C107.557 17.4391 107.68 17.373 107.795 17.3526C107.91 17.3305 108.011 17.3303 108.099 17.352C108.187 17.372 108.257 17.3901 108.31 17.4063L108.337 17.3839L107.491 16.3763L107.806 16.1123L110.096 18.842L109.793 19.097L109.529 18.7825L109.491 18.8138C109.5 18.8705 109.506 18.9452 109.511 19.0378C109.516 19.1296 109.497 19.2309 109.455 19.3417C109.412 19.4516 109.325 19.5617 109.194 19.672ZM108.999 19.3537C109.126 19.2478 109.205 19.1255 109.237 18.9866C109.268 18.8469 109.257 18.6994 109.204 18.5441C109.15 18.3879 109.058 18.2325 108.928 18.0779C108.8 17.925 108.666 17.8099 108.525 17.7326C108.384 17.6544 108.243 17.6198 108.102 17.6289C107.96 17.6371 107.826 17.6949 107.698 17.8022C107.564 17.9141 107.482 18.0415 107.451 18.1845C107.419 18.3258 107.43 18.4733 107.483 18.627C107.537 18.7791 107.624 18.9271 107.745 19.071C107.867 19.2167 108 19.3305 108.145 19.4123C108.289 19.4924 108.435 19.5307 108.582 19.5271C108.729 19.5218 108.868 19.464 108.999 19.3537Z" fill="url(#paint0_linear_1_7524)"/>
</g>
<defs>
<linearGradient id="paint0_linear_1_7524" x1="80.6955" y1="16.5774" x2="96.4867" y2="35.3966" gradientUnits="userSpaceOnUse">
<stop stop-color="#C4C4C4"/>
<stop offset="1" stop-color="#C4C4C4" stop-opacity="0"/>
</linearGradient>
<clipPath id="clip0_1_7524">
<rect y="88.1875" width="137.195" height="81.6602" rx="5.77671" transform="rotate(-40 0 88.1875)" fill="white"/>
</clipPath>
</defs>
</svg>
