<svg width="263" height="279" viewBox="0 0 263 279" fill="none" xmlns="http://www.w3.org/2000/svg">
<path d="M195.738 213.938L214.283 247.736" stroke="black" stroke-width="3.32541" stroke-linecap="round"/>
<path d="M29.812 213.938L11.267 247.736" stroke="black" stroke-width="3.32541" stroke-linecap="round"/>
<ellipse cx="112.288" cy="213.026" rx="108.83" ry="20.0962" fill="black" stroke="black" stroke-width="6.65083"/>
<ellipse cx="112.288" cy="211.198" rx="108.83" ry="20.0962" fill="black" stroke="black" stroke-width="1.41744"/>
<path d="M195.738 229.01L211.842 268.289" stroke="black" stroke-width="3.32541" stroke-linecap="round"/>
<path d="M29.3237 229.01L13.2189 268.289" stroke="black" stroke-width="3.32541" stroke-linecap="round"/>
<path d="M144.468 250.722C143.737 248.896 143.087 245.898 143.087 245.898L129.77 245.842C129.77 245.842 128.395 248.963 127.713 251.496C127.03 254.034 126.962 255.98 128.076 258.38C129.589 261.638 131.191 261.571 134.1 263.853C136.503 265.738 137.09 268.02 140.098 268.847C142.944 269.63 145.257 269.591 147.628 267.924C150.638 265.808 150.52 262.681 150.035 259.187C149.5 255.338 145.923 254.357 144.468 250.722Z" fill="black"/>
<path d="M144.237 243.337C144.021 242.034 142.972 240.001 142.972 240.001C142.972 240.001 139.711 241.701 137.448 241.786C134.974 241.88 131.316 240.132 131.316 240.132C131.316 240.132 129.822 240.915 129.855 243.5C129.87 244.692 130.096 245.332 131.016 246.071C133.486 248.054 134.71 248.136 137.342 248.106C139.678 248.08 142.599 247.539 143.526 246.505C144.219 245.731 144.453 244.641 144.237 243.337Z" fill="white" stroke="url(#paint0_linear_1_7359)" stroke-width="1.04548"/>
<path d="M133.184 240.083C137.596 241.731 140.763 240.844 142.095 239.401C143.259 238.14 147.378 230.252 146.366 225.292C145.69 221.975 142.075 219.871 139.693 218.048C138.316 216.994 136.492 216.073 134.796 216.322C131.357 216.827 127.18 217.563 126.763 218.083C126.423 218.507 133.197 222.67 134.676 228.667C135.407 231.632 132.438 235.052 131.668 237.683C131.361 238.729 132.138 239.693 133.184 240.083Z" fill="white" stroke="url(#paint1_linear_1_7359)" stroke-width="1.4133"/>
<ellipse cx="2.95032" cy="4.03985" rx="2.95032" ry="4.03985" transform="matrix(-1.00423 -0.00312264 -0.00353323 0.995226 135.062 248.859)" fill="white"/>
<ellipse cx="1.702" cy="2.33053" rx="1.702" ry="2.33053" transform="matrix(-1.00423 -0.00312264 -0.00353323 0.995226 133.799 250.564)" fill="black"/>
<path d="M80.9971 256.207C81.7282 254.38 82.378 251.383 82.378 251.383L95.6945 251.327C95.6945 251.327 97.0694 254.447 97.7518 256.981C98.4352 259.518 98.503 261.465 97.3887 263.865C95.8763 267.123 94.2742 267.056 91.3651 269.337C88.9619 271.222 88.375 273.505 85.3667 274.332C82.5212 275.114 80.208 275.076 77.8369 273.409C74.8266 271.292 74.9452 268.166 75.4301 264.672C75.9644 260.822 79.5421 259.842 80.9971 256.207Z" fill="black"/>
<path d="M81.2278 248.824C81.4437 247.52 82.493 245.487 82.493 245.487C82.493 245.487 85.754 247.187 88.0169 247.273C90.4912 247.366 94.1492 245.619 94.1492 245.619C94.1492 245.619 95.6433 246.401 95.61 248.986C95.5947 250.179 95.3696 250.819 94.4487 251.558C91.9788 253.54 90.7555 253.622 88.1235 253.592C85.7873 253.566 82.8661 253.025 81.9392 251.991C81.246 251.217 81.0119 250.127 81.2278 248.824Z" fill="white" stroke="url(#paint2_linear_1_7359)" stroke-width="1.04548"/>
<path d="M92.5783 245.457C87.5602 247.812 84.031 246.811 82.6041 245.039C81.3849 243.525 78.2461 233.932 79.5111 227.81C80.3914 223.551 84.0927 220.826 86.4225 218.461C87.6494 217.216 89.3937 216.217 91.1075 216.454C94.8526 216.972 99.5062 217.767 99.9477 218.404C100.302 218.915 93.8752 224.199 92.0688 231.608C91.128 235.466 93.8508 239.845 94.126 243.125C94.2108 244.136 93.5159 245.017 92.5783 245.457Z" fill="white" stroke="url(#paint3_linear_1_7359)" stroke-width="1.4133"/>
<ellipse cx="2.95032" cy="4.03985" rx="2.95032" ry="4.03985" transform="matrix(1.00423 -0.00312264 0.00353323 0.995226 90.4038 254.346)" fill="white"/>
<ellipse cx="1.702" cy="2.33053" rx="1.702" ry="2.33053" transform="matrix(1.00423 -0.00312264 0.00353323 0.995226 91.6663 256.051)" fill="black"/>
<path d="M225.664 81.9617L226.574 84.8636C226.574 84.8636 226.614 85.8967 226.607 87.0592C229.843 84.7908 233.945 80.297 235.328 78.3765C235.866 77.6294 237.116 76.3724 238.411 75.226C239.616 74.1577 241.54 73.788 242.639 72.6222C243.746 71.4483 244.085 71.5045 245.008 70.2017C245.008 70.2017 246.73 67.2302 247.359 66.2855C247.987 65.3408 247.665 65.0647 247.185 64.9499C246.541 64.7959 245.838 66.3264 244.975 67.2084C244.358 67.8385 242.82 69.516 242.598 68.7295C242.535 68.5071 242.429 67.9933 244.008 66.3801C245.587 64.7668 247.165 63.1536 246.521 62.6013C245.877 62.0491 241.765 67.3499 241.618 66.7036C241.451 65.9668 242.868 64.2154 243.181 63.5934C243.493 62.9714 244.503 61.5732 245.062 60.4599C245.374 59.8379 245.205 59.1108 244.888 59.1243C243.479 59.1844 242.517 61.2448 241.895 62.7883C241.376 64.0767 239.543 66.7051 239.215 65.8302C238.886 64.9553 241.224 59.8416 241.224 59.8416C241.373 58.7815 240.251 58.4144 239.465 59.5204C238.561 60.7932 236.989 66.5919 236.031 66.6623C234.076 66.8061 236.308 62.747 235.506 62.356C235.118 62.1672 234.422 62.3233 234.072 62.6104C231 65.1345 233.332 67.9072 233.699 72.3748C233.81 73.7223 232.107 75.6167 232.107 75.6167L229.291 78.4949L225.664 81.9617Z" fill="white"/>
<path d="M221.393 94.7519C221.393 94.7519 226.45 90.3403 226.556 88.7136C226.59 88.1982 226.604 87.614 226.607 87.0592M225.608 81.7803L226.574 84.8636C226.574 84.8636 226.614 85.8967 226.607 87.0592M225.608 81.7803C225.608 81.7803 224.265 80.2347 223.23 79.4205C222.422 78.7848 220.643 76.9496 219.667 76.4928C218.691 76.0361 216.819 75.5042 216.249 76.0344C215.759 76.4908 215.543 77.5566 215.763 78.3198M225.608 81.7803L225.664 81.9617L229.291 78.4949L232.107 75.6167C232.107 75.6167 233.81 73.7223 233.699 72.3748C233.332 67.9072 231 65.1345 234.072 62.6104C234.422 62.3233 235.118 62.1672 235.506 62.356C236.308 62.747 234.076 66.8061 236.031 66.6623C236.989 66.5919 238.561 60.7932 239.465 59.5204C240.251 58.4144 241.373 58.7815 241.224 59.8416C241.224 59.8416 238.886 64.9553 239.215 65.8302C239.543 66.7051 241.376 64.0767 241.895 62.7883C242.517 61.2448 243.479 59.1844 244.888 59.1243C245.205 59.1108 245.374 59.8379 245.062 60.4599C244.503 61.5732 243.493 62.9714 243.181 63.5934C242.868 64.2154 241.451 65.9668 241.618 66.7036C241.765 67.3499 245.877 62.0491 246.521 62.6013C247.165 63.1536 245.587 64.7668 244.008 66.3801C242.429 67.9933 242.535 68.5071 242.598 68.7295C242.82 69.516 244.358 67.8385 244.975 67.2084C245.838 66.3264 246.541 64.7959 247.185 64.9499C247.665 65.0647 247.987 65.3408 247.359 66.2855C246.73 67.2302 245.008 70.2017 245.008 70.2017C244.085 71.5045 243.746 71.4483 242.639 72.6222C241.54 73.788 239.616 74.1577 238.411 75.226C237.116 76.3724 235.866 77.6294 235.328 78.3765C233.945 80.297 229.843 84.7908 226.607 87.0592" stroke="black" stroke-width="0.659578"/>
<path d="M196.038 107.298L187.311 113.517L186.546 111.904L214.295 89.2818L215.436 80.6059L216.254 75.8377L219.575 76.3759L219.806 76.5189C221.335 77.4656 222.686 78.6422 223.805 80.0017C225.268 81.5303 226.411 83.3318 226.828 85.3505C226.952 85.9491 227.044 86.5363 227.059 87.0048C227.109 88.583 226.783 90.5204 225.325 91.3231L207.745 101.005L196.038 107.298Z" fill="black"/>
<path d="M184.605 115.397L176.088 124.101L176.492 121.836C176.492 121.836 177.728 119.439 180.463 117.778C181.965 116.866 185.656 112.471 185.656 112.471L190.646 107.373C190.646 107.373 192.609 100.503 201.744 96.0301C210.879 91.5574 211.855 87.9036 215.8 80.9082L215.27 77.5465L218.483 78.1666L219.272 78.6527C220.422 79.3611 221.437 80.2451 222.275 81.268C222.546 81.599 222.777 81.9565 222.966 82.3345L223.509 83.4228C224.195 84.7969 224.699 86.2503 224.878 87.7602C224.95 88.3695 225.009 89.0112 225.022 89.5604C225.062 91.2192 225.146 92.2353 224.729 93.8801C222.869 101.227 218.483 102.902 206.459 102.902C201.153 102.902 194.707 109.284 194.707 109.284L184.605 115.397Z" fill="black"/>
<path d="M29.5695 68.3119L31.518 78.4141L33.2463 77.7086V39.6117L34.5265 36.3664L37.3635 32.3323L34.5265 30.6307L34.2522 30.5901C32.4403 30.3215 30.5978 30.3352 28.79 30.6307C26.6058 30.8338 24.453 31.4408 22.6547 32.697C22.1489 33.0503 21.6758 33.413 21.337 33.739C20.1525 34.8788 19.0269 36.578 19.5386 38.1401L25.4776 56.2718L29.5695 68.3119Z" fill="black"/>
<path d="M26.6263 31.0074L23.5358 32.6421C23.5358 32.6421 22.6701 33.4119 21.738 34.3118C20.8999 30.4279 21.144 24.2589 21.5529 21.8665C21.7119 20.9358 21.6949 19.1419 21.5529 17.4045C21.4205 15.7855 20.133 14.2307 20.1675 12.6073C20.2022 10.9726 19.8768 10.7915 20.1675 9.17921C20.1675 9.17921 21.144 5.75291 21.3881 4.61051C21.6323 3.46811 22.1206 3.46811 22.6088 3.69659C23.2639 4.00313 22.6088 5.64613 22.6088 6.89531C22.6088 7.78758 22.5237 10.0952 23.3412 9.63617C23.5725 9.50633 24.0736 9.18011 24.0736 6.89531C24.0736 4.61051 24.0736 2.32571 25.0502 2.32571C26.0267 2.32571 25.1402 9.12304 25.7826 8.72226C26.515 8.26529 26.7591 5.9805 27.0032 5.29506C27.2474 4.60962 27.5428 2.86613 27.9798 1.63938C28.2239 0.953938 28.9497 0.505424 29.2004 0.725456C30.3133 1.70187 29.4446 3.92418 28.7122 5.52354C28.1008 6.8586 27.4915 10.0931 28.468 9.63617C29.4446 9.17921 31.6418 3.69659 31.6418 3.69659C32.3742 2.78178 33.5949 3.23963 33.3507 4.61051C33.0698 6.18811 29.6887 11.6925 30.4211 12.3788C31.917 13.7806 33.3507 9.18011 34.3273 9.40859C34.7989 9.51893 35.2473 10.0991 35.3038 10.551C35.8001 14.5232 31.6418 15.1197 27.7356 18.3184C26.5575 19.2832 26.4331 21.8665 26.4331 21.8665V25.9428L26.6263 31.0074Z" fill="white"/>
<path d="M19.8316 43.6797C19.8316 43.6797 19.2207 36.9425 20.4454 35.6195C20.8334 35.2003 21.2933 34.7412 21.738 34.3118M26.8194 30.9052L23.5358 32.6421C23.5358 32.6421 22.6701 33.4119 21.738 34.3118M26.8194 30.9052C26.8194 30.9052 29.1726 30.601 30.6825 30.6571C31.8611 30.7009 34.1436 31.0074 34.1436 31.0074C34.9407 31.2671 36.645 31.9576 37.0848 32.6421C37.5245 33.3266 38.0502 33.6045 38.2334 34.3118M26.8194 30.9052L26.6263 31.0074L26.4331 25.9428V21.8665C26.4331 21.8665 26.5575 19.2832 27.7356 18.3184C31.6418 15.1197 35.8001 14.5232 35.3038 10.551C35.2473 10.0991 34.7989 9.51893 34.3273 9.40859C33.3507 9.18011 31.917 13.7806 30.4211 12.3788C29.6887 11.6925 33.0698 6.18811 33.3507 4.61051C33.5949 3.23963 32.3742 2.78178 31.6418 3.69659C31.6418 3.69659 29.4446 9.17921 28.468 9.63617C27.4915 10.0931 28.1008 6.8586 28.7122 5.52354C29.4446 3.92418 30.3133 1.70187 29.2004 0.725457C28.9497 0.505424 28.2239 0.953937 27.9798 1.63938C27.5428 2.86613 27.2474 4.60962 27.0032 5.29506C26.7591 5.9805 26.515 8.26529 25.7826 8.72225C25.1402 9.12304 26.0267 2.32571 25.0502 2.32571C24.0736 2.32571 24.0736 4.61051 24.0736 6.89531C24.0736 9.18011 23.5725 9.50633 23.3412 9.63617C22.5237 10.0952 22.6088 7.78758 22.6088 6.89531C22.6088 5.64613 23.2639 4.00313 22.6088 3.69659C22.1205 3.46811 21.6323 3.46811 21.3881 4.61051C21.144 5.75291 20.1675 9.17921 20.1675 9.17921C19.8768 10.7915 20.2022 10.9726 20.1675 12.6073C20.133 14.2307 21.4205 15.7855 21.5529 17.4045C21.6949 19.1419 21.7119 20.9358 21.5529 21.8665C21.144 24.2589 20.8999 30.4279 21.738 34.3118" stroke="black" stroke-width="0.659578"/>
<path d="M32.1637 81.522V93.3242L33.5005 91.399C33.5005 91.399 34.3184 88.8494 33.4999 85.8961C33.0504 84.2742 33.4997 78.7001 33.4997 78.7001V71.7862V56.4063L34.0464 36.3702L36.8628 34.2257L34.0464 32.6527L33.1084 32.5116C31.7512 32.3073 30.3702 32.3177 29.0162 32.5425C28.5745 32.6158 28.1414 32.7342 27.7239 32.8959L26.5664 33.3441C25.0551 33.9293 23.6141 34.6939 22.3619 35.7227C21.8833 36.116 21.3952 36.5376 21.0015 36.9222C19.0241 38.8539 18.7024 41.8674 19.6902 44.4492L25.0635 58.4943L29.1256 70.6286L32.1637 81.522Z" fill="black"/>
<path d="M189.251 220.816L34.242 220.816C30.7193 220.816 27.8635 217.96 27.8635 214.437L27.8635 76.6555V38.355C27.8635 34.8323 30.7193 31.9766 34.242 31.9766L189.251 31.9766C192.774 31.9766 195.63 34.8323 195.63 38.355V76.6555V214.437C195.63 217.96 192.774 220.816 189.251 220.816Z" fill="white"/>
<path d="M27.8635 76.6555V38.355C27.8635 34.8323 30.7193 31.9766 34.242 31.9766L189.251 31.9766C192.774 31.9766 195.63 34.8323 195.63 38.355V76.6555M27.8635 76.6555L27.8635 214.437C27.8635 217.96 30.7193 220.816 34.242 220.816L189.251 220.816C192.774 220.816 195.63 217.96 195.63 214.437V76.6555M27.8635 76.6555L195.63 76.6555" stroke="url(#paint4_linear_1_7359)" stroke-width="1.41744"/>
<path d="M31.5898 213.877L31.5898 80.5759C31.5898 80.1845 31.9072 79.8672 32.2986 79.8672L190.847 79.8672C191.238 79.8672 191.555 80.1845 191.555 80.5759V213.877C191.555 214.268 191.238 214.585 190.847 214.585L32.2986 214.585C31.9071 214.585 31.5898 214.268 31.5898 213.877Z" fill="white" stroke="url(#paint5_linear_1_7359)" stroke-width="1.06308"/>
<path fill-rule="evenodd" clip-rule="evenodd" d="M110.454 209.916C148.366 209.916 179.1 181.153 179.1 145.672C179.1 110.191 148.366 81.4277 110.454 81.4277C72.5419 81.4277 41.8081 110.191 41.8081 145.672C41.8081 181.153 72.5419 209.916 110.454 209.916ZM110.455 206.608C146.414 206.608 175.564 179.327 175.564 145.674C175.564 112.02 146.414 84.739 110.455 84.739C74.4956 84.739 45.345 112.02 45.345 145.674C45.345 179.327 74.4956 206.608 110.455 206.608Z" fill="url(#paint6_linear_1_7359)"/>
<path fill-rule="evenodd" clip-rule="evenodd" d="M40.5671 81.9939C36.6045 81.9939 33.4328 84.9948 33.4328 88.648C33.4328 91.4885 35.5447 93.9875 38.3041 94.9353L38.9312 95.0918C39.4954 95.2327 40.0771 95.291 40.6581 95.2651L41.3706 95.2334C41.758 95.2161 42.1462 95.2412 42.5281 95.3082C43.3231 95.4478 44.076 95.7661 44.7299 96.2394L106.858 141.202C109.049 142.788 112.03 142.718 114.145 141.032L175.663 91.9847C176.371 91.3335 177.491 91.4446 178.057 92.2255L179.197 93.7977L179.013 93.9308C179.519 94.2961 180.091 94.5983 180.721 94.8203C184.133 96.0226 187.91 94.4024 189.179 91.2479C190.448 88.0935 188.751 84.5441 185.338 83.3417C183.62 82.7361 181.832 82.742 180.318 83.336C178.814 83.926 177.557 85.1042 176.888 86.8927L176.633 87.7837C176.647 87.7881 176.647 87.7882 176.647 87.7882L176.647 87.7883L176.647 87.7887L176.646 87.7896L176.646 87.7923L176.643 87.8015L176.631 87.8337C176.622 87.8609 176.608 87.8994 176.59 87.9465C176.586 87.9573 176.582 87.9686 176.577 87.9803L176.531 88.1423L176.513 88.1379C176.489 88.1927 176.463 88.2517 176.434 88.3133C176.303 88.5892 176.096 88.9595 175.818 89.2083C175.422 89.5622 174.391 90.3227 174.104 90.5333C174.052 90.5713 174.002 90.6093 173.952 90.6483L114.553 136.911C112.2 138.744 108.921 138.81 106.496 137.074L46.1966 93.9026L46.1906 93.8983L46.1849 93.8939L45.5609 93.4072L45.9967 92.8483L46.0581 92.8962C47.0865 91.7414 47.7014 90.2606 47.7014 88.648C47.7014 84.9948 44.5298 81.9939 40.5671 81.9939ZM175.896 87.7752C175.868 87.8436 175.834 87.9241 175.793 88.01C175.671 88.2671 175.514 88.5295 175.346 88.6798C174.982 89.0052 173.985 89.7414 173.685 89.962C173.628 90.0035 173.572 90.0456 173.516 90.0892L114.117 136.352C112.012 137.992 109.079 138.051 106.909 136.497L46.6182 93.3328C47.7356 92.0622 48.4101 90.4301 48.4101 88.648C48.4101 84.5598 44.8762 81.2852 40.5671 81.2852C36.258 81.2852 32.7241 84.5598 32.7241 88.648C32.7241 91.8573 35.0978 94.5936 38.1004 95.6146L38.1003 95.6149L38.104 95.6159C38.1971 95.6475 38.2909 95.6774 38.3851 95.7057L38.3906 95.6874L38.7596 95.7795C39.3902 95.9369 40.0403 96.0021 40.6896 95.9732L41.4022 95.9414C41.738 95.9264 42.0745 95.9482 42.4056 96.0063C43.0948 96.1272 43.7475 96.4033 44.3144 96.8135L106.442 141.776C108.892 143.549 112.223 143.471 114.587 141.586L176.115 92.5307L176.126 92.5219L176.136 92.5123C176.278 92.379 176.451 92.3014 176.629 92.2771L176.594 92.2968C177.396 93.7136 178.732 94.8702 180.456 95.4778C184.206 96.799 188.42 95.0315 189.847 91.4835C191.275 87.9354 189.353 84.0055 185.603 82.6842C183.741 82.0281 181.769 82.0222 180.068 82.6895C178.36 83.3593 176.947 84.6996 176.208 86.6873L176.203 86.7001L176.2 86.7132L175.896 87.7752Z" fill="url(#paint7_linear_1_7359)"/>
<ellipse cx="182.629" cy="89.2238" rx="6.03251" ry="5.6457" stroke="#150096" stroke-width="0.885897"/>
<ellipse cx="182.629" cy="89.2238" rx="6.03251" ry="5.6457" stroke="url(#paint8_linear_1_7359)" stroke-width="0.885897"/>
<path d="M179.942 91.8574L185.447 86.7053" stroke="#150096" stroke-width="0.885897" stroke-linecap="round"/>
<path d="M179.942 91.8574L185.447 86.7053" stroke="url(#paint9_linear_1_7359)" stroke-width="0.885897" stroke-linecap="round"/>
<path d="M179.942 86.707L185.447 91.8591" stroke="#150096" stroke-width="0.885897" stroke-linecap="round"/>
<path d="M179.942 86.707L185.447 91.8591" stroke="url(#paint10_linear_1_7359)" stroke-width="0.885897" stroke-linecap="round"/>
<ellipse cx="40.5706" cy="88.5432" rx="6.34454" ry="5.93772" stroke="#150096" stroke-width="0.885897"/>
<ellipse cx="40.5706" cy="88.5432" rx="6.34454" ry="5.93772" stroke="url(#paint11_linear_1_7359)" stroke-width="0.885897"/>
<path d="M37.7351 91.3203L43.5249 85.9017" stroke="#150096" stroke-width="0.885897" stroke-linecap="round"/>
<path d="M37.7351 91.3203L43.5249 85.9017" stroke="url(#paint12_linear_1_7359)" stroke-width="0.885897" stroke-linecap="round"/>
<path d="M37.7351 85.8965L43.5249 91.3151" stroke="#150096" stroke-width="0.885897" stroke-linecap="round"/>
<path d="M37.7351 85.8965L43.5249 91.3151" stroke="url(#paint13_linear_1_7359)" stroke-width="0.885897" stroke-linecap="round"/>
<path fill-rule="evenodd" clip-rule="evenodd" d="M40.5565 212.469C36.7096 212.469 33.6362 209.577 33.6362 206.064C33.6362 203.372 35.6247 200.995 38.2471 200.053L38.2484 200.058L38.9077 199.893C39.4719 199.753 40.0536 199.694 40.6345 199.72L41.3998 199.754C41.7522 199.77 42.1052 199.747 42.4526 199.686C43.2866 199.54 44.0676 199.177 44.7178 198.635L106.539 147.067C108.838 145.149 112.197 145.211 114.424 147.212L175.628 202.212L175.631 202.214C176.351 202.885 177.472 202.87 178.174 202.179L179.135 201.232L178.981 201.076C179.496 200.698 180.081 200.386 180.727 200.158C184.14 198.956 187.917 200.576 189.186 203.73C190.455 206.885 188.758 210.434 185.345 211.637C181.937 212.838 178.164 211.222 176.891 208.074L176.6 207.205C176.623 207.197 176.623 207.197 176.623 207.197L176.623 207.197L176.623 207.197L176.623 207.196L176.622 207.193L176.619 207.184L176.608 207.152C176.598 207.124 176.585 207.086 176.567 207.039C176.538 206.964 176.499 206.866 176.449 206.756L176.429 206.696L176.422 206.698C176.418 206.689 176.414 206.681 176.41 206.672C176.28 206.396 176.073 206.026 175.794 205.777C175.454 205.473 174.649 204.872 174.25 204.576C174.092 204.46 173.94 204.337 173.794 204.208L114.847 151.764C112.378 149.567 108.68 149.487 106.118 151.575L45.1213 201.286L45.1183 201.288L44.4972 201.773L44.9331 202.332L45.0321 202.254C46.0918 203.409 47.0727 204.84 47.0727 206.317C47.0727 209.839 44.3943 212.469 40.5565 212.469ZM175.785 207.007C175.78 206.996 175.775 206.986 175.77 206.975C175.648 206.718 175.491 206.456 175.322 206.305C175.012 206.028 174.239 205.45 173.829 205.146C173.655 205.018 173.486 204.882 173.323 204.737L114.376 152.293C112.167 150.328 108.858 150.257 106.566 152.124L45.5921 201.817C46.6638 202.992 47.7814 204.579 47.7814 206.317C47.7814 210.261 44.7541 213.178 40.5565 213.178C36.3681 213.178 32.9275 210.017 32.9275 206.064C32.9275 202.864 35.3862 200.153 38.4346 199.246L38.4445 199.279L38.7361 199.206C39.3667 199.048 40.0168 198.983 40.6661 199.012L41.4314 199.046C41.7322 199.06 42.0335 199.04 42.3301 198.988C43.042 198.863 43.7088 198.554 44.2639 198.091L106.085 146.523C108.654 144.379 112.409 144.448 114.898 146.685L176.107 201.689L176.113 201.694C176.374 201.939 176.723 202.036 177.053 201.986C177.866 200.889 179.03 200.005 180.463 199.501C184.212 198.179 188.427 199.947 189.854 203.495C191.282 207.043 189.359 210.973 185.61 212.294C181.86 213.615 177.646 211.848 176.218 208.3L176.214 208.29L176.211 208.28L175.785 207.007Z" fill="url(#paint14_linear_1_7359)"/>
<ellipse cx="5.96568" cy="5.58315" rx="5.96568" ry="5.58315" transform="matrix(1 0 0 -1 177.083 211.471)" stroke="url(#paint15_linear_1_7359)" stroke-width="0.885897"/>
<path d="M180.384 203.279L185.828 208.374" stroke="url(#paint16_linear_1_7359)" stroke-width="0.885897" stroke-linecap="round"/>
<path d="M180.384 208.377L185.828 203.282" stroke="url(#paint17_linear_1_7359)" stroke-width="0.885897" stroke-linecap="round"/>
<ellipse cx="6.27771" cy="5.87517" rx="6.27771" ry="5.87517" transform="matrix(1 0 0 -1 34.2827 212.059)" stroke="url(#paint18_linear_1_7359)" stroke-width="0.885897"/>
<path d="M37.7554 203.441L43.4842 208.803" stroke="url(#paint19_linear_1_7359)" stroke-width="0.885897" stroke-linecap="round"/>
<path d="M37.7554 208.801L43.4842 203.439" stroke="url(#paint20_linear_1_7359)" stroke-width="0.885897" stroke-linecap="round"/>
<path fill-rule="evenodd" clip-rule="evenodd" d="M110.46 175.428C128.018 175.428 142.252 162.107 142.252 145.675C142.252 129.243 128.018 115.922 110.46 115.922C92.9021 115.922 78.6685 129.243 78.6685 145.675C78.6685 162.107 92.9021 175.428 110.46 175.428ZM110.459 171.763C125.853 171.763 138.333 160.083 138.333 145.676C138.333 131.268 125.853 119.589 110.459 119.589C95.0641 119.589 82.5843 131.268 82.5843 145.676C82.5843 160.083 95.0641 171.763 110.459 171.763Z" fill="url(#paint21_linear_1_7359)"/>
<path fill-rule="evenodd" clip-rule="evenodd" d="M110.456 192.288C137.968 192.288 160.27 171.416 160.27 145.669C160.27 119.921 137.968 99.0488 110.456 99.0488C82.945 99.0488 60.6426 119.921 60.6426 145.669C60.6426 171.416 82.945 192.288 110.456 192.288ZM110.465 188.893C135.969 188.893 156.645 169.543 156.645 145.674C156.645 121.805 135.969 102.455 110.465 102.455C84.9604 102.455 64.2849 121.805 64.2849 145.674C64.2849 169.543 84.9604 188.893 110.465 188.893Z" fill="url(#paint22_linear_1_7359)"/>
<path fill-rule="evenodd" clip-rule="evenodd" d="M110.471 161.775C119.977 161.775 127.683 154.563 127.683 145.667C127.683 136.771 119.977 129.559 110.471 129.559C100.965 129.559 93.2585 136.771 93.2585 145.667C93.2585 154.563 100.965 161.775 110.471 161.775ZM110.474 158.123C117.827 158.123 123.787 152.545 123.787 145.664C123.787 138.783 117.827 133.205 110.474 133.205C103.121 133.205 97.161 138.783 97.161 145.664C97.161 152.545 103.121 158.123 110.474 158.123Z" fill="url(#paint23_linear_1_7359)"/>
<path d="M190.107 41.408C191.233 41.0468 193.638 41.7872 194.256 44.3874C194.622 45.9302 194.716 49.6443 194.738 55.0412C194.749 57.7712 195.699 61.9186 195.908 64.6117C196.668 67.7717 196.475 68.5843 197.053 71.5638C197.191 72.272 197.786 73.932 198.06 74.8141C198.879 77.4532 199.91 80.7333 200.686 84.3846C201.376 87.6321 202.017 91.0305 202.554 94.1356C203.398 99.016 203.421 103.533 203.532 105.241C203.603 106.324 203.939 109.916 204.073 114.546C204.167 117.825 204.443 120.724 204.475 124.833C204.492 127.077 204.302 130.378 204.282 132.688C204.256 135.777 204.191 138.868 204.073 141.807C203.969 144.363 203.825 146.804 203.63 149.03C202.608 153.547 202.578 155.145 202.07 157.156C201.781 160.226 201.106 164.403 200.999 166.636C200.868 169.395 200.568 171.198 200.999 174.491C201.374 177.351 201.056 181.149 201.355 183.791C201.784 187.575 201.318 190.477 200.43 192.368C198.192 197.135 197.118 199.651 196.475 200.403L196.378 187.944L196.304 178.373L196.282 175.484L196.419 169.887L196.331 164.018L196.368 155.44L196.419 143.432L196.574 136.661L196.668 127L196.419 118.784L196.574 107.498L196.613 98.4694L196.645 90.8852L196.668 85.6486L195.894 82.3983L193.617 72.8278L191.169 62.5351V60.0973V51.9715V43.3039L190.107 41.408Z" fill="white"/>
<path d="M194.256 44.3874C193.638 41.7872 191.233 41.0468 190.107 41.408L191.169 43.3039M194.256 44.3874C194.622 45.9302 194.716 49.6443 194.738 55.0412M194.256 44.3874L191.169 43.3039M203.532 105.241C203.603 106.324 203.939 109.916 204.073 114.546M203.532 105.241L196.613 98.4694M203.532 105.241C203.421 103.533 203.398 99.016 202.554 94.1356M202.07 157.156C201.781 160.226 201.106 164.403 200.999 166.636M202.07 157.156L196.368 155.44M202.07 157.156C202.578 155.145 202.608 153.547 203.63 149.03M200.43 192.368C198.192 197.135 197.118 199.651 196.475 200.403L196.378 187.944M200.43 192.368L196.378 187.944M200.43 192.368C201.318 190.477 201.784 187.575 201.355 183.791M196.378 187.944L196.304 178.373M201.355 183.791L196.304 178.373M201.355 183.791C201.056 181.149 201.374 177.351 200.999 174.491M196.304 178.373L196.282 175.484L196.419 169.887M200.999 174.491L196.419 169.887M200.999 174.491C200.568 171.198 200.868 169.395 200.999 166.636M196.419 169.887L196.331 164.018M200.999 166.636L196.331 164.018M196.331 164.018L196.368 155.44M196.368 155.44L196.419 143.432M203.63 149.03L196.419 143.432M203.63 149.03C203.825 146.804 203.969 144.363 204.073 141.807M196.419 143.432L196.574 136.661M204.073 141.807L196.574 136.661M204.073 141.807C204.191 138.868 204.256 135.777 204.282 132.688M196.574 136.661L196.668 127M204.282 132.688L196.668 127M204.282 132.688C204.302 130.378 204.492 127.077 204.475 124.833M196.668 127L196.419 118.784M204.475 124.833L196.419 118.784M204.475 124.833C204.443 120.724 204.167 117.825 204.073 114.546M196.419 118.784L196.574 107.498M204.073 114.546L196.574 107.498M196.574 107.498L196.613 98.4694M196.613 98.4694L196.645 90.8852M202.554 94.1356L196.645 90.8852M202.554 94.1356C202.017 91.0305 201.376 87.6321 200.686 84.3846M196.645 90.8852L196.668 85.6486L195.894 82.3983M200.686 84.3846L195.894 82.3983M200.686 84.3846C199.91 80.7333 198.879 77.4532 198.06 74.8141M195.894 82.3983L193.617 72.8278M198.06 74.8141C197.786 73.932 197.191 72.272 197.053 71.5638C196.475 68.5843 196.668 67.7717 195.908 64.6117M198.06 74.8141L193.617 72.8278M193.617 72.8278L191.169 62.5351V60.0973M195.908 64.6117L191.169 60.0973M195.908 64.6117C195.699 61.9186 194.749 57.7712 194.738 55.0412M191.169 60.0973V51.9715M194.738 55.0412L191.169 51.9715M191.169 51.9715V43.3039" stroke="black" stroke-width="1.06308"/>
<path d="M191.543 184.967V177.021C192.128 175.287 192.623 173.427 193.07 171.243C193.645 168.43 194.141 165.08 194.649 160.77C194.894 158.691 195.141 156.39 195.402 153.818C195.626 151.603 195.798 148.168 195.91 143.976C195.972 141.629 196.016 139.043 196.039 136.302C196.058 134.073 196.064 131.741 196.055 129.35C196.045 126.433 196.013 123.427 195.959 120.411C195.914 117.844 195.852 115.27 195.773 112.737C195.683 109.861 195.572 107.038 195.437 104.34C195.292 101.425 195.119 98.6567 194.918 96.1241C194.722 93.6418 194.497 91.3864 194.244 89.4429C193.845 86.3715 193.5 83.9184 193.172 81.8588C192.402 77.0146 191.725 74.3475 190.649 70.934C190.084 69.1433 189.409 67.1472 188.552 64.5236C188.2 63.4436 187.925 62.2196 187.719 60.9122C187.402 58.8994 187.25 56.6889 187.235 54.5018C187.211 51.0137 187.534 47.585 188.09 45.1119C188.595 42.8674 189.293 41.4101 190.096 41.4102C192.681 41.4102 191.53 46.3751 191.369 50.8C191.334 51.7454 191.345 52.6662 191.447 53.5086C191.596 54.7413 191.814 56.2857 192.089 58.023C192.486 60.5375 193.002 63.4564 193.6 66.4197C194.184 69.3183 194.846 72.2596 195.55 74.9067C195.723 75.5582 195.899 76.1918 196.077 76.8027C196.654 78.7824 197.135 81.3903 197.536 84.2965C197.884 86.822 198.172 89.5726 198.411 92.3321C198.624 94.7834 198.798 97.2416 198.941 99.555C199.139 102.769 199.278 105.704 199.379 107.952C199.401 108.462 199.422 108.936 199.441 109.371L199.454 109.667C199.497 110.66 199.575 112.881 199.656 115.807C199.717 118.033 199.779 120.667 199.829 123.481C199.867 125.637 199.898 127.899 199.915 130.162C199.932 132.518 199.934 134.876 199.915 137.12C199.882 140.87 199.786 144.3 199.595 146.865C199.506 148.067 199.396 149.079 199.261 149.845C198.896 151.919 198.646 154.213 198.434 156.616C198.189 159.389 197.995 162.307 197.736 165.194C197.447 168.411 197.076 171.591 196.463 174.493C195.251 180.235 193.376 184.967 191.543 184.967Z" fill="white"/>
<path d="M194.244 89.4429C193.845 86.3715 193.5 83.9184 193.172 81.8588M194.244 89.4429L198.411 92.3321M194.244 89.4429C194.497 91.3864 194.722 93.6418 194.918 96.1241M195.402 153.818C195.626 151.603 195.798 148.168 195.91 143.976M195.402 153.818L198.434 156.616M195.402 153.818C195.141 156.39 194.894 158.691 194.649 160.77M196.463 174.493C195.251 180.235 193.376 184.967 191.543 184.967V177.021C192.128 175.287 192.623 173.427 193.07 171.243M196.463 174.493C197.076 171.591 197.447 168.411 197.736 165.194M196.463 174.493L193.07 171.243M188.09 45.1119C188.595 42.8674 189.293 41.4101 190.096 41.4102C192.681 41.4102 191.53 46.3751 191.369 50.8M188.09 45.1119L191.369 50.8M188.09 45.1119C187.534 47.585 187.211 51.0137 187.235 54.5018M191.369 50.8C191.334 51.7454 191.345 52.6662 191.447 53.5086C191.596 54.7413 191.814 56.2857 192.089 58.023M192.089 58.023L187.235 54.5018M192.089 58.023C192.486 60.5375 193.002 63.4564 193.6 66.4197M187.235 54.5018C187.25 56.6889 187.402 58.8994 187.719 60.9122M193.6 66.4197L187.719 60.9122M193.6 66.4197C194.184 69.3183 194.846 72.2596 195.55 74.9067M187.719 60.9122C187.925 62.2196 188.2 63.4436 188.552 64.5236C189.409 67.1472 190.084 69.1433 190.649 70.934M195.55 74.9067C195.723 75.5582 195.899 76.1918 196.077 76.8027C196.654 78.7824 197.135 81.3903 197.536 84.2965M195.55 74.9067L190.649 70.934M190.649 70.934C191.725 74.3475 192.402 77.0146 193.172 81.8588M197.536 84.2965L193.172 81.8588M197.536 84.2965C197.884 86.822 198.172 89.5726 198.411 92.3321M198.411 92.3321C198.624 94.7834 198.798 97.2416 198.941 99.555M198.941 99.555L194.918 96.1241M198.941 99.555C199.139 102.769 199.278 105.704 199.379 107.952M194.918 96.1241C195.119 98.6566 195.292 101.425 195.437 104.34M199.379 107.952C199.407 108.58 199.432 109.155 199.454 109.667C199.497 110.66 199.575 112.881 199.656 115.807M199.379 107.952L195.437 104.34M195.437 104.34C195.572 107.038 195.683 109.861 195.773 112.737M199.656 115.807L195.773 112.737M199.656 115.807C199.717 118.033 199.779 120.667 199.829 123.481M195.773 112.737C195.852 115.27 195.914 117.844 195.959 120.411M199.829 123.481L195.959 120.411M199.829 123.481C199.867 125.637 199.898 127.899 199.915 130.162M195.959 120.411C196.013 123.427 196.045 126.433 196.055 129.35M199.915 130.162L196.055 129.35M199.915 130.162C199.932 132.518 199.934 134.876 199.915 137.12M196.055 129.35C196.064 131.741 196.058 134.073 196.039 136.302M199.915 137.12L196.039 136.302M199.915 137.12C199.882 140.87 199.786 144.3 199.595 146.865M196.039 136.302C196.016 139.043 195.972 141.629 195.91 143.976M199.595 146.865C199.506 148.067 199.396 149.079 199.261 149.845C198.896 151.919 198.646 154.213 198.434 156.616M199.595 146.865L195.91 143.976M198.434 156.616C198.189 159.389 197.995 162.307 197.736 165.194M197.736 165.194L194.649 160.77M194.649 160.77C194.141 165.08 193.645 168.43 193.07 171.243" stroke="black" stroke-width="1.06308"/>
<path d="M113.233 63.108C113.089 63.7782 113.018 65.1086 113.882 65.0682C114.746 65.0278 115.074 64.5873 115.131 64.3721M123.502 62.2323C124.186 62.6547 125.396 63.6405 124.767 64.2048C124.137 64.7691 123.225 64.222 122.848 63.8778M117.171 66.1421C116.886 65.9956 116.604 65.8227 116.335 65.6222C114.819 64.4957 117.016 63.9291 118.303 63.7867C119.32 64.2638 121.287 65.4042 121.023 66.149C120.741 66.9474 118.887 67.0246 117.171 66.1421ZM117.171 66.1421C116.229 66.869 114.728 68.5035 116.252 69.2264C118.158 70.13 121.224 70.8406 122.714 69.7166C123.906 68.8174 124.273 67.8248 124.307 67.4408" stroke="black" stroke-width="0.69984"/>
<path d="M116.201 44.775C116.253 45.8578 116.07 48.4647 114.92 50.2302C113.483 52.4369 115.224 57.1594 117.38 57.2027C119.537 57.246 120.194 55.4562 120.155 53.7968" stroke="black" stroke-width="0.69984"/>
<path d="M106.372 40.1113C106.038 40.1957 105.7 40.2899 105.364 40.3926M106.372 40.1113C106.708 40.0631 107.134 39.9889 107.609 39.9329M106.372 40.1113L106.611 43.145M112.578 41.6779C113.68 43.4308 109.97 44.5104 107.957 44.9027C105.945 45.295 102.941 45.2349 101.277 43.9034C100.555 43.3259 100.861 42.6674 101.704 42.0439M112.578 41.6779C112.578 41.6779 113.986 40.8855 114.986 40.8611C116.127 40.8331 117.738 41.7815 117.738 41.7815M112.578 41.6779C111.853 40.5245 110.779 40.0591 109.69 39.9125M101.704 42.0439L101.826 43.4818M101.704 42.0439C101.966 41.8509 102.278 41.6612 102.628 41.4783M102.628 41.4783L102.817 43.9343M102.628 41.4783C102.808 41.3841 102.998 41.2917 103.196 41.2015C103.245 41.1793 103.294 41.1572 103.344 41.1353M104.044 40.8466L104.203 43.9621M104.044 40.8466C104.469 40.6826 104.914 40.5301 105.364 40.3926M104.044 40.8466C103.803 40.9394 103.569 41.0359 103.344 41.1353M105.364 40.3926L105.582 44.3504M107.609 39.9329L107.761 43.3845M107.609 39.9329C107.995 39.8875 108.414 39.8541 108.844 39.8564M108.844 39.8564L108.95 41.966M108.844 39.8564C109.123 39.8579 109.407 39.8744 109.69 39.9125M110.608 40.1963L110.546 42.9355M109.69 39.9125L109.689 43.351M103.344 41.1353L103.455 43.0096" stroke="black" stroke-width="0.69984" stroke-linecap="round"/>
<path d="M120.559 39.4617C119.317 40.0589 118.766 40.8021 119.588 41.4596C121.253 42.7911 122.593 43.306 126.177 43.1062C128.229 42.9918 132.566 41.7727 131.68 39.9159C131.498 39.5348 131.102 39.2481 130.586 39.032M120.559 39.4617L120.666 41.4812M120.559 39.4617C120.816 39.3379 121.103 39.2204 121.414 39.1112M121.414 39.1112L121.53 40.7774M121.414 39.1112C121.728 39.0008 122.067 38.899 122.423 38.8078M122.423 38.8078L122.728 42.3159M122.423 38.8078C122.769 38.7192 123.133 38.6406 123.507 38.5741M123.507 38.5741L123.677 41.2531M123.507 38.5741C123.81 38.5202 124.12 38.4743 124.435 38.4372M124.435 38.4372L124.726 42.5723M124.435 38.4372C124.69 38.4072 124.948 38.383 125.207 38.3653M125.207 38.3653C125.296 38.3592 125.385 38.3539 125.474 38.3493C125.708 38.354 125.984 38.3595 126.286 38.3694M125.207 38.3653L125.402 41.4701M126.286 38.3694L126.579 42.3931M126.286 38.3694C126.619 38.3803 126.984 38.3965 127.363 38.4228M127.363 38.4228L127.595 41.7644M127.363 38.4228C127.816 38.4541 128.287 38.4996 128.747 38.5676M128.747 38.5676L128.934 40.4932M128.747 38.5676C129.091 38.6183 129.427 38.6814 129.745 38.7604M129.745 38.7604L130.003 40.9473M129.745 38.7604C130.047 38.8356 130.331 38.9252 130.586 39.032M130.586 39.032L130.847 41.1085" stroke="black" stroke-width="0.69984" stroke-linecap="round"/>
<path d="M35.343 45.0449V48.9385" stroke="black" stroke-width="0.708718" stroke-linecap="round"/>
<path d="M37.8376 44.2715L37.8376 49.7225" stroke="black" stroke-width="0.708718" stroke-linecap="round"/>
<path d="M40.1221 44.6562L40.1221 49.3286" stroke="black" stroke-width="0.708718" stroke-linecap="round"/>
<path d="M42.0007 44.0703L42.0007 49.9107" stroke="black" stroke-width="0.708718" stroke-linecap="round"/>
<path d="M44.7083 44.6562L44.7083 49.3286" stroke="black" stroke-width="0.708718" stroke-linecap="round"/>
<path d="M48.0325 44.6562L48.0325 49.3286" stroke="black" stroke-width="0.708718" stroke-linecap="round"/>
<path d="M50.7336 44.6562L50.7336 49.3286" stroke="black" stroke-width="0.708718" stroke-linecap="round"/>
<path d="M54.2673 44.2715L54.2673 49.9172" stroke="black" stroke-width="0.708718" stroke-linecap="round"/>
<path d="M57.3879 44.0723L57.3879 49.9126" stroke="black" stroke-width="0.708718" stroke-linecap="round"/>
<path d="M61.125 44.0703L61.125 49.9107" stroke="black" stroke-width="0.708718" stroke-linecap="round"/>
<path d="M63.6331 45.0391L63.6331 48.9326" stroke="black" stroke-width="0.708718" stroke-linecap="round"/>
<path d="M66.1172 44.4668L66.1172 49.7231" stroke="black" stroke-width="0.708718" stroke-linecap="round"/>
<path d="M68.6292 44.6582L68.6292 49.3305" stroke="black" stroke-width="0.708718" stroke-linecap="round"/>
<path d="M71.1238 44.2715L71.1238 49.7225" stroke="black" stroke-width="0.708718" stroke-linecap="round"/>
<path d="M73.6184 44.0703L73.6184 49.9107" stroke="black" stroke-width="0.708718" stroke-linecap="round"/>
<path d="M76.123 44.0703L76.123 49.9107" stroke="black" stroke-width="0.708718" stroke-linecap="round"/>
<path d="M69.5518 64.893V60.8047L89.1054 60.8047V64.893H69.5518Z" fill="black"/>
<path d="M51.3584 41.9215V39.3906L76.7366 39.3906V41.9215L51.3584 41.9215Z" fill="black"/>
<path d="M72.3577 57.6877V55.9355H86.5029V57.6877H72.3577Z" fill="black"/>
<path d="M174.945 57.0103H165.327C164.709 57.0103 164.208 56.5091 164.208 55.8909C164.208 55.2727 164.709 54.7715 165.327 54.7715H174.945C175.563 54.7715 176.065 55.2727 176.065 55.8909C176.065 56.5091 175.563 57.0103 174.945 57.0103Z" fill="black"/>
<path d="M177.913 63.5256H166.52C165.875 63.5256 165.352 63.0026 165.352 62.3575C165.352 61.7124 165.875 61.1895 166.52 61.1895H177.913C178.558 61.1895 179.081 61.7124 179.081 62.3575C179.081 63.0026 178.558 63.5256 177.913 63.5256Z" fill="black"/>
<path d="M162.71 55.8404C162.71 57.182 161.541 58.3089 160.048 58.3089C158.555 58.3089 157.386 57.182 157.386 55.8404C157.386 54.4989 158.555 53.3719 160.048 53.3719C161.541 53.3719 162.71 54.4989 162.71 55.8404Z" stroke="black" stroke-width="0.708718"/>
<path d="M163.539 62.2623C163.539 63.6039 162.37 64.7308 160.877 64.7308C159.385 64.7308 158.215 63.6039 158.215 62.2623C158.215 60.9207 159.385 59.7938 160.877 59.7938C162.37 59.7938 163.539 60.9207 163.539 62.2623Z" stroke="black" stroke-width="0.708718"/>
<path d="M252.558 98.835L261.191 54.2948C261.275 53.8612 261.168 53.4124 260.897 53.0636L260.506 52.5608C260.704 50.8079 260.604 46.9658 259.525 46.461C258.447 45.9562 257.189 47.0219 256.583 47.5127L254.132 44.3576L240.424 43.7832C239.652 43.7508 238.977 44.2981 238.85 45.0597L236.601 58.4502L237.918 59.9902C238.222 60.3461 238.346 60.8214 238.256 61.2808L233.23 86.8457L228.285 91.4732L236.651 98.0978C236.91 98.3033 237.229 98.4191 237.56 98.4281L252.558 98.835Z" fill="url(#paint24_linear_1_7359)"/>
<path d="M252.558 98.835L261.191 54.2948C261.275 53.8612 261.168 53.4124 260.897 53.0636L260.506 52.5608M252.558 98.835L244.018 92.3145M252.558 98.835L237.56 98.4281C237.229 98.4191 236.91 98.3033 236.651 98.0978L228.285 91.4732M244.018 92.3145L228.285 91.4732M244.018 92.3145L248.738 87.6871M228.285 91.4732L233.23 86.8457M248.738 87.6871L233.23 86.8457M248.738 87.6871L253.328 61.9079C253.41 61.4506 253.279 60.9811 252.974 60.6314L251.435 58.8709M233.23 86.8457L238.256 61.2808C238.346 60.8214 238.222 60.3461 237.918 59.9902L236.601 58.4502M251.435 58.8709L254.132 44.3576M251.435 58.8709L236.601 58.4502M254.132 44.3576L240.424 43.7832C239.652 43.7508 238.977 44.2981 238.85 45.0597L236.601 58.4502M254.132 44.3576L256.583 47.5127M260.506 52.5608C260.704 50.8079 260.604 46.9658 259.525 46.461M260.506 52.5608L257.503 48.6958M259.525 46.461C258.447 45.9562 257.189 47.0219 256.583 47.5127M259.525 46.461L261.323 38.2578M259.525 46.461C259.525 46.461 258.802 46.8584 258.402 47.3023C258.011 47.7357 257.503 48.6958 257.503 48.6958M256.583 47.5127L257.503 48.6958" stroke="black" stroke-width="0.707224"/>
<path d="M245.81 52.2306L246.501 50.2839L247.085 50.3068L247.362 51.4245L248.32 50.3554L249 50.3822L248.307 52.3288L247.61 52.3014L247.838 51.6477L247.42 52.0789L246.846 52.0563L246.709 51.6033L246.487 52.2573L245.81 52.2306Z" fill="black"/>
<path d="M244.023 50.6728L244.188 50.1717L246.369 50.2575L246.186 50.7579L245.207 50.7194L245.382 50.9201L244.924 52.1957L244.244 52.169L244.771 50.7022L244.023 50.6728Z" fill="black"/>
<path fill-rule="evenodd" clip-rule="evenodd" d="M241.007 52.1844L241.765 50.034C241.769 50.0227 241.78 50.0153 241.792 50.0158L243.652 50.089C243.841 50.0964 244.005 50.2692 243.987 50.4666C243.938 51.0357 243.637 51.6146 243.034 51.5909C243.034 51.5909 243.664 52.7753 244.008 53.4752C244.017 53.4937 244.003 53.5148 243.983 53.514L243.22 53.484C243.21 53.4836 243.201 53.4777 243.197 53.4686L242.3 51.5912C242.292 51.5729 242.274 51.561 242.253 51.5602L242.027 51.5513C242.004 51.5504 241.982 51.5645 241.974 51.5864L241.73 52.2295C241.725 52.2405 241.715 52.2475 241.703 52.2471L241.031 52.2206C241.013 52.2199 241.001 52.2017 241.007 52.1844ZM242.115 50.6484C242.173 50.7087 242.239 50.778 242.24 50.8001C242.242 50.8394 242.206 50.9152 242.183 50.9647C242.17 50.9925 242.161 51.012 242.164 51.0121C242.165 51.0121 242.172 51.0124 242.183 51.0129C242.31 51.0186 243.065 51.0524 243.088 51.0471C243.16 51.0311 243.301 50.6585 243.243 50.6196C243.196 50.5879 242.054 50.5431 242.032 50.5486C242.021 50.5512 242.065 50.5964 242.115 50.6484Z" fill="black"/>
<path fill-rule="evenodd" clip-rule="evenodd" d="M240.951 52.1805L241.709 50.0301C241.713 50.0188 241.724 50.0114 241.736 50.0119L243.596 50.0851C243.785 50.0925 243.949 50.2653 243.932 50.4627C243.882 51.0318 243.581 51.6107 242.978 51.587C242.978 51.587 243.608 52.7714 243.952 53.4713C243.961 53.4898 243.947 53.5109 243.927 53.5101L243.164 53.4801C243.154 53.4797 243.145 53.4738 243.141 53.4646L242.245 51.5873C242.236 51.569 242.218 51.5571 242.198 51.5563L241.971 51.5474C241.948 51.5465 241.926 51.5606 241.918 51.5825L241.674 52.2256C241.67 52.2366 241.659 52.2436 241.647 52.2432L240.975 52.2167C240.957 52.216 240.945 52.1978 240.951 52.1805ZM242.058 50.6443C242.116 50.7046 242.183 50.774 242.184 50.796C242.185 50.8353 242.15 50.9111 242.127 50.9606C242.114 50.9884 242.104 51.0079 242.108 51.008C242.109 51.0081 242.115 51.0083 242.126 51.0088C242.254 51.0146 243.008 51.0483 243.032 51.043C243.103 51.0271 243.245 50.6544 243.187 50.6155C243.14 50.5838 241.998 50.539 241.975 50.5446C241.965 50.5471 242.008 50.5924 242.058 50.6443Z" fill="black"/>
<path d="M244.032 53.289L244.108 52.9193L244.241 52.9245C244.27 52.9257 244.293 52.9315 244.31 52.9421C244.327 52.9526 244.338 52.9668 244.344 52.9846C244.35 53.0023 244.351 53.0226 244.346 53.0455C244.341 53.0681 244.332 53.0878 244.319 53.1045C244.306 53.1212 244.289 53.134 244.268 53.1429C244.247 53.1516 244.222 53.1554 244.193 53.1543L244.093 53.1503L244.103 53.1023L244.198 53.1061C244.217 53.1068 244.232 53.1048 244.245 53.1001C244.257 53.0954 244.267 53.0882 244.274 53.0785C244.282 53.0688 244.287 53.0571 244.289 53.0432C244.292 53.0292 244.292 53.017 244.289 53.0066C244.286 52.9962 244.279 52.9881 244.268 52.9822C244.258 52.9762 244.244 52.9729 244.225 52.9721L244.155 52.9694L244.088 53.2912L244.032 53.289ZM244.25 53.1294L244.308 53.2998L244.244 53.2973L244.188 53.127L244.25 53.1294ZM244.333 53.3008L244.409 52.9311L244.642 52.9403L244.632 52.9883L244.455 52.9813L244.432 53.094L244.597 53.1005L244.587 53.1483L244.422 53.1418L244.399 53.255L244.578 53.2621L244.568 53.3101L244.333 53.3008ZM244.611 53.3118L244.551 53.3094L244.762 52.945L244.827 52.9475L244.884 53.3225L244.824 53.3201L244.782 53.0135L244.779 53.0134L244.611 53.3118ZM244.651 53.1674L244.844 53.175L244.834 53.2219L244.641 53.2143L244.651 53.1674ZM245.039 53.3286L244.917 53.3238L244.994 52.9541L245.116 52.9589C245.153 52.9604 245.183 52.9692 245.206 52.9854C245.229 53.0015 245.245 53.0238 245.254 53.0524C245.262 53.0809 245.262 53.1146 245.254 53.1534C245.246 53.1915 245.233 53.2238 245.213 53.2505C245.194 53.277 245.17 53.297 245.14 53.3105C245.111 53.3241 245.077 53.3301 245.039 53.3286ZM244.984 53.2773L245.044 53.2796C245.072 53.2808 245.097 53.2762 245.118 53.266C245.139 53.2558 245.157 53.2405 245.17 53.22C245.184 53.1996 245.194 53.1744 245.2 53.1446C245.206 53.1162 245.207 53.092 245.202 53.072C245.197 53.052 245.187 53.0365 245.171 53.0257C245.155 53.0147 245.133 53.0087 245.106 53.0077L245.04 53.0051L244.984 53.2773ZM245.285 52.9656L245.348 52.9681L245.411 53.14L245.415 53.1401L245.547 52.9759L245.611 52.9784L245.429 53.1976L245.399 53.3428L245.343 53.3406L245.373 53.1954L245.285 52.9656ZM245.628 53.0275L245.638 52.9795L245.926 52.9908L245.916 53.0388L245.8 53.0342L245.733 53.3559L245.677 53.3537L245.744 53.032L245.628 53.0275ZM246.227 53.1926C246.219 53.2315 246.205 53.2645 246.185 53.2918C246.165 53.319 246.141 53.3396 246.114 53.3536C246.086 53.3674 246.056 53.3737 246.025 53.3725C245.992 53.3712 245.964 53.3622 245.942 53.3457C245.919 53.3291 245.903 53.306 245.894 53.2767C245.885 53.2472 245.885 53.2125 245.893 53.1726C245.901 53.1337 245.915 53.1007 245.935 53.0734C245.955 53.0461 245.979 53.0254 246.007 53.0114C246.035 52.9975 246.065 52.9912 246.097 52.9924C246.129 52.9937 246.157 53.0027 246.179 53.0193C246.202 53.0358 246.217 53.0589 246.226 53.0885C246.235 53.118 246.235 53.1527 246.227 53.1926ZM246.173 53.1836C246.179 53.1541 246.179 53.1291 246.174 53.1086C246.169 53.088 246.159 53.0723 246.145 53.0613C246.13 53.0503 246.113 53.0444 246.092 53.0436C246.07 53.0427 246.049 53.0474 246.03 53.0578C246.01 53.0682 245.993 53.0838 245.979 53.1046C245.964 53.1254 245.954 53.1511 245.948 53.1816C245.942 53.2111 245.941 53.2361 245.946 53.2566C245.952 53.277 245.962 53.2928 245.976 53.3038C245.99 53.3146 246.008 53.3205 246.029 53.3213C246.05 53.3222 246.071 53.3174 246.091 53.3072C246.11 53.2968 246.128 53.2813 246.142 53.2606C246.156 53.2398 246.167 53.2141 246.173 53.1836ZM246.305 53.0057L246.374 53.0084L246.433 53.3004L246.437 53.3006L246.615 53.0179L246.683 53.0206L246.607 53.3902L246.553 53.3881L246.609 53.1206L246.605 53.1205L246.44 53.3832L246.396 53.3814L246.342 53.11L246.338 53.1098L246.282 53.3775L246.229 53.3754L246.305 53.0057ZM246.79 53.0248L246.714 53.3945L246.658 53.3922L246.734 53.0226L246.79 53.0248ZM247.141 53.0386L247.065 53.4083L247.013 53.4062L246.88 53.1277L246.877 53.1276L246.821 53.3987L246.765 53.3965L246.841 53.0268L246.893 53.0288L247.026 53.3078L247.03 53.3079L247.086 53.0364L247.141 53.0386ZM247.116 53.4103L247.193 53.0406L247.426 53.0498L247.416 53.0978L247.239 53.0908L247.216 53.2035L247.381 53.21L247.371 53.2578L247.206 53.2513L247.182 53.3645L247.362 53.3715L247.352 53.4196L247.116 53.4103Z" fill="black"/>
<path d="M243.692 61.0918L253.416 61.2197" stroke="black" stroke-width="0.707224"/>
<path d="M249.531 56.3436L251.269 47.1251C251.356 46.6656 251.014 46.2363 250.546 46.2181L241.308 45.8579C240.928 45.843 240.594 46.1096 240.525 46.4837L238.787 55.8823C238.701 56.3471 239.053 56.778 239.525 56.7872L248.763 56.9673C249.137 56.9746 249.462 56.7109 249.531 56.3436Z" stroke="black" stroke-width="0.707224"/>
<path d="M252.781 91.4688L251.657 96.3065" stroke="black" stroke-width="0.707224" stroke-linecap="round"/>
<path d="M251.657 90.6289L250.533 95.4667" stroke="black" stroke-width="0.707224" stroke-linecap="round"/>
<path d="M250.756 89.7852L249.633 94.6229" stroke="black" stroke-width="0.707224" stroke-linecap="round"/>
<path d="M241.54 88.7396L239.292 91.0533M239.517 88.5293L237.27 90.843M237.494 88.5293L235.472 90.6327" stroke="black" stroke-width="0.707224" stroke-linecap="round"/>
<ellipse cx="1.12374" cy="0.841349" rx="1.12374" ry="0.841349" transform="matrix(-1 0 0 1 262.444 37.2031)" fill="black"/>
<path d="M245.814 84.9499L246.937 84.5292L249.41 70.4366L248.286 68.9642M245.814 84.9499L241.993 84.8738M245.814 84.9499L246.334 81.5845M248.286 68.9642L244.465 68.8882M248.286 68.9642L247.57 73.5917M244.465 68.8882L241.993 84.8738M244.465 68.8882L241.094 68.821M241.993 84.8738L238.622 84.8067M241.094 68.821L237.723 68.7539L236.389 77.3777M241.094 68.821L238.622 84.8067M238.622 84.8067L235.251 84.7395L235.771 81.3741M247.57 73.5917L237.048 73.3813M247.57 73.5917L246.952 77.5881M246.952 77.5881L236.389 77.3777M246.952 77.5881L246.334 81.5845M236.389 77.3777L235.771 81.3741M246.334 81.5845L235.771 81.3741" stroke="black" stroke-width="0.707224"/>
<path d="M250.082 66.8564L250.756 63.2806L239.744 63.0703L238.845 66.646L250.082 66.8564Z" stroke="black" stroke-width="0.707224"/>
<defs>
<linearGradient id="paint0_linear_1_7359" x1="144.316" y1="244.275" x2="128.519" y2="244.478" gradientUnits="userSpaceOnUse">
<stop/>
<stop offset="0.894069"/>
</linearGradient>
<linearGradient id="paint1_linear_1_7359" x1="146.846" y1="227.416" x2="128.114" y2="231.637" gradientUnits="userSpaceOnUse">
<stop/>
<stop offset="0.894069"/>
</linearGradient>
<linearGradient id="paint2_linear_1_7359" x1="81.1493" y1="249.761" x2="96.9461" y2="249.964" gradientUnits="userSpaceOnUse">
<stop/>
<stop offset="0.894069"/>
</linearGradient>
<linearGradient id="paint3_linear_1_7359" x1="78.8672" y1="230.661" x2="97.9587" y2="234.963" gradientUnits="userSpaceOnUse">
<stop/>
<stop offset="0.894069"/>
</linearGradient>
<linearGradient id="paint4_linear_1_7359" x1="27.8635" y1="132.691" x2="211.288" y2="132.691" gradientUnits="userSpaceOnUse">
<stop/>
<stop offset="0.894069"/>
</linearGradient>
<linearGradient id="paint5_linear_1_7359" x1="31.5898" y1="151.717" x2="206.486" y2="151.717" gradientUnits="userSpaceOnUse">
<stop/>
<stop offset="0.894069"/>
</linearGradient>
<linearGradient id="paint6_linear_1_7359" x1="41.8081" y1="149.955" x2="191.914" y2="149.955" gradientUnits="userSpaceOnUse">
<stop/>
<stop offset="0.894069"/>
</linearGradient>
<linearGradient id="paint7_linear_1_7359" x1="32.7241" y1="114.229" x2="205.029" y2="114.229" gradientUnits="userSpaceOnUse">
<stop/>
<stop offset="0.894069"/>
</linearGradient>
<linearGradient id="paint8_linear_1_7359" x1="176.596" y1="89.6002" x2="189.788" y2="89.6002" gradientUnits="userSpaceOnUse">
<stop/>
<stop offset="0.894069"/>
</linearGradient>
<linearGradient id="paint9_linear_1_7359" x1="180.332" y1="92.2219" x2="185.952" y2="86.2162" gradientUnits="userSpaceOnUse">
<stop/>
<stop offset="0.894069"/>
</linearGradient>
<linearGradient id="paint10_linear_1_7359" x1="179.553" y1="87.0715" x2="185.174" y2="93.0772" gradientUnits="userSpaceOnUse">
<stop/>
<stop offset="0.894069"/>
</linearGradient>
<linearGradient id="paint11_linear_1_7359" x1="34.2261" y1="88.939" x2="48.0995" y2="88.939" gradientUnits="userSpaceOnUse">
<stop/>
<stop offset="0.894069"/>
</linearGradient>
<linearGradient id="paint12_linear_1_7359" x1="38.1245" y1="91.6847" x2="44.0358" y2="85.3684" gradientUnits="userSpaceOnUse">
<stop/>
<stop offset="0.894069"/>
</linearGradient>
<linearGradient id="paint13_linear_1_7359" x1="37.3457" y1="86.2609" x2="43.257" y2="92.5773" gradientUnits="userSpaceOnUse">
<stop/>
<stop offset="0.894069"/>
</linearGradient>
<linearGradient id="paint14_linear_1_7359" x1="32.9275" y1="176.795" x2="205.017" y2="176.795" gradientUnits="userSpaceOnUse">
<stop/>
<stop offset="0.894069"/>
</linearGradient>
<linearGradient id="paint15_linear_1_7359" x1="0" y1="5.95535" x2="13.0449" y2="5.95535" gradientUnits="userSpaceOnUse">
<stop/>
<stop offset="0.894069"/>
</linearGradient>
<linearGradient id="paint16_linear_1_7359" x1="180.773" y1="202.915" x2="186.332" y2="208.854" gradientUnits="userSpaceOnUse">
<stop/>
<stop offset="0.894069"/>
</linearGradient>
<linearGradient id="paint17_linear_1_7359" x1="179.995" y1="208.013" x2="185.553" y2="202.073" gradientUnits="userSpaceOnUse">
<stop/>
<stop offset="0.894069"/>
</linearGradient>
<linearGradient id="paint18_linear_1_7359" x1="0" y1="6.26684" x2="13.7273" y2="6.26684" gradientUnits="userSpaceOnUse">
<stop/>
<stop offset="0.894069"/>
</linearGradient>
<linearGradient id="paint19_linear_1_7359" x1="38.1448" y1="203.077" x2="43.9938" y2="209.327" gradientUnits="userSpaceOnUse">
<stop/>
<stop offset="0.894069"/>
</linearGradient>
<linearGradient id="paint20_linear_1_7359" x1="37.366" y1="208.436" x2="43.215" y2="202.187" gradientUnits="userSpaceOnUse">
<stop/>
<stop offset="0.894069"/>
</linearGradient>
<linearGradient id="paint21_linear_1_7359" x1="78.6685" y1="147.659" x2="148.186" y2="147.659" gradientUnits="userSpaceOnUse">
<stop/>
<stop offset="0.894069"/>
</linearGradient>
<linearGradient id="paint22_linear_1_7359" x1="60.6426" y1="148.776" x2="169.569" y2="148.776" gradientUnits="userSpaceOnUse">
<stop/>
<stop offset="0.894069"/>
</linearGradient>
<linearGradient id="paint23_linear_1_7359" x1="93.2585" y1="146.741" x2="130.896" y2="146.741" gradientUnits="userSpaceOnUse">
<stop/>
<stop offset="0.894069"/>
</linearGradient>
<linearGradient id="paint24_linear_1_7359" x1="244.804" y1="38.2578" x2="244.804" y2="98.835" gradientUnits="userSpaceOnUse">
<stop stop-color="#F0F0F0"/>
</linearGradient>
</defs>
</svg>
