<svg width="40" height="40" viewBox="0 0 40 40" fill="none" xmlns="http://www.w3.org/2000/svg">
<g clip-path="url(#clip0_1_7498)">
<path d="M6.17031 33.491H12.1858V15.4184H6.17031V33.491ZM12.5765 9.84554C12.5591 8.94278 12.2466 8.19627 11.639 7.606C11.0313 7.01573 10.2241 6.72059 9.21714 6.72059C8.21021 6.72059 7.38991 7.01573 6.75624 7.606C6.12257 8.19627 5.80573 8.94278 5.80573 9.84554C5.80573 10.7309 6.11389 11.4731 6.7302 12.0721C7.34651 12.671 8.14945 12.9705 9.13901 12.9705H9.16505C10.1893 12.9705 11.014 12.671 11.639 12.0721C12.264 11.4731 12.5765 10.7309 12.5765 9.84554ZM27.8106 33.491H33.8261V23.1266C33.8261 20.453 33.1924 18.4305 31.9251 17.059C30.6578 15.6875 28.9824 15.0017 26.8991 15.0017C24.5381 15.0017 22.7239 16.0173 21.4565 18.0485H21.5086V15.4184H15.4931C15.5452 16.5642 15.5452 22.5884 15.4931 33.491H21.5086V23.387C21.5086 22.7273 21.5694 22.2412 21.6909 21.9287C21.9513 21.3211 22.3419 20.8046 22.8627 20.3792C23.3836 19.9539 24.0259 19.7412 24.7898 19.7412C26.8037 19.7412 27.8106 21.104 27.8106 23.8297V33.491ZM39.9979 7.50183V32.5014C39.9979 34.5674 39.2644 36.3338 37.7974 37.8008C36.3304 39.2678 34.5639 40.0013 32.498 40.0013H7.49841C5.43248 40.0013 3.66601 39.2678 2.19902 37.8008C0.73203 36.3338 -0.00146484 34.5674 -0.00146484 32.5014V7.50183C-0.00146484 5.43589 0.73203 3.66943 2.19902 2.20244C3.66601 0.735448 5.43248 0.00195312 7.49841 0.00195312H32.498C34.5639 0.00195312 36.3304 0.735448 37.7974 2.20244C39.2644 3.66943 39.9979 5.43589 39.9979 7.50183Z" fill="black"/>
</g>
<defs>
<clipPath id="clip0_1_7498">
<rect width="39.9994" height="39.9994" fill="white"/>
</clipPath>
</defs>
</svg>
