<svg width="75" height="75" viewBox="0 0 75 75" fill="none" xmlns="http://www.w3.org/2000/svg">
<path d="M54.7468 18.7423C53.9658 17.9613 52.6994 17.9613 51.9184 18.7423L30.7988 39.862C30.0177 40.6431 28.7514 40.6431 27.9703 39.862L23.0318 34.9235C22.2508 34.1424 20.9844 34.1424 20.2034 34.9235L15.4142 39.7126C14.6332 40.4937 14.6332 41.76 15.4142 42.5411L21.7669 48.8938L28.0201 55.147C28.8011 55.9281 30.0675 55.9281 30.8485 55.147L37.0519 48.9436L59.5858 26.4098C60.3668 25.6287 60.3668 24.3624 59.5858 23.5813L54.7468 18.7423Z" fill="#373737"/>
<rect x="1.5" y="1.5" width="72" height="72" rx="8.5" stroke="url(#paint0_linear_1_7636)" stroke-width="3"/>
<defs>
<linearGradient id="paint0_linear_1_7636" x1="38" y1="18.5" x2="1.68453e-06" y2="81.5" gradientUnits="userSpaceOnUse">
<stop stop-color="#6A24FE"/>
<stop offset="1" stop-color="#4E7D5C"/>
</linearGradient>
</defs>
</svg>
