<svg width="75" height="75" viewBox="0 0 75 75" fill="none" xmlns="http://www.w3.org/2000/svg">
<path fill-rule="evenodd" clip-rule="evenodd" d="M22.4993 22.9459C22.4994 21.2665 22.9855 19.6229 23.899 18.2137C24.8126 16.8044 26.1145 15.6897 27.6476 15.0041C29.1808 14.3185 30.8796 14.0913 32.539 14.3499C34.1984 14.6085 35.7475 15.3419 36.9993 16.4615C38.4389 15.1713 40.2671 14.3973 42.1954 14.2617C44.1238 14.126 46.0424 14.6365 47.6483 15.7125C49.2543 16.7884 50.4562 18.3686 51.0643 20.2036C51.6723 22.0386 51.652 24.0238 51.0063 25.8459H54.3993C55.9376 25.8459 57.4128 26.457 58.5005 27.5447C59.5882 28.6324 60.1993 30.1077 60.1993 31.6459C60.1993 33.1842 59.5882 34.6594 58.5005 35.7472C57.4128 36.8349 55.9376 37.4459 54.3993 37.4459H39.8993V34.5459C39.8993 33.7768 39.5938 33.0392 39.0499 32.4953C38.5061 31.9515 37.7684 31.6459 36.9993 31.6459C36.2302 31.6459 35.4926 31.9515 34.9487 32.4953C34.4049 33.0392 34.0993 33.7768 34.0993 34.5459V37.4459H19.5993C18.0611 37.4459 16.5858 36.8349 15.4981 35.7472C14.4104 34.6594 13.7993 33.1842 13.7993 31.6459C13.7993 30.1077 14.4104 28.6324 15.4981 27.5447C16.5858 26.457 18.0611 25.8459 19.5993 25.8459H22.9923C22.6733 24.9382 22.4993 23.9609 22.4993 22.9459ZM34.0993 25.8459V22.9459C34.0993 22.3724 33.9292 21.8117 33.6106 21.3348C33.2919 20.8579 32.839 20.4862 32.3091 20.2667C31.7792 20.0472 31.1961 19.9898 30.6336 20.1017C30.071 20.2136 29.5543 20.4898 29.1487 20.8953C28.7431 21.3009 28.4669 21.8176 28.355 22.3802C28.2431 22.9427 28.3006 23.5258 28.5201 24.0557C28.7396 24.5856 29.1113 25.0385 29.5882 25.3572C30.0651 25.6759 30.6258 25.8459 31.1993 25.8459H34.0993ZM42.7993 25.8459C43.3729 25.8459 43.9336 25.6759 44.4105 25.3572C44.8874 25.0385 45.2591 24.5856 45.4786 24.0557C45.6981 23.5258 45.7555 22.9427 45.6436 22.3802C45.5317 21.8176 45.2555 21.3009 44.8499 20.8953C44.4444 20.4898 43.9276 20.2136 43.3651 20.1017C42.8025 19.9898 42.2194 20.0472 41.6895 20.2667C41.1596 20.4862 40.7067 20.8579 40.3881 21.3348C40.0694 21.8117 39.8993 22.3724 39.8993 22.9459V25.8459H42.7993Z" fill="#373737"/>
<path d="M34.0992 40.3457H16.6992V54.8457C16.6992 56.384 17.3103 57.8592 18.398 58.9469C19.4857 60.0346 20.961 60.6457 22.4992 60.6457H34.0992V40.3457ZM39.8992 60.6457H51.4992C53.0375 60.6457 54.5127 60.0346 55.6004 58.9469C56.6881 57.8592 57.2992 56.384 57.2992 54.8457V40.3457H39.8992V60.6457Z" fill="#373737"/>
<rect x="1.5" y="1.5" width="72" height="72" rx="8.5" stroke="url(#paint0_linear_1_7620)" stroke-width="3"/>
<defs>
<linearGradient id="paint0_linear_1_7620" x1="38" y1="-1.46896e-06" x2="99" y2="148.5" gradientUnits="userSpaceOnUse">
<stop stop-color="#4E7D5C"/>
<stop offset="1" stop-color="#0500FA"/>
</linearGradient>
</defs>
</svg>
