<svg width="75" height="75" viewBox="0 0 75 75" fill="none" xmlns="http://www.w3.org/2000/svg">
<path d="M48.25 50.9453C45.7525 50.9453 43.75 52.9478 43.75 55.4453C43.75 56.6388 44.2241 57.7834 45.068 58.6273C45.9119 59.4712 47.0565 59.9453 48.25 59.9453C49.4435 59.9453 50.5881 59.4712 51.432 58.6273C52.2759 57.7834 52.75 56.6388 52.75 55.4453C52.75 54.2518 52.2759 53.1072 51.432 52.2633C50.5881 51.4194 49.4435 50.9453 48.25 50.9453ZM12.25 14.9453V19.4453H16.75L24.85 36.5228L21.79 42.0353C21.4525 42.6653 21.25 43.4078 21.25 44.1953C21.25 45.3888 21.7241 46.5334 22.568 47.3773C23.4119 48.2212 24.5565 48.6953 25.75 48.6953H52.75V44.1953H26.695C26.5458 44.1953 26.4027 44.136 26.2973 44.0306C26.1918 43.9251 26.1325 43.782 26.1325 43.6328C26.1325 43.5203 26.155 43.4303 26.2 43.3628L28.225 39.6953H44.9875C46.675 39.6953 48.16 38.7503 48.925 37.3778L56.98 22.8203C57.1375 22.4603 57.25 22.0778 57.25 21.6953C57.25 21.0986 57.0129 20.5263 56.591 20.1043C56.169 19.6824 55.5967 19.4453 55 19.4453H21.7225L19.6075 14.9453M25.75 50.9453C23.2525 50.9453 21.25 52.9478 21.25 55.4453C21.25 56.6388 21.7241 57.7834 22.568 58.6273C23.4119 59.4712 24.5565 59.9453 25.75 59.9453C26.9435 59.9453 28.0881 59.4712 28.932 58.6273C29.7759 57.7834 30.25 56.6388 30.25 55.4453C30.25 54.2518 29.7759 53.1072 28.932 52.2633C28.0881 51.4194 26.9435 50.9453 25.75 50.9453Z" fill="#373737"/>
<rect x="1.5" y="1.5" width="72" height="72" rx="8.5" stroke="url(#paint0_linear_1_7629)" stroke-width="3"/>
<defs>
<linearGradient id="paint0_linear_1_7629" x1="86.5" y1="-15" x2="5" y2="80" gradientUnits="userSpaceOnUse">
<stop stop-color="#FEAB00"/>
<stop offset="1" stop-color="#0082FA"/>
</linearGradient>
</defs>
</svg>
