<svg width="75" height="75" viewBox="0 0 75 75" fill="none" xmlns="http://www.w3.org/2000/svg">
<rect x="14.25" y="13.6953" width="46.5" height="46.5" rx="23.25" fill="#373737"/>
<path fill-rule="evenodd" clip-rule="evenodd" d="M25.0138 40.4157L30.3702 24.62C30.4056 24.5156 30.4987 24.4453 30.609 24.4453L45.5043 24.4453C47.0221 24.4453 48.3837 25.6593 48.3084 27.1051C48.0913 31.2727 45.8645 35.5846 41.0282 35.5846C41.0282 35.5846 46.379 43.9411 49.3658 48.962C49.4676 49.1332 49.3431 49.348 49.1439 49.348L43.1318 49.348C43.0399 49.348 42.955 49.299 42.909 49.2194L35.1828 35.8418C35.0909 35.6827 34.921 35.5846 34.7372 35.5846H33.0007C32.7851 35.5846 32.5923 35.7191 32.5178 35.9214L30.8001 40.5872C30.7629 40.6883 30.6665 40.7556 30.5587 40.7556H25.2575C25.0813 40.7556 24.9573 40.5825 25.0138 40.4157ZM33.3204 29.0195C33.804 29.4431 34.3601 29.9301 34.3739 30.0906C34.3986 30.3772 34.1383 30.9406 33.9682 31.3086C33.8729 31.515 33.8059 31.6599 33.8337 31.6599C33.8398 31.6599 33.8909 31.6601 33.9798 31.6605C35.0044 31.6656 41.0531 31.6955 41.2425 31.6498C41.8084 31.5132 42.8218 28.753 42.3486 28.4855C41.9628 28.2674 32.8047 28.2685 32.6246 28.3155C32.5413 28.3372 32.904 28.6548 33.3204 29.0195Z" fill="#EBFAFF"/>
<rect x="14.25" y="13.6953" width="46.5" height="46.5" rx="23.25" stroke="black" stroke-width="0.5"/>
<circle cx="37.5" cy="36.9453" r="22" stroke="white"/>
<rect x="1.5" y="1.5" width="72" height="72" rx="8.5" stroke="url(#paint0_linear_1_7609)" stroke-width="3"/>
<defs>
<linearGradient id="paint0_linear_1_7609" x1="6.5" y1="-5.47369e-07" x2="75" y2="88" gradientUnits="userSpaceOnUse">
<stop stop-color="#B276FF"/>
<stop offset="1" stop-color="#FEAB00"/>
</linearGradient>
</defs>
</svg>
