<svg width="40" height="40" viewBox="0 0 40 40" fill="none" xmlns="http://www.w3.org/2000/svg">
<g clip-path="url(#clip0_1_7504)">
<path d="M19.9985 0C31.0443 0 39.9981 8.95385 39.9981 19.9997C39.9981 31.0455 31.0443 39.9993 19.9985 39.9993C16.4641 40.005 12.9919 39.0697 9.93864 37.2894L0.0068073 39.9993L2.71076 30.0635C0.928978 27.0093 -0.00709736 23.5356 -0.00119294 19.9997C-0.00119294 8.95385 8.95266 0 19.9985 0ZM13.1826 10.5998L12.7826 10.6158C12.5236 10.6316 12.2706 10.6996 12.0386 10.8158C11.8217 10.9387 11.6236 11.0923 11.4506 11.2718C11.2106 11.4978 11.0746 11.6938 10.9286 11.8838C10.1889 12.8456 9.79059 14.0264 9.79664 15.2397C9.80064 16.2197 10.0566 17.1737 10.4566 18.0657C11.2746 19.8697 12.6206 21.7796 14.3966 23.5496C14.8246 23.9756 15.2446 24.4036 15.6965 24.8016C17.9033 26.7445 20.533 28.1456 23.3764 28.8935L24.5124 29.0675C24.8824 29.0875 25.2524 29.0595 25.6244 29.0415C26.2068 29.0114 26.7756 28.8537 27.2903 28.5795C27.5523 28.4446 27.8079 28.2978 28.0563 28.1395C28.0563 28.1395 28.1423 28.0835 28.3063 27.9595C28.5763 27.7595 28.7423 27.6175 28.9663 27.3835C29.1323 27.2115 29.2763 27.0095 29.3863 26.7796C29.5423 26.4536 29.6983 25.8316 29.7623 25.3136C29.8103 24.9176 29.7963 24.7016 29.7903 24.5676C29.7823 24.3536 29.6043 24.1316 29.4103 24.0376L28.2463 23.5156C28.2463 23.5156 26.5064 22.7576 25.4424 22.2736C25.331 22.225 25.2117 22.1972 25.0904 22.1916C24.9535 22.1776 24.8153 22.193 24.6849 22.2368C24.5545 22.2806 24.435 22.3518 24.3344 22.4456C24.3244 22.4416 24.1904 22.5556 22.7444 24.3076C22.6614 24.4191 22.5471 24.5034 22.416 24.5497C22.285 24.596 22.1431 24.6022 22.0084 24.5676C21.8782 24.5327 21.7505 24.4885 21.6264 24.4356C21.3784 24.3316 21.2924 24.2916 21.1225 24.2196C19.9746 23.7187 18.9119 23.0419 17.9725 22.2136C17.7205 21.9936 17.4865 21.7536 17.2465 21.5216C16.4597 20.7681 15.774 19.9157 15.2066 18.9857L15.0886 18.7957C15.0038 18.668 14.9353 18.5303 14.8846 18.3857C14.8086 18.0917 15.0066 17.8557 15.0066 17.8557C15.0066 17.8557 15.4925 17.3237 15.7185 17.0357C15.9385 16.7557 16.1245 16.4837 16.2445 16.2897C16.4805 15.9097 16.5545 15.5197 16.4305 15.2177C15.8705 13.8498 15.2906 12.4878 14.6946 11.1358C14.5766 10.8678 14.2266 10.6758 13.9086 10.6378C13.8006 10.6258 13.6926 10.6138 13.5846 10.6058C13.316 10.5925 13.0469 10.5951 12.7786 10.6138L13.1806 10.5978L13.1826 10.5998Z" fill="black"/>
</g>
<defs>
<clipPath id="clip0_1_7504">
<rect width="39.9994" height="39.9994" fill="white"/>
</clipPath>
</defs>
</svg>
