<svg width="40" height="40" viewBox="0 0 40 40" fill="none" xmlns="http://www.w3.org/2000/svg">
<g clip-path="url(#clip0_1_7502)">
<path d="M22.0542 0.00441379C23.5136 -0.00118637 24.9729 0.0134811 26.4319 0.0484117L26.8199 0.062411C27.2679 0.0784102 27.7098 0.0984091 28.2438 0.122408C30.3716 0.222403 31.8235 0.558386 33.0975 1.05236C34.4174 1.56034 35.5293 2.2483 36.6412 3.36025C37.6579 4.35941 38.4448 5.56803 38.9471 6.90207C39.441 8.176 39.777 9.62993 39.877 11.7578C39.901 12.2898 39.921 12.7338 39.937 13.1818L39.949 13.5697C39.9845 15.028 39.9999 16.4868 39.995 17.9455L39.997 19.4374V22.0573C40.0019 23.5167 39.9866 24.9761 39.951 26.4351L39.939 26.8231C39.923 27.271 39.903 27.713 39.879 28.247C39.779 30.3749 39.439 31.8268 38.9471 33.1008C38.4464 34.4362 37.6593 35.6458 36.6412 36.6446C35.6412 37.6612 34.432 38.448 33.0975 38.9505C31.8235 39.4444 30.3716 39.7804 28.2438 39.8804C27.7098 39.9044 27.2679 39.9244 26.8199 39.9404L26.4319 39.9524C24.973 39.988 23.5136 40.0033 22.0542 39.9984L20.5623 40.0004H17.9445C16.4851 40.0053 15.0257 39.99 13.5668 39.9544L13.1788 39.9424C12.7041 39.9252 12.2294 39.9052 11.7549 39.8824C9.62704 39.7824 8.17514 39.4424 6.89922 38.9505C5.56468 38.4492 4.35587 37.6622 3.35746 36.6446C2.33962 35.6452 1.55203 34.4358 1.04962 33.1008C0.555652 31.8268 0.219674 30.3749 0.119681 28.247C0.0974082 27.7725 0.0774094 27.2978 0.059685 26.8231L0.0496859 26.4351C0.0128156 24.9761 -0.00385178 23.5167 -0.00031092 22.0573V17.9455C-0.00589248 16.4868 0.00877476 15.0281 0.0436863 13.5697L0.0576853 13.1818C0.0736842 12.7338 0.0936828 12.2898 0.117681 11.7578C0.217674 9.62793 0.553652 8.178 1.04762 6.90207C1.55033 5.56737 2.33946 4.35909 3.35946 3.36225C4.35718 2.3438 5.56524 1.55548 6.89922 1.05236C8.17514 0.558386 9.62504 0.222403 11.7549 0.122408L13.1788 0.062411L13.5668 0.0524117C15.025 0.0155592 16.4838 -0.00110842 17.9425 0.00241404L22.0542 0.00441379ZM19.9983 10.0039C18.6734 9.98517 17.358 10.2299 16.1286 10.724C14.8991 11.2181 13.7801 11.9516 12.8365 12.8819C11.893 13.8122 11.1437 14.9207 10.6323 16.1431C10.121 17.3655 9.85761 18.6774 9.85761 20.0024C9.85761 21.3275 10.121 22.6393 10.6323 23.8617C11.1437 25.0841 11.893 26.1926 12.8365 27.1229C13.7801 28.0532 14.8991 28.7867 16.1286 29.2808C17.358 29.7749 18.6734 30.0196 19.9983 30.0009C22.6503 30.0009 25.1937 28.9474 27.0689 27.0721C28.9442 25.1969 29.9977 22.6534 29.9977 20.0014C29.9977 17.3494 28.9442 14.806 27.0689 12.9307C25.1937 11.0554 22.6503 10.0039 19.9983 10.0039ZM19.9983 14.0037C20.7953 13.989 21.5872 14.1333 22.3278 14.4281C23.0684 14.7229 23.7428 15.1623 24.3116 15.7207C24.8805 16.2791 25.3323 16.9452 25.6408 17.6802C25.9494 18.4152 26.1083 19.2043 26.1085 20.0014C26.1086 20.7985 25.9499 21.5876 25.6416 22.3227C25.3334 23.0578 24.8817 23.7241 24.313 24.2827C23.7444 24.8412 23.0701 25.2809 22.3296 25.5759C21.5892 25.871 20.7973 26.0155 20.0003 26.0011C18.4091 26.0011 16.8831 25.369 15.758 24.2438C14.6328 23.1187 14.0007 21.5926 14.0007 20.0014C14.0007 18.4102 14.6328 16.8841 15.758 15.759C16.8831 14.6338 18.4091 14.0017 20.0003 14.0017L19.9983 14.0037ZM30.4976 7.00406C29.8525 7.02989 29.2423 7.30435 28.795 7.76997C28.3476 8.23559 28.0978 8.85624 28.0978 9.50194C28.0978 10.1476 28.3476 10.7683 28.795 11.2339C29.2423 11.6995 29.8525 11.974 30.4976 11.9998C31.1606 11.9998 31.7965 11.7364 32.2653 11.2676C32.7341 10.7988 32.9975 10.1629 32.9975 9.49994C32.9975 8.83693 32.7341 8.20108 32.2653 7.73226C31.7965 7.26344 31.1606 7.00006 30.4976 7.00006V7.00406Z" fill="black"/>
</g>
<defs>
<clipPath id="clip0_1_7502">
<rect width="39.9994" height="39.9994" fill="white" transform="translate(-0.00390625)"/>
</clipPath>
</defs>
</svg>
