<svg width="40" height="40" viewBox="0 0 40 40" fill="none" xmlns="http://www.w3.org/2000/svg">
<g clip-path="url(#clip0_1_7506)">
<path d="M19.995 0C8.95522 0 -0.00463867 8.95984 -0.00463867 19.9996C-0.00463867 31.0395 8.95522 39.9993 19.995 39.9993C31.0349 39.9993 39.9947 31.0395 39.9947 19.9996C39.9947 8.95984 31.0349 0 19.995 0ZM29.2749 13.5998C28.9749 16.7597 27.6749 24.4396 27.0149 27.9795C26.7349 29.4795 26.1749 29.9795 25.6549 30.0395C24.495 30.1395 23.615 29.2795 22.495 28.5395C20.735 27.3795 19.735 26.6595 18.0351 25.5396C16.0551 24.2396 17.3351 23.5196 18.4751 22.3596C18.7751 22.0596 23.895 17.3997 23.995 16.9797C24.0089 16.9161 24.007 16.85 23.9896 16.7873C23.9722 16.7246 23.9397 16.667 23.895 16.6197C23.775 16.5197 23.615 16.5597 23.475 16.5797C23.295 16.6197 20.495 18.4797 15.0351 22.1596C14.2351 22.6996 13.5151 22.9796 12.8752 22.9596C12.1552 22.9396 10.7952 22.5596 9.7752 22.2196C8.51522 21.8196 7.53524 21.5996 7.61524 20.8996C7.65524 20.5396 8.15523 20.1796 9.09521 19.7997C14.9351 17.2597 18.8151 15.5797 20.755 14.7797C26.3149 12.4598 27.4549 12.0598 28.2149 12.0598C28.3749 12.0598 28.7549 12.0998 28.9949 12.2998C29.1949 12.4598 29.2549 12.6798 29.2749 12.8398C29.2549 12.9598 29.2949 13.3198 29.2749 13.5998Z" fill="black"/>
</g>
<defs>
<clipPath id="clip0_1_7506">
<rect width="39.9994" height="39.9993" fill="white"/>
</clipPath>
</defs>
</svg>
