<svg width="40" height="40" viewBox="0 0 40 40" fill="none" xmlns="http://www.w3.org/2000/svg">
<g clip-path="url(#clip0_1_7500)">
<path d="M23.9265 30.6004V26.5119C23.9265 25.6439 23.6748 25.2099 23.1713 25.2099C22.8762 25.2099 22.5898 25.3488 22.312 25.6265V31.4598C22.5898 31.7376 22.8762 31.8764 23.1713 31.8764C23.6748 31.8764 23.9265 31.4511 23.9265 30.6004ZM28.7181 27.4234H30.4368V26.538C30.4368 25.6526 30.1504 25.2099 29.5775 25.2099C29.0046 25.2099 28.7181 25.6526 28.7181 26.538V27.4234ZM13.8486 20.4964V22.3193H11.7653V33.3347H9.83822V22.3193H7.807V20.4964H13.8486ZM19.0829 23.7776V33.3347H17.3381V32.2931C16.661 33.0743 16.0013 33.465 15.359 33.465C14.7861 33.465 14.4215 33.2219 14.2652 32.7358C14.1611 32.4407 14.109 31.9719 14.109 31.3296V23.7776H15.8277V30.8087C15.8277 31.2254 15.8364 31.4511 15.8537 31.4858C15.8711 31.7462 16.0013 31.8764 16.2444 31.8764C16.5916 31.8764 16.9562 31.6073 17.3381 31.0692V23.7776H19.0829ZM25.6453 26.6682V30.4702C25.6453 31.373 25.5845 32.0066 25.463 32.3712C25.2546 33.1004 24.7946 33.465 24.0828 33.465C23.4752 33.465 22.8849 33.1091 22.312 32.3973V33.3347H20.5672V20.4964H22.312V24.6891C22.8675 23.9946 23.4578 23.6474 24.0828 23.6474C24.7946 23.6474 25.2546 24.012 25.463 24.7411C25.5845 25.1057 25.6453 25.7481 25.6453 26.6682ZM32.1816 30.0275V30.2619C32.1816 30.7653 32.1642 31.1386 32.1295 31.3817C32.0774 31.7636 31.9472 32.1108 31.7389 32.4233C31.2702 33.1177 30.5757 33.465 29.6556 33.465C28.7528 33.465 28.0497 33.1351 27.5463 32.4754C27.1817 32.0066 26.9994 31.2601 26.9994 30.2358V26.8765C26.9994 25.8522 27.173 25.1057 27.5202 24.637C28.0237 23.9773 28.7181 23.6474 29.6035 23.6474C30.4889 23.6474 31.166 23.9773 31.6347 24.637C31.9993 25.1404 32.1816 25.887 32.1816 26.8765V28.8557H28.7181V30.5483C28.7181 31.4337 29.0133 31.8764 29.6035 31.8764C30.0202 31.8764 30.2806 31.6507 30.3848 31.1994C30.3848 31.182 30.3891 31.1212 30.3978 31.0171C30.4065 30.9129 30.4108 30.7697 30.4108 30.5874V30.0275H32.1816ZM20.437 8.56952V12.632C20.437 13.5174 20.1592 13.9601 19.6037 13.9601C19.0481 13.9601 18.7704 13.5174 18.7704 12.632V8.56952C18.7704 7.66676 19.0481 7.21538 19.6037 7.21538C20.1592 7.21538 20.437 7.66676 20.437 8.56952ZM34.317 27.1369C34.317 24.0641 34.1521 21.8072 33.8222 20.3662C33.6486 19.6023 33.2753 18.9643 32.7024 18.4522C32.1295 17.94 31.4698 17.6406 30.7233 17.5538C28.3622 17.2933 24.7859 17.1631 19.9943 17.1631C15.2201 17.1631 11.6524 17.2933 9.29135 17.5538C8.52748 17.6406 7.86343 17.94 7.2992 18.4522C6.73497 18.9643 6.36605 19.6023 6.19245 20.3662C5.84523 21.8766 5.67162 24.1335 5.67162 27.1369C5.67162 30.1924 5.84523 32.4493 6.19245 33.9077C6.36605 34.6542 6.73497 35.2878 7.2992 35.8087C7.86343 36.3295 8.5188 36.6333 9.26531 36.7201C11.6437 36.9805 15.2201 37.1107 19.9943 37.1107C24.7685 37.1107 28.3449 36.9805 30.7233 36.7201C31.4698 36.6333 32.1252 36.3295 32.6894 35.8087C33.2536 35.2878 33.6226 34.6542 33.7962 33.9077C34.1434 32.4493 34.317 30.1924 34.317 27.1369ZM14.6559 10.1841L16.9996 2.47587H15.0465L13.7184 7.55391L12.3382 2.47587H10.307C10.4285 2.87517 10.6281 3.47412 10.9059 4.27272L11.5309 6.06956C12.1385 7.85773 12.5378 9.22923 12.7288 10.1841V15.4184H14.6559V10.1841ZM22.1818 12.2934V8.90806C22.1818 7.90113 21.9995 7.14594 21.6349 6.64247C21.1314 5.98276 20.4544 5.6529 19.6037 5.6529C18.7183 5.6529 18.0412 5.98276 17.5725 6.64247C17.2079 7.14594 17.0256 7.90113 17.0256 8.90806V12.2934C17.0256 13.3004 17.2079 14.0555 17.5725 14.559C18.0412 15.2187 18.7183 15.5486 19.6037 15.5486C20.4544 15.5486 21.1314 15.2187 21.6349 14.559C21.9995 14.0903 22.1818 13.3351 22.1818 12.2934ZM26.8952 15.4184H28.64V5.78311H26.8952V13.1528C26.5133 13.691 26.1487 13.9601 25.8015 13.9601C25.5411 13.9601 25.4022 13.8212 25.3848 13.5434C25.3675 13.5087 25.3588 13.283 25.3588 12.8663V5.78311H23.614V13.4132C23.614 14.0555 23.6661 14.533 23.7703 14.8455C23.9613 15.3142 24.3345 15.5486 24.8901 15.5486C25.5151 15.5486 26.1834 15.158 26.8952 14.3767V15.4184ZM39.994 7.50183V32.5014C39.994 34.5674 39.2605 36.3338 37.7935 37.8008C36.3265 39.2678 34.56 40.0013 32.4941 40.0013H7.49451C5.42857 40.0013 3.6621 39.2678 2.19511 37.8008C0.728124 36.3338 -0.00537109 34.5674 -0.00537109 32.5014V7.50183C-0.00537109 5.43589 0.728124 3.66943 2.19511 2.20244C3.6621 0.735448 5.42857 0.00195312 7.49451 0.00195312H32.4941C34.56 0.00195312 36.3265 0.735448 37.7935 2.20244C39.2605 3.66943 39.994 5.43589 39.994 7.50183Z" fill="black"/>
</g>
<defs>
<clipPath id="clip0_1_7500">
<rect width="39.9994" height="39.9994" fill="white" transform="translate(-0.00390625)"/>
</clipPath>
</defs>
</svg>
