<svg width="296" height="57" viewBox="0 0 296 57" fill="none" xmlns="http://www.w3.org/2000/svg">
<path d="M20.6445 32.4651H7.09881L7.02637 25.0041H18.399C20.403 25.0041 22.0449 24.7506 23.3247 24.2435C24.6044 23.7123 25.5581 22.9517 26.1859 21.9618C26.8378 20.9476 27.1638 19.7162 27.1638 18.2675C27.1638 16.6256 26.8499 15.2976 26.2221 14.2835C25.6185 13.2693 24.6647 12.5329 23.3609 12.0741C22.0812 11.6154 20.4272 11.386 18.399 11.386H10.8655V55.6087H0V2.87465H18.399C21.4654 2.87465 24.206 3.1644 26.6205 3.7439C29.0592 4.32339 31.1237 5.2047 32.8139 6.38784C34.5041 7.57097 35.7959 9.068 36.6892 10.8789C37.5826 12.6657 38.0293 14.7905 38.0293 17.2534C38.0293 19.4265 37.5343 21.4305 36.5444 23.2656C35.5785 25.1007 34.0453 26.5977 31.9446 27.7567C29.8681 28.9157 27.1517 29.5555 23.7955 29.6763L20.6445 32.4651ZM20.1737 55.6087H4.1289L8.36645 47.1335H20.1737C22.0812 47.1335 23.6385 46.8317 24.8458 46.2281C26.0531 45.6003 26.9465 44.7552 27.526 43.6928C28.1055 42.6304 28.3952 41.411 28.3952 40.0347C28.3952 38.4894 28.1296 37.1493 27.5984 36.0145C27.0914 34.8797 26.2704 34.0104 25.1356 33.4068C24.0007 32.779 22.5037 32.4651 20.6445 32.4651H10.1774L10.2498 25.0041H23.2884L25.7875 27.9378C28.9989 27.8895 31.5825 28.4569 33.5382 29.6401C35.5182 30.799 36.9548 32.3081 37.8482 34.1674C38.7658 36.0266 39.2245 38.0186 39.2245 40.1434C39.2245 43.5238 38.4881 46.373 37.0152 48.6909C35.5423 50.9848 33.3813 52.7112 30.5321 53.8702C27.7071 55.0292 24.2543 55.6087 20.1737 55.6087Z" fill="black"/>
<path d="M20.6445 32.4651H7.09881L7.02637 25.0041H18.399C20.403 25.0041 22.0449 24.7506 23.3247 24.2435C24.6044 23.7123 25.5581 22.9517 26.1859 21.9618C26.8378 20.9476 27.1638 19.7162 27.1638 18.2675C27.1638 16.6256 26.8499 15.2976 26.2221 14.2835C25.6185 13.2693 24.6647 12.5329 23.3609 12.0741C22.0812 11.6154 20.4272 11.386 18.399 11.386H10.8655V55.6087H0V2.87465H18.399C21.4654 2.87465 24.206 3.1644 26.6205 3.7439C29.0592 4.32339 31.1237 5.2047 32.8139 6.38784C34.5041 7.57097 35.7959 9.068 36.6892 10.8789C37.5826 12.6657 38.0293 14.7905 38.0293 17.2534C38.0293 19.4265 37.5343 21.4305 36.5444 23.2656C35.5785 25.1007 34.0453 26.5977 31.9446 27.7567C29.8681 28.9157 27.1517 29.5555 23.7955 29.6763L20.6445 32.4651ZM20.1737 55.6087H4.1289L8.36645 47.1335H20.1737C22.0812 47.1335 23.6385 46.8317 24.8458 46.2281C26.0531 45.6003 26.9465 44.7552 27.526 43.6928C28.1055 42.6304 28.3952 41.411 28.3952 40.0347C28.3952 38.4894 28.1296 37.1493 27.5984 36.0145C27.0914 34.8797 26.2704 34.0104 25.1356 33.4068C24.0007 32.779 22.5037 32.4651 20.6445 32.4651H10.1774L10.2498 25.0041H23.2884L25.7875 27.9378C28.9989 27.8895 31.5825 28.4569 33.5382 29.6401C35.5182 30.799 36.9548 32.3081 37.8482 34.1674C38.7658 36.0266 39.2245 38.0186 39.2245 40.1434C39.2245 43.5238 38.4881 46.373 37.0152 48.6909C35.5423 50.9848 33.3813 52.7112 30.5321 53.8702C27.7071 55.0292 24.2543 55.6087 20.1737 55.6087Z" fill="url(#paint0_linear_1_7732)"/>
<path d="M56.9904 16.4203V55.6087H46.5233V16.4203H56.9904ZM45.8713 6.20675C45.8713 4.68557 46.4025 3.43 47.4649 2.44003C48.5274 1.45006 49.9519 0.955078 51.7387 0.955078C53.5014 0.955078 54.9139 1.45006 55.9763 2.44003C57.0628 3.43 57.6061 4.68557 57.6061 6.20675C57.6061 7.72792 57.0628 8.98349 55.9763 9.97346C54.9139 10.9634 53.5014 11.4584 51.7387 11.4584C49.9519 11.4584 48.5274 10.9634 47.4649 9.97346C46.4025 8.98349 45.8713 7.72792 45.8713 6.20675Z" fill="black"/>
<path d="M56.9904 16.4203V55.6087H46.5233V16.4203H56.9904ZM45.8713 6.20675C45.8713 4.68557 46.4025 3.43 47.4649 2.44003C48.5274 1.45006 49.9519 0.955078 51.7387 0.955078C53.5014 0.955078 54.9139 1.45006 55.9763 2.44003C57.0628 3.43 57.6061 4.68557 57.6061 6.20675C57.6061 7.72792 57.0628 8.98349 55.9763 9.97346C54.9139 10.9634 53.5014 11.4584 51.7387 11.4584C49.9519 11.4584 48.5274 10.9634 47.4649 9.97346C46.4025 8.98349 45.8713 7.72792 45.8713 6.20675Z" fill="url(#paint1_linear_1_7732)"/>
<path d="M84.0644 16.4203V23.8089H61.2468V16.4203H84.0644ZM66.8968 6.75002H77.3278V43.8015C77.3278 44.9363 77.4726 45.8055 77.7624 46.4092C78.0763 47.0128 78.535 47.4354 79.1387 47.6768C79.7423 47.8941 80.5029 48.0028 81.4204 48.0028C82.0724 48.0028 82.6519 47.9786 83.1589 47.9304C83.6901 47.8579 84.1368 47.7855 84.499 47.713L84.5352 55.3913C83.6418 55.6811 82.676 55.9105 81.6377 56.0795C80.5995 56.2485 79.4526 56.333 78.197 56.333C75.9032 56.333 73.8991 55.9588 72.1847 55.2103C70.4945 54.4376 69.1907 53.2062 68.2731 51.516C67.3556 49.8258 66.8968 47.6044 66.8968 44.8518V6.75002Z" fill="black"/>
<path d="M84.0644 16.4203V23.8089H61.2468V16.4203H84.0644ZM66.8968 6.75002H77.3278V43.8015C77.3278 44.9363 77.4726 45.8055 77.7624 46.4092C78.0763 47.0128 78.535 47.4354 79.1387 47.6768C79.7423 47.8941 80.5029 48.0028 81.4204 48.0028C82.0724 48.0028 82.6519 47.9786 83.1589 47.9304C83.6901 47.8579 84.1368 47.7855 84.499 47.713L84.5352 55.3913C83.6418 55.6811 82.676 55.9105 81.6377 56.0795C80.5995 56.2485 79.4526 56.333 78.197 56.333C75.9032 56.333 73.8991 55.9588 72.1847 55.2103C70.4945 54.4376 69.1907 53.2062 68.2731 51.516C67.3556 49.8258 66.8968 47.6044 66.8968 44.8518V6.75002Z" fill="url(#paint2_linear_1_7732)"/>
<path d="M105.452 48.1839C106.732 48.1839 107.867 47.9424 108.857 47.4595C109.847 46.9525 110.619 46.2522 111.175 45.3588C111.754 44.4413 112.056 43.3668 112.08 42.1354H121.895C121.871 44.888 121.135 47.3388 119.686 49.4877C118.237 51.6126 116.293 53.2907 113.855 54.5221C111.416 55.7294 108.688 56.333 105.669 56.333C102.627 56.333 99.971 55.826 97.7013 54.8118C95.4558 53.7977 93.5845 52.3973 92.0875 50.6105C90.5904 48.7996 89.4677 46.6989 88.7192 44.3085C87.9706 41.894 87.5964 39.3104 87.5964 36.5578V35.5074C87.5964 32.7307 87.9706 30.1471 88.7192 27.7567C89.4677 25.3421 90.5904 23.2415 92.0875 21.4547C93.5845 19.6438 95.4558 18.2313 97.7013 17.2171C99.9469 16.203 102.579 15.696 105.597 15.696C108.808 15.696 111.621 16.3117 114.036 17.5431C116.475 18.7745 118.382 20.5372 119.758 22.831C121.159 25.1007 121.871 27.7929 121.895 30.9077H112.08C112.056 29.6038 111.778 28.4207 111.247 27.3583C110.74 26.2959 109.991 25.4508 109.001 24.823C108.036 24.1711 106.84 23.8451 105.416 23.8451C103.895 23.8451 102.651 24.1711 101.685 24.823C100.72 25.4508 99.971 26.32 99.4398 27.4307C98.9086 28.5173 98.5343 29.7608 98.317 31.1612C98.1239 32.5375 98.0273 33.9863 98.0273 35.5074V36.5578C98.0273 38.0789 98.1239 39.5398 98.317 40.9402C98.5102 42.3406 98.8724 43.5841 99.4036 44.6707C99.9589 45.7572 100.72 46.6144 101.685 47.2422C102.651 47.87 103.907 48.1839 105.452 48.1839Z" fill="black"/>
<path d="M105.452 48.1839C106.732 48.1839 107.867 47.9424 108.857 47.4595C109.847 46.9525 110.619 46.2522 111.175 45.3588C111.754 44.4413 112.056 43.3668 112.08 42.1354H121.895C121.871 44.888 121.135 47.3388 119.686 49.4877C118.237 51.6126 116.293 53.2907 113.855 54.5221C111.416 55.7294 108.688 56.333 105.669 56.333C102.627 56.333 99.971 55.826 97.7013 54.8118C95.4558 53.7977 93.5845 52.3973 92.0875 50.6105C90.5904 48.7996 89.4677 46.6989 88.7192 44.3085C87.9706 41.894 87.5964 39.3104 87.5964 36.5578V35.5074C87.5964 32.7307 87.9706 30.1471 88.7192 27.7567C89.4677 25.3421 90.5904 23.2415 92.0875 21.4547C93.5845 19.6438 95.4558 18.2313 97.7013 17.2171C99.9469 16.203 102.579 15.696 105.597 15.696C108.808 15.696 111.621 16.3117 114.036 17.5431C116.475 18.7745 118.382 20.5372 119.758 22.831C121.159 25.1007 121.871 27.7929 121.895 30.9077H112.08C112.056 29.6038 111.778 28.4207 111.247 27.3583C110.74 26.2959 109.991 25.4508 109.001 24.823C108.036 24.1711 106.84 23.8451 105.416 23.8451C103.895 23.8451 102.651 24.1711 101.685 24.823C100.72 25.4508 99.971 26.32 99.4398 27.4307C98.9086 28.5173 98.5343 29.7608 98.317 31.1612C98.1239 32.5375 98.0273 33.9863 98.0273 35.5074V36.5578C98.0273 38.0789 98.1239 39.5398 98.317 40.9402C98.5102 42.3406 98.8724 43.5841 99.4036 44.6707C99.9589 45.7572 100.72 46.6144 101.685 47.2422C102.651 47.87 103.907 48.1839 105.452 48.1839Z" fill="url(#paint3_linear_1_7732)"/>
<path d="M125.536 36.4129V35.6523C125.536 32.779 125.946 30.135 126.767 27.7205C127.588 25.2818 128.783 23.169 130.353 21.3823C131.922 19.5955 133.854 18.2071 136.148 17.2171C138.442 16.203 141.074 15.696 144.044 15.696C147.013 15.696 205.289 15.5849 207.607 16.599C209.925 17.589 211.869 19.5955 213.438 21.3823C215.032 23.169 216.239 25.2818 217.06 27.7205C217.881 30.135 218.291 32.779 218.291 35.6523V36.4129C218.291 39.2621 217.881 41.906 217.06 44.3447C216.239 46.7593 215.032 48.872 213.438 50.6829C211.869 52.4697 209.937 55.0944 207.643 56.0843C205.349 57.0743 147.086 56.333 144.116 56.333C141.146 56.333 138.502 55.838 136.184 54.8481C133.89 53.8581 131.947 52.4697 130.353 50.6829C128.783 48.872 127.588 46.7593 126.767 44.3447C125.946 41.906 125.536 39.2621 125.536 36.4129ZM135.967 35.6523V36.4129C135.967 38.0548 136.112 39.588 136.401 41.0126C136.691 42.4372 137.15 43.6928 137.778 44.7794C138.43 45.8418 139.275 46.6748 140.313 47.2784C141.351 47.8821 142.619 48.1839 144.116 48.1839C145.565 48.1839 202.44 48.5002 203.478 47.8965C204.516 47.2929 205.349 45.8418 205.977 44.7794C206.605 43.6928 207.064 42.4372 207.353 41.0126C207.667 39.588 207.824 38.0548 207.824 36.4129V35.6523C207.824 34.0587 207.667 32.5617 207.353 31.1612C207.064 29.7366 206.593 28.4811 205.941 27.3945C205.313 26.2838 204.528 24.7023 203.442 24.1687C201.128 23.157 145.516 23.8451 144.044 23.8451C142.571 23.8451 141.315 24.159 140.277 24.7868C139.263 25.4146 138.43 26.2838 137.778 27.3945C137.15 28.4811 136.691 29.7366 136.401 31.1612C136.112 32.5617 135.967 34.0587 135.967 35.6523Z" fill="black"/>
<path d="M125.536 36.4129V35.6523C125.536 32.779 125.946 30.135 126.767 27.7205C127.588 25.2818 128.783 23.169 130.353 21.3823C131.922 19.5955 133.854 18.2071 136.148 17.2171C138.442 16.203 141.074 15.696 144.044 15.696C147.013 15.696 205.289 15.5849 207.607 16.599C209.925 17.589 211.869 19.5955 213.438 21.3823C215.032 23.169 216.239 25.2818 217.06 27.7205C217.881 30.135 218.291 32.779 218.291 35.6523V36.4129C218.291 39.2621 217.881 41.906 217.06 44.3447C216.239 46.7593 215.032 48.872 213.438 50.6829C211.869 52.4697 209.937 55.0944 207.643 56.0843C205.349 57.0743 147.086 56.333 144.116 56.333C141.146 56.333 138.502 55.838 136.184 54.8481C133.89 53.8581 131.947 52.4697 130.353 50.6829C128.783 48.872 127.588 46.7593 126.767 44.3447C125.946 41.906 125.536 39.2621 125.536 36.4129ZM135.967 35.6523V36.4129C135.967 38.0548 136.112 39.588 136.401 41.0126C136.691 42.4372 137.15 43.6928 137.778 44.7794C138.43 45.8418 139.275 46.6748 140.313 47.2784C141.351 47.8821 142.619 48.1839 144.116 48.1839C145.565 48.1839 202.44 48.5002 203.478 47.8965C204.516 47.2929 205.349 45.8418 205.977 44.7794C206.605 43.6928 207.064 42.4372 207.353 41.0126C207.667 39.588 207.824 38.0548 207.824 36.4129V35.6523C207.824 34.0587 207.667 32.5617 207.353 31.1612C207.064 29.7366 206.593 28.4811 205.941 27.3945C205.313 26.2838 204.528 24.7023 203.442 24.1687C201.128 23.157 145.516 23.8451 144.044 23.8451C142.571 23.8451 141.315 24.159 140.277 24.7868C139.263 25.4146 138.43 26.2838 137.778 27.3945C137.15 28.4811 136.691 29.7366 136.401 31.1612C136.112 32.5617 135.967 34.0587 135.967 35.6523Z" fill="url(#paint4_linear_1_7732)"/>
<path d="M234.971 16.4203V55.6087H224.503V16.4203H234.971ZM223.851 6.20675C223.851 4.68557 224.383 3.43 225.445 2.44003C226.507 1.45006 227.932 0.955078 229.719 0.955078C231.481 0.955078 232.894 1.45006 233.956 2.44003C235.043 3.43 235.586 4.68557 235.586 6.20675C235.586 7.72792 235.043 8.98349 233.956 9.97346C232.894 10.9634 231.481 11.4584 229.719 11.4584C227.932 11.4584 226.507 10.9634 225.445 9.97346C224.383 8.98349 223.851 7.72792 223.851 6.20675Z" fill="black"/>
<path d="M234.971 16.4203V55.6087H224.503V16.4203H234.971ZM223.851 6.20675C223.851 4.68557 224.383 3.43 225.445 2.44003C226.507 1.45006 227.932 0.955078 229.719 0.955078C231.481 0.955078 232.894 1.45006 233.956 2.44003C235.043 3.43 235.586 4.68557 235.586 6.20675C235.586 7.72792 235.043 8.98349 233.956 9.97346C232.894 10.9634 231.481 11.4584 229.719 11.4584C227.932 11.4584 226.507 10.9634 225.445 9.97346C224.383 8.98349 223.851 7.72792 223.851 6.20675Z" fill="url(#paint5_linear_1_7732)"/>
<path d="M253.062 24.7868V55.6087H242.631V16.4203H252.41L253.062 24.7868ZM251.541 34.6382H248.716C248.716 31.7407 249.09 29.133 249.839 26.815C250.587 24.4729 251.638 22.4809 252.99 20.839C254.342 19.1729 255.948 17.9053 257.807 17.0361C259.69 16.1427 261.791 15.696 264.109 15.696C265.944 15.696 267.622 15.9616 269.143 16.4928C270.664 17.024 271.968 17.8691 273.055 19.0281C274.166 20.1871 275.011 21.7203 275.59 23.6278C276.194 25.5353 276.496 27.8654 276.496 30.618V55.6087H265.992V30.5817C265.992 28.8433 265.751 27.4911 265.268 26.5253C264.785 25.5594 264.073 24.8834 263.131 24.497C262.214 24.0866 261.079 23.8813 259.727 23.8813C258.326 23.8813 257.107 24.159 256.068 24.7144C255.054 25.2697 254.209 26.0424 253.533 27.0323C252.881 27.9982 252.386 29.133 252.048 30.4369C251.71 31.7407 251.541 33.1412 251.541 34.6382Z" fill="black"/>
<path d="M253.062 24.7868V55.6087H242.631V16.4203H252.41L253.062 24.7868ZM251.541 34.6382H248.716C248.716 31.7407 249.09 29.133 249.839 26.815C250.587 24.4729 251.638 22.4809 252.99 20.839C254.342 19.1729 255.948 17.9053 257.807 17.0361C259.69 16.1427 261.791 15.696 264.109 15.696C265.944 15.696 267.622 15.9616 269.143 16.4928C270.664 17.024 271.968 17.8691 273.055 19.0281C274.166 20.1871 275.011 21.7203 275.59 23.6278C276.194 25.5353 276.496 27.8654 276.496 30.618V55.6087H265.992V30.5817C265.992 28.8433 265.751 27.4911 265.268 26.5253C264.785 25.5594 264.073 24.8834 263.131 24.497C262.214 24.0866 261.079 23.8813 259.727 23.8813C258.326 23.8813 257.107 24.159 256.068 24.7144C255.054 25.2697 254.209 26.0424 253.533 27.0323C252.881 27.9982 252.386 29.133 252.048 30.4369C251.71 31.7407 251.541 33.1412 251.541 34.6382Z" fill="url(#paint6_linear_1_7732)"/>
<path d="M284.193 50.5743C284.193 49.029 284.724 47.7372 285.786 46.6989C286.873 45.6607 288.31 45.1415 290.096 45.1415C291.883 45.1415 293.308 45.6607 294.37 46.6989C295.457 47.7372 296 49.029 296 50.5743C296 52.1196 295.457 53.4114 294.37 54.4497C293.308 55.4879 291.883 56.0071 290.096 56.0071C288.31 56.0071 286.873 55.4879 285.786 54.4497C284.724 53.4114 284.193 52.1196 284.193 50.5743Z" fill="black"/>
<path d="M284.193 50.5743C284.193 49.029 284.724 47.7372 285.786 46.6989C286.873 45.6607 288.31 45.1415 290.096 45.1415C291.883 45.1415 293.308 45.6607 294.37 46.6989C295.457 47.7372 296 49.029 296 50.5743C296 52.1196 295.457 53.4114 294.37 54.4497C293.308 55.4879 291.883 56.0071 290.096 56.0071C288.31 56.0071 286.873 55.4879 285.786 54.4497C284.724 53.4114 284.193 52.1196 284.193 50.5743Z" fill="url(#paint7_linear_1_7732)"/>
<defs>
<linearGradient id="paint0_linear_1_7732" x1="-7.42562" y1="-7.85525" x2="340.614" y2="102.562" gradientUnits="userSpaceOnUse">
<stop stop-color="#FFCC7E"/>
<stop offset="1" stop-color="#0500FA"/>
</linearGradient>
<linearGradient id="paint1_linear_1_7732" x1="-7.42562" y1="-7.85525" x2="340.614" y2="102.562" gradientUnits="userSpaceOnUse">
<stop stop-color="#FFCC7E"/>
<stop offset="1" stop-color="#0500FA"/>
</linearGradient>
<linearGradient id="paint2_linear_1_7732" x1="-7.42562" y1="-7.85525" x2="340.614" y2="102.562" gradientUnits="userSpaceOnUse">
<stop stop-color="#FFCC7E"/>
<stop offset="1" stop-color="#0500FA"/>
</linearGradient>
<linearGradient id="paint3_linear_1_7732" x1="-7.42562" y1="-7.85525" x2="340.614" y2="102.562" gradientUnits="userSpaceOnUse">
<stop stop-color="#FFCC7E"/>
<stop offset="1" stop-color="#0500FA"/>
</linearGradient>
<linearGradient id="paint4_linear_1_7732" x1="-7.42562" y1="-7.85525" x2="340.614" y2="102.562" gradientUnits="userSpaceOnUse">
<stop stop-color="#FFCC7E"/>
<stop offset="1" stop-color="#0500FA"/>
</linearGradient>
<linearGradient id="paint5_linear_1_7732" x1="-7.42562" y1="-7.85525" x2="340.614" y2="102.562" gradientUnits="userSpaceOnUse">
<stop stop-color="#FFCC7E"/>
<stop offset="1" stop-color="#0500FA"/>
</linearGradient>
<linearGradient id="paint6_linear_1_7732" x1="-7.42562" y1="-7.85525" x2="340.614" y2="102.562" gradientUnits="userSpaceOnUse">
<stop stop-color="#FFCC7E"/>
<stop offset="1" stop-color="#0500FA"/>
</linearGradient>
<linearGradient id="paint7_linear_1_7732" x1="-7.42562" y1="-7.85525" x2="340.614" y2="102.562" gradientUnits="userSpaceOnUse">
<stop stop-color="#FFCC7E"/>
<stop offset="1" stop-color="#0500FA"/>
</linearGradient>
</defs>
</svg>
