<svg width="76" height="76" viewBox="0 0 76 76" fill="none" xmlns="http://www.w3.org/2000/svg">
<g id="icon">
<path id="Vector" d="M38 76C58.9868 76 76 58.9868 76 38C76 17.0132 58.9868 0 38 0C17.0132 0 0 17.0132 0 38C0 58.9868 17.0132 76 38 76Z" fill="url(#paint0_linear_45_567)"/>
<path id="Vector_2" d="M59.5186 20.99C57.8263 19.2976 55.0715 19.2976 53.3791 20.99L30.0912 44.2779C29.8794 44.4897 29.5333 44.4897 29.3204 44.2779L22.6209 37.5784C20.9286 35.8861 18.1738 35.8861 16.4815 37.5784C15.6619 38.398 15.2106 39.4881 15.2106 40.6482C15.2106 41.8082 15.6619 42.8983 16.4815 43.7179L28.5796 55.8149C28.8901 56.1254 29.2982 56.2807 29.7052 56.2807C30.1134 56.2807 30.5204 56.1254 30.8309 55.8149L59.5175 27.1283C61.2109 25.4371 61.2109 22.6823 59.5186 20.99Z" fill="white"/>
</g>
<defs>
<linearGradient id="paint0_linear_45_567" x1="13.2777" y1="-14.7282" x2="100.954" y2="27.3957" gradientUnits="userSpaceOnUse">
<stop stop-color="#B276FF"/>
<stop offset="1" stop-color="#FEAB00" stop-opacity="0.67"/>
</linearGradient>
</defs>
</svg>
