<svg width="123" height="152" viewBox="0 0 123 152" fill="none" xmlns="http://www.w3.org/2000/svg">
<path d="M110.66 150.912L6.11095 150.912C3.28825 150.912 1 148.624 1 145.801L1 36.469L1 6.11095C1 3.28825 3.28825 1 6.11095 1L110.66 1C113.483 1 115.771 3.28825 115.771 6.11095V36.469V145.801C115.771 148.624 113.483 150.912 110.66 150.912Z" fill="white"/>
<path d="M1 36.469L1 6.11095C1 3.28825 3.28825 1 6.11095 1L110.66 1C113.483 1 115.771 3.28825 115.771 6.11095V36.469M1 36.469L1 145.801C1 148.624 3.28825 150.912 6.11095 150.912L110.66 150.912C113.483 150.912 115.771 148.624 115.771 145.801V36.469M1 36.469L115.771 36.469" stroke="#940D0D" stroke-width="1.13577"/>
<path d="M1 36.469L1 6.11095C1 3.28825 3.28825 1 6.11095 1L110.66 1C113.483 1 115.771 3.28825 115.771 6.11095V36.469M1 36.469L1 145.801C1 148.624 3.28825 150.912 6.11095 150.912L110.66 150.912C113.483 150.912 115.771 148.624 115.771 145.801V36.469M1 36.469L115.771 36.469" stroke="black" stroke-width="1.13577"/>
<path d="M48 13.6211V16.5344" stroke="black" stroke-width="0.582653" stroke-linecap="round"/>
<path d="M49.75 13.0391L49.75 17.1176" stroke="black" stroke-width="0.582653" stroke-linecap="round"/>
<path d="M51.3516 13.3281L51.3516 16.824" stroke="black" stroke-width="0.582653" stroke-linecap="round"/>
<path d="M52.6562 12.8906L52.6563 17.2605" stroke="black" stroke-width="0.582653" stroke-linecap="round"/>
<path d="M54.5547 13.3281L54.5547 16.824" stroke="black" stroke-width="0.582653" stroke-linecap="round"/>
<path d="M56.8828 13.3281L56.8828 16.824" stroke="black" stroke-width="0.582653" stroke-linecap="round"/>
<path d="M58.7812 13.3281L58.7813 16.824" stroke="black" stroke-width="0.582653" stroke-linecap="round"/>
<path d="M61.2578 13.0391L61.2578 17.2633" stroke="black" stroke-width="0.582653" stroke-linecap="round"/>
<path d="M63.4375 12.8906L63.4375 17.2605" stroke="black" stroke-width="0.582653" stroke-linecap="round"/>
<path d="M66.0625 12.8906L66.0625 17.2605" stroke="black" stroke-width="0.582653" stroke-linecap="round"/>
<path d="M67.8125 13.6211L67.8125 16.5344" stroke="black" stroke-width="0.582653" stroke-linecap="round"/>
<path d="M69.5547 13.1836L69.5547 17.1165" stroke="black" stroke-width="0.582653" stroke-linecap="round"/>
<path d="M71.2969 13.3281L71.2969 16.824" stroke="black" stroke-width="0.582653" stroke-linecap="round"/>
<path d="M73.0547 13.0391L73.0547 17.1176" stroke="black" stroke-width="0.582653" stroke-linecap="round"/>
<path d="M74.8047 12.8906L74.8047 17.2605" stroke="black" stroke-width="0.582653" stroke-linecap="round"/>
<path d="M76.5547 12.8906L76.5547 17.2605" stroke="black" stroke-width="0.582653" stroke-linecap="round"/>
<path d="M18.1719 30.3324V27.2734H31.8642V30.3324H18.1719Z" fill="black" stroke="black" stroke-width="0.582653"/>
<path d="M18 11.2921V9.39844L35.7709 9.39844V11.2921L18 11.2921Z" fill="black" stroke="black" stroke-width="0.582653"/>
<path d="M18 25.0532V23.7422H27.9051V25.0532H18Z" fill="black" stroke="black" stroke-width="0.582653"/>
<path d="M104.489 22.5814H97.861C97.3984 22.5814 97.0234 22.2064 97.0234 21.7438C97.0234 21.2812 97.3984 20.9062 97.861 20.9062H104.489C104.951 20.9062 105.326 21.2812 105.326 21.7438C105.326 22.2064 104.951 22.5814 104.489 22.5814Z" fill="black" stroke="black" stroke-width="0.582653"/>
<path d="M106.56 27.4589H98.6943C98.2116 27.4589 97.8203 27.0676 97.8203 26.5849C97.8203 26.1022 98.2116 25.7109 98.6943 25.7109H106.56C107.043 25.7109 107.434 26.1022 107.434 26.5849C107.434 27.0676 107.043 27.4589 106.56 27.4589Z" fill="black" stroke="black" stroke-width="0.582653"/>
<ellipse cx="94.1043" cy="21.7059" rx="2.11212" ry="2.11212" fill="black"/>
<ellipse cx="94.6902" cy="26.5145" rx="2.11212" ry="2.11212" fill="black"/>
<path d="M4.03125 142.418L4.03125 45.3101C4.03125 44.9964 4.2855 44.7422 4.59914 44.7422L112.639 44.7422C112.953 44.7422 113.207 44.9964 113.207 45.3101V142.418C113.207 142.732 112.953 142.986 112.639 142.986H4.59913C4.2855 142.986 4.03125 142.732 4.03125 142.418Z" fill="white" stroke="black" stroke-width="0.851826"/>
<mask id="path-27-inside-1_1_4543" fill="white">
<path fill-rule="evenodd" clip-rule="evenodd" d="M57.8426 139.58C83.7174 139.58 104.693 118.604 104.693 92.7293C104.693 66.8545 83.7174 45.8789 57.8426 45.8789C31.9678 45.8789 10.9922 66.8545 10.9922 92.7293C10.9922 118.604 31.9678 139.58 57.8426 139.58ZM57.8432 137.167C82.385 137.167 102.28 117.272 102.28 92.7298C102.28 68.188 82.385 48.293 57.8432 48.293C33.3013 48.293 13.4062 68.188 13.4063 92.7298C13.4063 117.272 33.3013 137.167 57.8432 137.167Z"/>
</mask>
<path fill-rule="evenodd" clip-rule="evenodd" d="M57.8426 139.58C83.7174 139.58 104.693 118.604 104.693 92.7293C104.693 66.8545 83.7174 45.8789 57.8426 45.8789C31.9678 45.8789 10.9922 66.8545 10.9922 92.7293C10.9922 118.604 31.9678 139.58 57.8426 139.58ZM57.8432 137.167C82.385 137.167 102.28 117.272 102.28 92.7298C102.28 68.188 82.385 48.293 57.8432 48.293C33.3013 48.293 13.4062 68.188 13.4063 92.7298C13.4063 117.272 33.3013 137.167 57.8432 137.167Z" fill="black"/>
<path d="M103.983 92.7293C103.983 118.212 83.3253 138.87 57.8426 138.87V140.289C84.1094 140.289 105.403 118.996 105.403 92.7293H103.983ZM57.8426 46.5888C83.3253 46.5888 103.983 67.2466 103.983 92.7293H105.403C105.403 66.4625 84.1094 45.1691 57.8426 45.1691V46.5888ZM11.702 92.7293C11.702 67.2466 32.3599 46.5888 57.8426 46.5888V45.1691C31.5758 45.1691 10.2823 66.4625 10.2823 92.7293H11.702ZM57.8426 138.87C32.3599 138.87 11.702 118.212 11.702 92.7293H10.2823C10.2823 118.996 31.5758 140.289 57.8426 140.289V138.87ZM101.57 92.7298C101.57 116.88 81.993 136.457 57.8432 136.457V137.877C82.777 137.877 102.99 117.664 102.99 92.7298H101.57ZM57.8432 49.0028C81.993 49.0028 101.57 68.5801 101.57 92.7298H102.99C102.99 67.796 82.777 47.5831 57.8432 47.5831V49.0028ZM14.1161 92.7298C14.1161 68.5801 33.6934 49.0028 57.8432 49.0028V47.5831C32.9093 47.5831 12.6964 67.796 12.6964 92.7298H14.1161ZM57.8432 136.457C33.6934 136.457 14.1161 116.88 14.1161 92.7298H12.6964C12.6964 117.664 32.9093 137.877 57.8432 137.877V136.457Z" fill="black" mask="url(#path-27-inside-1_1_4543)"/>
<path fill-rule="evenodd" clip-rule="evenodd" d="M10.1266 46.3071C7.4607 46.3071 5.29957 48.4683 5.29957 51.1341C5.29957 53.199 6.73116 55.0037 8.58656 55.6916L8.8709 55.7674C9.35098 55.8955 9.84795 55.9486 10.3442 55.925L10.6647 55.9097C10.9374 55.8967 11.2107 55.9156 11.479 55.9659C12.0257 56.0684 12.5403 56.2993 12.9803 56.6395L54.7972 88.9762C56.6037 90.3731 59.142 90.313 60.8803 88.8321L102.293 53.5526C102.788 53.0676 103.603 53.1481 103.993 53.7233L104.778 54.8802L104.643 54.9718C104.985 55.2354 105.371 55.4535 105.796 55.6135C108.093 56.4784 110.656 55.3173 111.521 53.0201C112.386 50.723 111.225 48.1596 108.928 47.2947C107.767 46.8574 106.559 46.8616 105.536 47.2906C104.518 47.717 103.664 48.5704 103.208 49.8715L103.038 50.5075L103.04 50.5082L103.04 50.5083L103.04 50.5085L103.04 50.5092L103.039 50.5113L103.037 50.518L103.03 50.5416C103.029 50.5454 103.027 50.5495 103.026 50.5538L102.965 50.7823L102.943 50.7766C102.929 50.8132 102.912 50.8523 102.894 50.8928C102.805 51.0936 102.663 51.3678 102.468 51.5537C102.2 51.8096 101.511 52.3532 101.305 52.5151C101.264 52.5475 101.223 52.5799 101.184 52.6129L61.2227 85.8686C59.2869 87.4795 56.4941 87.5368 54.4938 86.0067L13.9353 54.9798L13.9259 54.9726L13.9261 54.9724L13.5002 54.6175L13.8637 54.1812L13.8678 54.1846C14.5467 53.353 14.9536 52.2914 14.9536 51.1341C14.9536 48.4683 12.7925 46.3071 10.1266 46.3071ZM102.482 50.3898C102.478 50.4023 102.472 50.4169 102.467 50.4334C102.446 50.4922 102.415 50.5735 102.375 50.6628C102.292 50.8506 102.186 51.0379 102.076 51.143C101.833 51.3751 101.171 51.8982 100.954 52.0684C100.909 52.1036 100.865 52.1395 100.82 52.1764L60.8594 85.432C59.1274 86.8734 56.6286 86.9247 54.8389 85.5556L14.3047 54.5473C15.0651 53.6176 15.5215 52.4289 15.5215 51.1341C15.5215 48.1546 13.1061 45.7393 10.1266 45.7393C7.14707 45.7393 4.73169 48.1546 4.73169 51.1341C4.73169 53.5492 6.45726 55.6106 8.6202 56.3039L8.62481 56.2895L8.72458 56.3162C9.26114 56.4592 9.81657 56.5186 10.3712 56.4922L10.6917 56.4769C10.9203 56.4661 11.1494 56.4819 11.3744 56.524C11.8327 56.61 12.264 56.8035 12.6329 57.0888L54.4498 89.4254C56.4689 90.9867 59.3057 90.9195 61.2486 89.2644L102.669 53.978L102.678 53.9706L102.686 53.9626C102.76 53.8886 102.849 53.8408 102.942 53.8181C103.495 54.8526 104.412 55.6991 105.596 56.1449C108.186 57.1204 111.077 55.8109 112.053 53.2203C113.028 50.6296 111.719 47.7387 109.128 46.7632C107.845 46.2803 106.487 46.2761 105.316 46.7669C104.142 47.2592 103.174 48.2423 102.669 49.6946L102.665 49.7045L102.662 49.7145L102.482 50.3898Z" fill="black"/>
<ellipse cx="107.094" cy="51.5625" rx="4.11716" ry="4.11715" stroke="black" stroke-width="0.709854"/>
<path d="M105.258 53.4844L109.015 49.7272" stroke="black" stroke-width="0.709854" stroke-linecap="round"/>
<path d="M105.258 49.7266L109.015 53.4838" stroke="black" stroke-width="0.709854" stroke-linecap="round"/>
<ellipse cx="10.1426" cy="51.0645" rx="4.33012" ry="4.33011" stroke="black" stroke-width="0.709854"/>
<path d="M8.21094 53.0859L12.1625 49.1344" stroke="black" stroke-width="0.709854" stroke-linecap="round"/>
<path d="M8.21094 49.1328L12.1625 53.0843" stroke="black" stroke-width="0.709854" stroke-linecap="round"/>
<path fill-rule="evenodd" clip-rule="evenodd" d="M10.129 141.423C7.54181 141.423 5.44801 139.342 5.44801 136.778C5.44801 134.816 6.80298 133.096 8.57282 132.416L8.57317 132.417L8.8709 132.338C9.35098 132.21 9.84795 132.157 10.3442 132.181L10.7003 132.197C10.9493 132.209 11.199 132.192 11.4441 132.146C12.0179 132.039 12.5516 131.776 12.9874 131.388L54.565 94.3296C56.4466 92.6526 59.3019 92.7055 61.12 94.4513L102.284 133.977L102.286 133.979C102.788 134.478 103.604 134.467 104.092 133.953L104.749 133.261L104.631 133.149C104.978 132.879 105.37 132.655 105.804 132.492C108.101 131.627 110.664 132.788 111.529 135.085C112.394 137.382 111.233 139.946 108.936 140.811C106.641 141.675 104.081 140.517 103.213 138.225L103.018 137.604L103.04 137.597L103.04 137.597L103.04 137.597L103.04 137.596L103.039 137.594L103.037 137.587L103.03 137.564C103.023 137.544 103.014 137.516 103.001 137.481C102.978 137.415 102.943 137.324 102.899 137.223L102.898 137.22L102.898 137.221C102.897 137.218 102.895 137.215 102.894 137.213C102.805 137.012 102.663 136.738 102.468 136.552C102.241 136.335 101.717 135.916 101.438 135.695C101.313 135.597 101.193 135.493 101.079 135.385L61.4722 97.7335C59.4553 95.8162 56.3109 95.7476 54.2123 97.5751L13.2139 133.277L12.7903 133.63L13.1539 134.066L13.1775 134.047C13.8864 134.88 14.5342 135.904 14.5342 136.963C14.5342 139.533 12.709 141.423 10.129 141.423ZM102.367 137.424C102.285 137.243 102.182 137.064 102.076 136.963C101.873 136.769 101.373 136.368 101.086 136.141C100.949 136.032 100.816 135.918 100.688 135.796L61.0809 98.1451C59.2763 96.4296 56.4629 96.3682 54.5852 98.0034L13.6132 133.682C14.3438 134.541 15.102 135.697 15.102 136.963C15.102 139.837 13.0331 141.991 10.129 141.991C7.23207 141.991 4.88013 139.659 4.88013 136.778C4.88013 134.443 6.5605 132.452 8.66375 131.783L8.67045 131.804L8.72458 131.789C9.26114 131.646 9.81657 131.587 10.3712 131.613L10.7273 131.63C10.9323 131.64 11.1377 131.626 11.3394 131.588C11.8117 131.499 12.2509 131.284 12.6096 130.964L54.1872 93.9057C56.2901 92.0313 59.4813 92.0905 61.5133 94.0416L102.681 133.571L102.686 133.575C102.844 133.734 103.06 133.799 103.266 133.773C103.825 132.974 104.623 132.33 105.604 131.961C108.194 130.985 111.085 132.295 112.061 134.885C113.036 137.476 111.727 140.367 109.136 141.342C106.545 142.318 103.654 141.008 102.679 138.418L102.676 138.41L102.674 138.402L102.367 137.424Z" fill="black"/>
<ellipse cx="4.07155" cy="4.07154" rx="4.07155" ry="4.07154" transform="matrix(1 0 0 -1 103.32 140.715)" stroke="black" stroke-width="0.709854"/>
<path d="M105.57 134.742L109.286 138.458" stroke="black" stroke-width="0.709854" stroke-linecap="round"/>
<path d="M105.57 138.461L109.286 134.745" stroke="black" stroke-width="0.709854" stroke-linecap="round"/>
<ellipse cx="4.2845" cy="4.2845" rx="4.2845" ry="4.2845" transform="matrix(1 0 0 -1 5.85938 141.137)" stroke="black" stroke-width="0.709854"/>
<path d="M8.22656 134.855L12.1365 138.765" stroke="black" stroke-width="0.709854" stroke-linecap="round"/>
<path d="M8.22656 138.766L12.1365 134.856" stroke="black" stroke-width="0.709854" stroke-linecap="round"/>
<mask id="path-43-inside-2_1_4543" fill="white">
<path fill-rule="evenodd" clip-rule="evenodd" d="M57.8383 114.43C69.8216 114.43 79.536 104.716 79.536 92.7328C79.536 80.7495 69.8216 71.0352 57.8383 71.0352C45.855 71.0352 36.1406 80.7495 36.1406 92.7328C36.1406 104.716 45.855 114.43 57.8383 114.43ZM57.8444 111.759C68.3512 111.759 76.8685 103.242 76.8685 92.735C76.8685 82.2283 68.3512 73.7109 57.8444 73.7109C47.3377 73.7109 38.8203 82.2283 38.8203 92.735C38.8203 103.242 47.3377 111.759 57.8444 111.759Z"/>
</mask>
<path fill-rule="evenodd" clip-rule="evenodd" d="M57.8383 114.43C69.8216 114.43 79.536 104.716 79.536 92.7328C79.536 80.7495 69.8216 71.0352 57.8383 71.0352C45.855 71.0352 36.1406 80.7495 36.1406 92.7328C36.1406 104.716 45.855 114.43 57.8383 114.43ZM57.8444 111.759C68.3512 111.759 76.8685 103.242 76.8685 92.735C76.8685 82.2283 68.3512 73.7109 57.8444 73.7109C47.3377 73.7109 38.8203 82.2283 38.8203 92.735C38.8203 103.242 47.3377 111.759 57.8444 111.759Z" fill="black"/>
<path d="M78.8262 92.7328C78.8262 104.324 69.4296 113.721 57.8383 113.721V115.14C70.2137 115.14 80.2459 105.108 80.2459 92.7328H78.8262ZM57.8383 71.745C69.4296 71.745 78.8262 81.1416 78.8262 92.7328H80.2459C80.2459 80.3575 70.2137 70.3253 57.8383 70.3253V71.745ZM36.8505 92.7328C36.8505 81.1416 46.2471 71.745 57.8383 71.745V70.3253C45.463 70.3253 35.4308 80.3575 35.4308 92.7328H36.8505ZM57.8383 113.721C46.2471 113.721 36.8505 104.324 36.8505 92.7328H35.4308C35.4308 105.108 45.463 115.14 57.8383 115.14V113.721ZM76.1587 92.735C76.1587 102.85 67.9591 111.049 57.8444 111.049V112.469C68.7432 112.469 77.5784 103.634 77.5784 92.735H76.1587ZM57.8444 74.4208C67.9591 74.4208 76.1587 82.6204 76.1587 92.735H77.5784C77.5784 81.8363 68.7432 73.0011 57.8444 73.0011V74.4208ZM39.5302 92.735C39.5302 82.6204 47.7297 74.4208 57.8444 74.4208V73.0011C46.9457 73.0011 38.1105 81.8363 38.1105 92.735H39.5302ZM57.8444 111.049C47.7297 111.049 39.5302 102.85 39.5302 92.735H38.1105C38.1105 103.634 46.9457 112.469 57.8444 112.469V111.049Z" fill="black" mask="url(#path-43-inside-2_1_4543)"/>
<mask id="path-45-inside-3_1_4543" fill="white">
<path fill-rule="evenodd" clip-rule="evenodd" d="M57.8414 126.726C76.6178 126.726 91.8391 111.504 91.8391 92.7281C91.8391 73.9517 76.6178 58.7305 57.8414 58.7305C39.065 58.7305 23.8438 73.9517 23.8438 92.7281C23.8438 111.504 39.065 126.726 57.8414 126.726ZM57.8379 124.246C75.2445 124.246 89.3554 110.135 89.3554 92.7284C89.3554 75.3218 75.2445 61.2109 57.8379 61.2109C40.4312 61.2109 26.3203 75.3218 26.3203 92.7284C26.3203 110.135 40.4312 124.246 57.8379 124.246Z"/>
</mask>
<path fill-rule="evenodd" clip-rule="evenodd" d="M57.8414 126.726C76.6178 126.726 91.8391 111.504 91.8391 92.7281C91.8391 73.9517 76.6178 58.7305 57.8414 58.7305C39.065 58.7305 23.8438 73.9517 23.8438 92.7281C23.8438 111.504 39.065 126.726 57.8414 126.726ZM57.8379 124.246C75.2445 124.246 89.3554 110.135 89.3554 92.7284C89.3554 75.3218 75.2445 61.2109 57.8379 61.2109C40.4312 61.2109 26.3203 75.3218 26.3203 92.7284C26.3203 110.135 40.4312 124.246 57.8379 124.246Z" fill="black"/>
<path d="M91.1292 92.7281C91.1292 111.112 76.2258 126.016 57.8414 126.016V127.436C77.0098 127.436 92.5489 111.896 92.5489 92.7281H91.1292ZM57.8414 59.4403C76.2258 59.4403 91.1292 74.3438 91.1292 92.7281H92.5489C92.5489 73.5597 77.0098 58.0206 57.8414 58.0206V59.4403ZM24.5536 92.7281C24.5536 74.3438 39.4571 59.4403 57.8414 59.4403V58.0206C38.673 58.0206 23.1339 73.5597 23.1339 92.7281H24.5536ZM57.8414 126.016C39.4571 126.016 24.5536 111.112 24.5536 92.7281H23.1339C23.1339 111.896 38.673 127.436 57.8414 127.436V126.016ZM88.6456 92.7284C88.6456 109.743 74.8525 123.536 57.8379 123.536V124.956C75.6366 124.956 90.0653 110.527 90.0653 92.7284H88.6456ZM57.8379 61.9208C74.8525 61.9208 88.6456 75.7138 88.6456 92.7284H90.0653C90.0653 74.9298 75.6366 60.5011 57.8379 60.5011V61.9208ZM27.0302 92.7284C27.0302 75.7138 40.8232 61.9208 57.8379 61.9208V60.5011C40.0392 60.5011 25.6105 74.9298 25.6105 92.7284H27.0302ZM57.8379 123.536C40.8232 123.536 27.0302 109.743 27.0302 92.7284H25.6105C25.6105 110.527 40.0392 124.956 57.8379 124.956V123.536Z" fill="black" mask="url(#path-45-inside-3_1_4543)"/>
<mask id="path-47-inside-4_1_4543" fill="white">
<path fill-rule="evenodd" clip-rule="evenodd" d="M57.8409 104.479C64.3287 104.479 69.5881 99.2193 69.5881 92.7315C69.5881 86.2437 64.3287 80.9844 57.8409 80.9844C51.3531 80.9844 46.0938 86.2437 46.0938 92.7315C46.0938 99.2193 51.3531 104.479 57.8409 104.479ZM57.8439 101.821C62.862 101.821 66.93 97.7526 66.93 92.7345C66.93 87.7164 62.862 83.6484 57.8439 83.6484C52.8258 83.6484 48.7578 87.7164 48.7578 92.7345C48.7578 97.7526 52.8258 101.821 57.8439 101.821Z"/>
</mask>
<path fill-rule="evenodd" clip-rule="evenodd" d="M57.8409 104.479C64.3287 104.479 69.5881 99.2193 69.5881 92.7315C69.5881 86.2437 64.3287 80.9844 57.8409 80.9844C51.3531 80.9844 46.0938 86.2437 46.0938 92.7315C46.0938 99.2193 51.3531 104.479 57.8409 104.479ZM57.8439 101.821C62.862 101.821 66.93 97.7526 66.93 92.7345C66.93 87.7164 62.862 83.6484 57.8439 83.6484C52.8258 83.6484 48.7578 87.7164 48.7578 92.7345C48.7578 97.7526 52.8258 101.821 57.8439 101.821Z" fill="black"/>
<path d="M68.8782 92.7315C68.8782 98.8272 63.9366 103.769 57.8409 103.769V105.189C64.7207 105.189 70.2979 99.6113 70.2979 92.7315H68.8782ZM57.8409 81.6942C63.9366 81.6942 68.8782 86.6358 68.8782 92.7315H70.2979C70.2979 85.8517 64.7207 80.2745 57.8409 80.2745V81.6942ZM46.8036 92.7315C46.8036 86.6358 51.7452 81.6942 57.8409 81.6942V80.2745C50.9611 80.2745 45.3839 85.8517 45.3839 92.7315H46.8036ZM57.8409 103.769C51.7452 103.769 46.8036 98.8272 46.8036 92.7315H45.3839C45.3839 99.6113 50.9611 105.189 57.8409 105.189V103.769ZM66.2202 92.7345C66.2202 97.3606 62.47 101.111 57.8439 101.111V102.53C63.2541 102.53 67.6399 98.1447 67.6399 92.7345H66.2202ZM57.8439 84.3583C62.47 84.3583 66.2202 88.1085 66.2202 92.7345H67.6399C67.6399 87.3244 63.2541 82.9386 57.8439 82.9386V84.3583ZM49.4677 92.7345C49.4677 88.1085 53.2178 84.3583 57.8439 84.3583V82.9386C52.4338 82.9386 48.048 87.3244 48.048 92.7345H49.4677ZM57.8439 101.111C53.2178 101.111 49.4677 97.3606 49.4677 92.7345H48.048C48.048 98.1447 52.4338 102.53 57.8439 102.53V101.111Z" fill="black" mask="url(#path-47-inside-4_1_4543)"/>
<path d="M112.203 19.961C112.971 19.6976 114.613 20.2375 115.034 22.1337C115.284 23.2588 115.348 25.9673 115.364 29.9031C115.371 31.8939 116.019 34.9184 116.162 36.8824C116.68 39.1868 116.549 39.7794 116.944 41.9522C117.038 42.4687 117.443 43.6792 117.63 44.3225C118.19 46.2471 118.893 48.6391 119.423 51.3018C119.894 53.6701 120.332 56.1484 120.698 58.4128C121.274 61.9719 121.289 65.266 121.366 66.5114C121.414 67.3014 121.643 69.9204 121.734 73.2972C121.799 75.6888 121.987 77.8024 122.009 80.7992C122.021 82.4354 121.891 84.8431 121.877 86.5275C121.86 88.7802 121.815 91.0341 121.734 93.1775C121.664 95.0414 121.565 96.8217 121.432 98.4449C120.735 101.739 120.714 102.904 120.368 104.371C120.17 106.609 119.709 109.655 119.637 111.284C119.547 113.296 119.342 114.611 119.637 117.012C119.893 119.098 119.675 121.868 119.88 123.794C120.172 126.554 119.854 128.67 119.248 130.049C117.721 133.526 116.988 135.36 116.549 135.909L116.483 126.823L116.432 119.844L116.417 117.737L116.511 113.655L116.451 109.375L116.476 103.12L116.511 94.3627L116.616 89.4246L116.68 82.3794L116.511 76.3878L116.616 68.1574L116.643 61.5732L116.665 56.0425L116.68 52.2236L116.153 49.8533L114.599 42.874L112.927 35.368V33.5903V27.6644V21.3436L112.203 19.961Z" fill="white"/>
<path d="M115.034 22.1337C114.613 20.2375 112.971 19.6976 112.203 19.961L112.927 21.3436M115.034 22.1337C115.284 23.2588 115.348 25.9673 115.364 29.9031M115.034 22.1337L112.927 21.3436M121.366 66.5114C121.414 67.3014 121.643 69.9204 121.734 73.2972M121.366 66.5114L116.643 61.5732M121.366 66.5114C121.289 65.266 121.274 61.9719 120.698 58.4128M120.368 104.371C120.17 106.609 119.709 109.655 119.637 111.284M120.368 104.371L116.476 103.12M120.368 104.371C120.714 102.904 120.735 101.739 121.432 98.4449M119.248 130.049C117.721 133.526 116.988 135.36 116.549 135.909L116.483 126.823M119.248 130.049L116.483 126.823M119.248 130.049C119.854 128.67 120.172 126.554 119.88 123.794M116.483 126.823L116.432 119.844M119.88 123.794L116.432 119.844M119.88 123.794C119.675 121.868 119.893 119.098 119.637 117.012M116.432 119.844L116.417 117.737L116.511 113.655M119.637 117.012L116.511 113.655M119.637 117.012C119.342 114.611 119.547 113.296 119.637 111.284M116.511 113.655L116.451 109.375M119.637 111.284L116.451 109.375M116.451 109.375L116.476 103.12M116.476 103.12L116.511 94.3627M121.432 98.4449L116.511 94.3627M121.432 98.4449C121.565 96.8217 121.664 95.0414 121.734 93.1775M116.511 94.3627L116.616 89.4246M121.734 93.1775L116.616 89.4246M121.734 93.1775C121.815 91.0341 121.86 88.7802 121.877 86.5275M116.616 89.4246L116.68 82.3794M121.877 86.5275L116.68 82.3794M121.877 86.5275C121.891 84.8431 122.021 82.4354 122.009 80.7992M116.68 82.3794L116.511 76.3878M122.009 80.7992L116.511 76.3878M122.009 80.7992C121.987 77.8024 121.799 75.6888 121.734 73.2972M116.511 76.3878L116.616 68.1574M121.734 73.2972L116.616 68.1574M116.616 68.1574L116.643 61.5732M116.643 61.5732L116.665 56.0425M120.698 58.4128L116.665 56.0425M120.698 58.4128C120.332 56.1484 119.894 53.6701 119.423 51.3018M116.665 56.0425L116.68 52.2236L116.153 49.8533M119.423 51.3018L116.153 49.8533M119.423 51.3018C118.893 48.6391 118.19 46.2471 117.63 44.3225M116.153 49.8533L114.599 42.874M117.63 44.3225C117.443 43.6792 117.038 42.4687 116.944 41.9522C116.549 39.7794 116.68 39.1868 116.162 36.8824M117.63 44.3225L114.599 42.874M114.599 42.874L112.927 35.368V33.5903M116.162 36.8824L112.927 33.5903M116.162 36.8824C116.019 34.9184 115.371 31.8939 115.364 29.9031M112.927 33.5903V27.6644M115.364 29.9031L112.927 27.6644M112.927 27.6644V21.3436" stroke="black" stroke-width="0.851826"/>
<path d="M113.183 124.65V118.856C113.583 117.591 113.92 116.235 114.225 114.642C114.618 112.591 114.956 110.147 115.303 107.004C115.47 105.489 115.639 103.81 115.817 101.935C115.97 100.319 116.088 97.8147 116.164 94.7578C116.206 93.0458 116.236 91.1605 116.252 89.1612C116.265 87.536 116.269 85.8355 116.263 84.0913C116.256 81.9641 116.234 79.7721 116.197 77.5729C116.166 75.7008 116.124 73.8234 116.07 71.9763C116.009 69.8787 115.933 67.8202 115.841 65.853C115.742 63.7273 115.624 61.7082 115.487 59.8614C115.353 58.0511 115.2 56.4064 115.027 54.989C114.754 52.7492 114.519 50.9602 114.295 49.4583C113.769 45.9257 113.308 43.9807 112.573 41.4914C112.188 40.1855 111.727 38.7298 111.142 36.8166C110.902 36.0289 110.714 35.1363 110.573 34.1829C110.357 32.7151 110.253 31.1031 110.243 29.5081C110.226 26.9644 110.447 24.464 110.827 22.6605C111.172 21.0237 111.647 19.9609 112.196 19.9609C113.96 19.961 113.174 23.5817 113.064 26.8085C113.041 27.498 113.048 28.1695 113.118 28.7838C113.219 29.6828 113.368 30.809 113.556 32.0759C113.827 33.9097 114.179 36.0382 114.587 38.1992C114.986 40.3131 115.437 42.458 115.918 44.3884C116.036 44.8635 116.157 45.3256 116.278 45.7711C116.672 47.2148 117 49.1167 117.273 51.236C117.511 53.0777 117.708 55.0836 117.871 57.096C118.016 58.8836 118.135 60.6763 118.232 62.3634C118.368 64.7073 118.463 66.8474 118.531 68.4867C118.547 68.8583 118.561 69.2042 118.574 69.521L118.583 69.7377C118.612 70.4619 118.665 72.081 118.72 74.215C118.762 75.8384 118.805 77.7597 118.839 79.8116C118.865 81.3841 118.885 83.0333 118.897 84.6839C118.909 86.402 118.91 88.1216 118.897 89.7576C118.874 92.4924 118.809 94.9938 118.679 96.8647C118.618 97.7408 118.543 98.4786 118.451 99.0375C118.202 100.55 118.031 102.223 117.886 103.976C117.719 105.998 117.587 108.125 117.41 110.231C117.213 112.577 116.96 114.896 116.541 117.012C115.714 121.199 114.434 124.65 113.183 124.65Z" fill="white"/>
<path d="M115.027 54.989C114.754 52.7492 114.519 50.9602 114.295 49.4583M115.027 54.989L117.871 57.096M115.027 54.989C115.2 56.4064 115.353 58.0511 115.487 59.8614M115.817 101.935C115.97 100.319 116.088 97.8147 116.164 94.7578M115.817 101.935L117.886 103.976M115.817 101.935C115.639 103.81 115.47 105.489 115.303 107.004M116.541 117.012C115.714 121.199 114.434 124.65 113.183 124.65V118.856C113.583 117.591 113.92 116.235 114.225 114.642M116.541 117.012C116.96 114.896 117.213 112.577 117.41 110.231M116.541 117.012L114.225 114.642M110.827 22.6605C111.172 21.0237 111.647 19.9609 112.196 19.9609C113.96 19.961 113.174 23.5817 113.064 26.8085M110.827 22.6605L113.064 26.8085M110.827 22.6605C110.447 24.464 110.226 26.9644 110.243 29.5081M113.064 26.8085C113.041 27.498 113.048 28.1695 113.118 28.7838C113.219 29.6828 113.368 30.809 113.556 32.0759M113.556 32.0759L110.243 29.5081M113.556 32.0759C113.827 33.9097 114.179 36.0382 114.587 38.1992M110.243 29.5081C110.253 31.1031 110.357 32.7151 110.573 34.1829M114.587 38.1992L110.573 34.1829M114.587 38.1992C114.986 40.3131 115.437 42.458 115.918 44.3884M110.573 34.1829C110.714 35.1363 110.902 36.0289 111.142 36.8166C111.727 38.7298 112.188 40.1855 112.573 41.4914M115.918 44.3884C116.036 44.8635 116.157 45.3256 116.278 45.7711C116.672 47.2148 117 49.1167 117.273 51.236M115.918 44.3884L112.573 41.4914M112.573 41.4914C113.308 43.9807 113.769 45.9257 114.295 49.4583M117.273 51.236L114.295 49.4583M117.273 51.236C117.511 53.0777 117.708 55.0836 117.871 57.096M117.871 57.096C118.016 58.8836 118.135 60.6763 118.232 62.3634M118.232 62.3634L115.487 59.8614M118.232 62.3634C118.368 64.7073 118.463 66.8474 118.531 68.4867M115.487 59.8614C115.624 61.7082 115.742 63.7273 115.841 65.853M118.531 68.4867C118.55 68.945 118.567 69.3642 118.583 69.7377C118.612 70.4619 118.665 72.081 118.72 74.215M118.531 68.4867L115.841 65.853M115.841 65.853C115.933 67.8202 116.009 69.8787 116.07 71.9763M118.72 74.215L116.07 71.9763M118.72 74.215C118.762 75.8384 118.805 77.7597 118.839 79.8116M116.07 71.9763C116.124 73.8234 116.166 75.7008 116.197 77.5729M118.839 79.8116L116.197 77.5729M118.839 79.8116C118.865 81.3841 118.885 83.0333 118.897 84.6839M116.197 77.5729C116.234 79.7721 116.256 81.9641 116.263 84.0913M118.897 84.6839L116.263 84.0913M118.897 84.6839C118.909 86.402 118.91 88.1216 118.897 89.7576M116.263 84.0913C116.269 85.8355 116.265 87.536 116.252 89.1612M118.897 89.7576L116.252 89.1612M118.897 89.7576C118.874 92.4924 118.809 94.9937 118.679 96.8647M116.252 89.1612C116.236 91.1605 116.206 93.0458 116.164 94.7578M118.679 96.8647C118.618 97.7408 118.543 98.4786 118.451 99.0375C118.202 100.55 118.031 102.223 117.886 103.976M118.679 96.8647L116.164 94.7578M117.886 103.976C117.719 105.998 117.587 108.125 117.41 110.231M117.41 110.231L115.303 107.004M115.303 107.004C114.956 110.147 114.618 112.591 114.225 114.642" stroke="black" stroke-width="0.851826"/>
</svg>
