<svg width="28" height="28" viewBox="0 0 28 28" fill="none" xmlns="http://www.w3.org/2000/svg">
<g clip-path="url(#clip0_1_4131)">
<path d="M5.16932 22.9829C5.16932 22.9605 5.16328 22.9402 5.1536 22.9235L5.11674 22.9601L5.06065 23.0054L1.48412 25.8924L1.44326 25.9253C1.36293 26.1029 1.39448 26.3219 1.53791 26.4668C1.70665 26.6374 1.9703 26.6441 2.14652 26.487L5.07611 23.1294L5.07608 23.1294L5.08327 23.1213L5.15431 23.0411C5.16362 23.0246 5.16932 23.0046 5.16932 22.9829ZM15.9913 1.4C13.1826 1.4 10.4858 2.52763 8.49511 4.53975C6.50391 6.55237 5.38261 9.28522 5.38261 12.1379C5.38261 18.0824 10.1464 22.8758 15.9913 22.8758C21.8362 22.8758 26.6 18.0824 26.6 12.1379C26.6 6.19336 21.8362 1.4 15.9913 1.4Z" stroke="#777777" stroke-width="2.8"/>
</g>
<defs>
<clipPath id="clip0_1_4131">
<rect width="28" height="28" fill="white" transform="matrix(-1 0 0 1 28 0)"/>
</clipPath>
</defs>
</svg>
